{
.appVersion = "1075";
classes = (
{
automatic = 1;
code = "A B C D E F G H I J K L M N O P Q R S T U V W X Y Z Agrave Aacute Acircumflex Atilde Adieresis Amacron Abreve Aring Aringacute Aogonek AE AEacute Cacute Ccircumflex Ccaron Cdotaccent Ccedilla Dcaron Dcroat Egrave Eacute Ecircumflex Ecaron Edieresis Emacron Ebreve Edotaccent Eogonek Gcircumflex Gbreve Gdotaccent Gcommaaccent Hcircumflex Hbar Igrave Iacute Icircumflex Itilde Idieresis Imacron Ibreve Idotaccent Iogonek Jcircumflex Kcommaaccent Lacute Lcaron Lcommaaccent Lslash Nacute Ncaron Ntilde Ncommaaccent Ograve Oacute Ocircumflex Otilde Odieresis Omacron Obreve Ohungarumlaut Oslash Oslashacute OE Racute Rcaron Rcommaaccent Sacute Scircumflex Scaron Scedilla Scommaaccent Tcaron Tcommaaccent Tbar Ugrave Uacute Ucircumflex Utilde Udieresis Umacron Ubreve Uring Uhungarumlaut Uogonek Wgrave Wacute Wcircumflex Wdieresis Ygrave Yacute Ycircumflex Ydieresis Zacute Zcaron Zdotaccent Eng Eth Thorn endash.cap emdash.cap periodcentered.cap parenleft.cap parenright.cap bracketleft.cap bracketright.cap braceleft.cap braceright.cap at.cap";
name = caps;
},
{
automatic = 1;
code = "questiondown.cap endash.cap emdash.cap periodcentered.cap exclamdown.cap parenleft.cap parenright.cap bracketleft.cap bracketright.cap braceleft.cap braceright.cap";
name = cap;
},
{
automatic = 1;
code = "slash fraction perthousand onehalf onequarter threequarters threequarters zeroinferior oneinferior twoinferior threeinferior fourinferior fiveinferior sixinferior seveninferior eightinferior nineinferior";
name = frac2;
},
{
automatic = 1;
code = "questiondown endash emdash periodcentered exclamdown parenleft parenright bracketleft bracketright braceleft braceright";
name = cap_0;
},
{
automatic = 1;

glyphs = (
{
glyphname = g;
lastChange = "2017-11-12 23:05:21 +0000";
layers = (
{
layerId = "F1BADE0A-D307-4A55-B1D9-DEBA981FCD10";
paths = (
{
closed = 1;
nodes = (
"405 -239 OFFCURVE",
"469 -193 OFFCURVE",
"469 -85 CURVE SMOOTH",
"469 39 OFFCURVE",
"416 59 OFFCURVE",
"292 59 CURVE SMOOTH",
"161 59 OFFCURVE",
"155 64 OFFCURVE",
"155 113 CURVE SMOOTH",
"155 126 OFFCURVE",
"178 183 OFFCURVE",
"178 183 CURVE",
"190 181 OFFCURVE",
"224 179 OFFCURVE",
"232 179 CURVE SMOOTH",
"355 179 OFFCURVE",
"414 220 OFFCURVE",
"414 343 CURVE SMOOTH",
"414 412 OFFCURVE",
"399 442 OFFCURVE",
"374 465 CURVE",
"482 465 LINE",
"482 500 LINE",
"342 497 LINE",
"342 497 OFFCURVE",
"290 510 OFFCURVE",
"236 510 CURVE SMOOTH",
"129 510 OFFCURVE",
"65 462 OFFCURVE",
"65 343 CURVE SMOOTH",
"65 247 OFFCURVE",
"105 206 OFFCURVE",
"151 191 CURVE",
"151 191 OFFCURVE",
"121 128 OFFCURVE",
"121 113 CURVE SMOOTH",
"121 82 OFFCURVE",
"127 58 OFFCURVE",
"143 48 CURVE",
"89 9 OFFCURVE",
"58 -14 OFFCURVE",
"58 -80 CURVE SMOOTH",
"58 -198 OFFCURVE",
"90 -239 OFFCURVE",
"256 -239 CURVE SMOOTH {\nname = hr00;\n}"
);
},
{
closed = 1;
nodes = (
"119 -207 OFFCURVE",
"94 -174 OFFCURVE",
"94 -79 CURVE SMOOTH",
"94 -31 OFFCURVE",
"111 -10 OFFCURVE",
"169 30 CURVE",
"169 30 OFFCURVE",
"249 27 OFFCURVE",
"290 27 CURVE",
"391 27 OFFCURVE",
"432 16 OFFCURVE",
"432 -85 CURVE SMOOTH",
"432 -171 OFFCURVE",
"381 -207 OFFCURVE",
"257 -207 CURVE SMOOTH"
);
},
{
closed = 1;
nodes = (
"141 211 OFFCURVE",
"101 243 OFFCURVE",
"101 343 CURVE SMOOTH",
"101 443 OFFCURVE",
"141 478 OFFCURVE",
"235 478 CURVE SMOOTH",
"340 478 OFFCURVE",
"377 443 OFFCURVE",
"377 343 CURVE SMOOTH",
"377 243 OFFCURVE",
"340 211 OFFCURVE",
"235 211 CURVE SMOOTH"
);
}
);
width = 501;
},
{
layerId = "D02A7F20-5372-446E-84B7-8F4B885083B2";
paths = (
{
closed = 1;
nodes = (
"407 -230 OFFCURVE",
"515 -184 OFFCURVE",
"515 -62 CURVE SMOOTH",
"515 50 OFFCURVE",
"466.998 87.667 OFFCURVE",
"297 89 CURVE SMOOTH",
"211.997 89.667 OFFCURVE",
"200 96 OFFCURVE",
"200 122 CURVE SMOOTH",
"200 135 OFFCURVE",
"210 161 OFFCURVE",
"210 161 CURVE",
"219 159 OFFCURVE",
"240 157 OFFCURVE",
"251 157 CURVE SMOOTH",
"388 157 OFFCURVE",
"462 193 OFFCURVE",
"462 333 CURVE SMOOTH",
"462 362 OFFCURVE",
"449 387 OFFCURVE",
"440 401 CURVE",
"515 395 LINE",
"515 502 LINE",
"354 497 LINE",
"354 497 OFFCURVE",
"297 510 OFFCURVE",
"253 510 CURVE SMOOTH",
"136 510 OFFCURVE",
"43 462 OFFCURVE",
"43 333 CURVE SMOOTH",
"43 246 OFFCURVE",
"76 209 OFFCURVE",
"111 184 CURVE",
"111 184 OFFCURVE",
"72 129 OFFCURVE",
"72 104 CURVE SMOOTH",
"72 73 OFFCURVE",
"87 43 OFFCURVE",
"109 28 CURVE",
"59 -11 OFFCURVE",
"37 -45 OFFCURVE",
"37 -91 CURVE SMOOTH",
"37 -203 OFFCURVE",
"132 -230 OFFCURVE",
"278 -230 CURVE SMOOTH {\nname = hr00;\n}"
);
},
{
closed = 1;
nodes = (
"204 -120 OFFCURVE",
"169 -106 OFFCURVE",
"169 -77 CURVE SMOOTH",
"169 -52 OFFCURVE",
"179 -37 OFFCURVE",
"196 -20 CURVE",
"196 -20 OFFCURVE",
"258 -27 OFFCURVE",
"286 -27 CURVE",
"360 -28 OFFCURVE",
"380 -32 OFFCURVE",
"380 -70 CURVE SMOOTH",
"380 -106 OFFCURVE",
"344 -120 OFFCURVE",
"279 -120 CURVE SMOOTH"
);
},
{
closed = 1;
nodes = (
"200 259 OFFCURVE",
"177 286 OFFCURVE",
"177 333 CURVE SMOOTH",
"177 380 OFFCURVE",
"200 406 OFFCURVE",
"254 406 CURVE SMOOTH",
"308 406 OFFCURVE",
"330 380 OFFCURVE",
"330 333 CURVE SMOOTH",
"330 286 OFFCURVE",
"308 259 OFFCURVE",
"254 259 CURVE SMOOTH"
);
}
);
width = 534;
},
{
layerId = "2D07D9D6-DD7A-4EF1-82E8-8B18836F0AAC";
paths = (
{
closed = 1;
nodes = (
"452 -220 OFFCURVE",
"550 -150 OFFCURVE",
"550 -22 CURVE SMOOTH",
"550 99 OFFCURVE",
"502 138 OFFCURVE",
"362 138 CURVE SMOOTH",
"257 138 OFFCURVE",
"231 140 OFFCURVE",
"231 148 CURVE SMOOTH",
"231 154 OFFCURVE",
"235 160 OFFCURVE",
"235 160 CURVE",
"247 158 OFFCURVE",
"262 157 OFFCURVE",
"273 157 CURVE SMOOTH",
"440 157 OFFCURVE",
"515 188 OFFCURVE",
"515 338 CURVE SMOOTH",
"515 350 OFFCURVE",
"510 368 OFFCURVE",
"506 379 CURVE",
"553 379 LINE",
"553 510 LINE",
"368 507 LINE",
"368 507 OFFCURVE",
"308 518 OFFCURVE",
"265 518 CURVE SMOOTH",
"89 518 OFFCURVE",
"17 471 OFFCURVE",
"17 338 CURVE SMOOTH",
"17 244 OFFCURVE",
"60 205 OFFCURVE",
"98 187 CURVE",
"98 187 OFFCURVE",
"40 139 OFFCURVE",
"40 114 CURVE SMOOTH",
"40 83 OFFCURVE",
"54 54 OFFCURVE",
"76 39 CURVE",
"26 0 OFFCURVE",
"12 -35 OFFCURVE",
"12 -81 CURVE SMOOTH",
"12 -203 OFFCURVE",
"127 -220 OFFCURVE",
"293 -220 CURVE SMOOTH {\nname = hr00;\n}"
);
},
{
closed = 1;
nodes = (
"222 -66 OFFCURVE",
"195 -63 OFFCURVE",
"195 -53 CURVE SMOOTH",
"195 -42 OFFCURVE",
"195 -36 OFFCURVE",
"204 -31 CURVE",
"204 -31 OFFCURVE",
"237 -35 OFFCURVE",
"281 -35 CURVE SMOOTH",
"331 -35 OFFCURVE",
"347 -36 OFFCURVE",
"347 -50 CURVE SMOOTH",
"347 -62 OFFCURVE",
"330 -66 OFFCURVE",
"274 -66 CURVE SMOOTH"
);
},
{
closed = 1;
nodes = (
"239 303 OFFCURVE",
"227 312 OFFCURVE",
"227 339 CURVE SMOOTH",
"227 366 OFFCURVE",
"239 375 OFFCURVE",
"266 375 CURVE SMOOTH",
"293 375 OFFCURVE",
"305 366 OFFCURVE",
"305 339 CURVE SMOOTH",
"305 312 OFFCURVE",
"293 303 OFFCURVE",
"266 303 CURVE SMOOTH"
);
}
);
width = 562;
}
);
leftKerningGroup = g;
rightKerningGroup = g;
unicode = 0067;
},
{
glyphname = h;
lastChange = "2017-11-12 23:05:21 +0000";
layers = (
{
layerId = "F1BADE0A-D307-4A55-B1D9-DEBA981FCD10";
paths = (
{
closed = 1;
nodes = (
"114 0 LINE {\nname = hr00;\n}",
"114 437 LINE",
"114 437 OFFCURVE",
"199 477 OFFCURVE",
"288 477 CURVE SMOOTH",
"399 477 OFFCURVE",
"417 428 OFFCURVE",
"417 258 CURVE SMOOTH",
"417 0 LINE",
"452 0 LINE",
"452 260 LINE",
"452 454 OFFCURVE",
"424 509 OFFCURVE",
"288 509 CURVE SMOOTH",
"202 509 OFFCURVE",
"114 470 OFFCURVE",
"114 470 CURVE",
"114 730 LINE",
"79 730 LINE",
"79 0 LINE"
);
}
);
width = 526;
},
{
layerId = "D02A7F20-5372-446E-84B7-8F4B885083B2";
paths = (
{
closed = 1;
nodes = (
"196 0 LINE {\nname = hr00;\n}",
"196 376 LINE",
"196 376 OFFCURVE",
"243 392 OFFCURVE",
"287 392 CURVE SMOOTH",
"352 392 OFFCURVE",
"362 343 OFFCURVE",
"362 268 CURVE SMOOTH",
"362 0 LINE",
"496 0 LINE",
"496 271 LINE",
"496 424 OFFCURVE",
"460 512 OFFCURVE",
"320 512 CURVE SMOOTH",
"265 512 OFFCURVE",
"196 476 OFFCURVE",
"196 476 CURVE",
"196 700 LINE",
"62 700 LINE",
"62 0 LINE"
);
}
);
width = 553;
},
{
layerId = "2D07D9D6-DD7A-4EF1-82E8-8B18836F0AAC";
paths = (
{
closed = 1;
nodes = (
"252 0 LINE",
"252 319 LINE",
"252 319 OFFCURVE",
"276 325 OFFCURVE",
"293 325 CURVE SMOOTH",
"320 325 OFFCURVE",
"331 299 OFFCURVE",
"331 238 CURVE SMOOTH",
"331 0 LINE",
"555 0 LINE",
"555 261 LINE SMOOTH",
"555 451 OFFCURVE",
"504 518 OFFCURVE",
"359 518 CURVE SMOOTH",
"322 518 OFFCURVE",
"252 501 OFFCURVE",
"252 501 CURVE",
"252 690 LINE",
"28 690 LINE",
"28 0 LINE {\nname = hr00;\n}"
);
}
);
width = 578;
}
);
leftKerningGroup = h;
rightKerningGroup = n;
unicode = 0068;
},
{
glyphname = s;
lastChange = "2017-11-12 23:05:21 +0000";
layers = (
{
layerId = "F1BADE0A-D307-4A55-B1D9-DEBA981FCD10";
paths = (
{
closed = 1;
nodes = (
"340 -9 OFFCURVE",
"412 27 OFFCURVE",
"412 144 CURVE SMOOTH",
"412 238 OFFCURVE",
"361 257 OFFCURVE",
"230 278 CURVE SMOOTH",
"115 296 OFFCURVE",
"88 315 OFFCURVE",
"88 377 CURVE SMOOTH",
"88 458 OFFCURVE",
"158 477 OFFCURVE",
"222 477 CURVE SMOOTH",
"290 477 OFFCURVE",
"392 461 OFFCURVE",
"392 461 CURVE",
"394 494 LINE {\nname = hr00;\n}",
"394 494 OFFCURVE",
"299 509 OFFCURVE",
"222 509 CURVE SMOOTH",
"141 509 OFFCURVE",
"51 481 OFFCURVE",
"51 375 CURVE SMOOTH",
"51 282 OFFCURVE",
"103 263 OFFCURVE",
"220 245 CURVE SMOOTH",
"339 227 OFFCURVE",
"375 213 OFFCURVE",
"375 141 CURVE SMOOTH",
"375 45 OFFCURVE",
"314 23 OFFCURVE",
"220 23 CURVE SMOOTH",
"169 23 OFFCURVE",
"61 40 OFFCURVE",
"61 40 CURVE",
"57 7 LINE",
"57 7 OFFCURVE",
"165 -9 OFFCURVE",
"222 -9 CURVE SMOOTH"
);
}
);
width = 461;
},
{
layerId = "D02A7F20-5372-446E-84B7-8F4B885083B2";
paths = (
{
closed = 1;
nodes = (
"361 -12 OFFCURVE",
"437 33 OFFCURVE",
"437 150 CURVE SMOOTH",
"437 251 OFFCURVE",
"396 285 OFFCURVE",
"280 306 CURVE SMOOTH",
"188 323 OFFCURVE",
"169 328 OFFCURVE",
"169 351 CURVE SMOOTH",
"169 378 OFFCURVE",
"181 391 OFFCURVE",
"239 391 CURVE SMOOTH",
"297 391 OFFCURVE",
"421 375 OFFCURVE",
"421 375 CURVE",
"423 486 LINE {\nname = hr00;\n}",
"423 486 OFFCURVE",
"301 511 OFFCURVE",
"229 511 CURVE SMOOTH",
"124 511 OFFCURVE",
"36 464 OFFCURVE",
"36 348 CURVE SMOOTH",
"36 238 OFFCURVE",
"93 212 OFFCURVE",
"201 194 CURVE SMOOTH",
"293 179 OFFCURVE",
"304 169 OFFCURVE",
"304 147 CURVE SMOOTH",
"304 121 OFFCURVE",
"287 108 OFFCURVE",
"223 108 CURVE SMOOTH",
"172 108 OFFCURVE",
"48 124 OFFCURVE",
"48 124 CURVE",
"44 12 LINE",
"44 12 OFFCURVE",
"162 -12 OFFCURVE",
"236 -12 CURVE SMOOTH"
);
}
);
width = 472;
},
{
layerId = "2D07D9D6-DD7A-4EF1-82E8-8B18836F0AAC";
paths = (
{
closed = 1;
nodes = (
"396 -13 OFFCURVE",
"472 35 OFFCURVE",
"472 163 CURVE SMOOTH",
"472 273 OFFCURVE",
"430 315 OFFCURVE",
"308 328 CURVE SMOOTH",
"251 334 OFFCURVE",
"243 336 OFFCURVE",
"243 341 CURVE SMOOTH",
"243 347 OFFCURVE",
"252 349 OFFCURVE",
"275 349 CURVE SMOOTH",
"333 349 OFFCURVE",
"457 335 OFFCURVE",
"457 335 CURVE",
"465 492 LINE {\nname = hr00;\n}",
"465 492 OFFCURVE",
"371 518 OFFCURVE",
"243 518 CURVE SMOOTH",
"113 518 OFFCURVE",
"19 479 OFFCURVE",
"19 334 CURVE SMOOTH",
"19 229 OFFCURVE",
"63 187 OFFCURVE",
"175 172 CURVE SMOOTH",
"235 164 OFFCURVE",
"248 162 OFFCURVE",
"248 157 CURVE SMOOTH",
"248 150 OFFCURVE",
"238 148 OFFCURVE",
"214 148 CURVE SMOOTH",
"151 148 OFFCURVE",
"27 165 OFFCURVE",
"27 165 CURVE",
"22 14 LINE",
"22 14 OFFCURVE",
"109 -13 OFFCURVE",
"250 -13 CURVE SMOOTH"
);
}
);
width = 489;
}
);
leftKerningGroup = s;
rightKerningGroup = s;
unicode = 0073;
},
{
glyphname = E;
lastChange = "2017-11-12 23:05:21 +0000";
layers = (
{
layerId = "F1BADE0A-D307-4A55-B1D9-DEBA981FCD10";
paths = (
{
closed = 1;
nodes = (
"501 0 LINE",
"501 34 LINE",
"128 34 LINE",
"128 341 LINE",
"441 341 LINE",
"441 375 LINE",
"128 375 LINE",
"128 666 LINE",
"501 666 LINE",
"501 700 LINE",
"92 700 LINE",
"92 0 LINE {\nname = hr00;\n}"
);
}
);
width = 552;
},
{
layerId = "D02A7F20-5372-446E-84B7-8F4B885083B2";
paths = (
{
closed = 1;
nodes = (
"514 0 LINE",
"514 120 LINE",
"212 120 LINE",
"212 283 LINE",
"454 283 LINE",
"454 401 LINE",
"212 401 LINE",
"212 560 LINE",
"514 560 LINE",
"514 680 LINE",
"74 680 LINE",
"74 0 LINE {\nname = hr00;\n}"
);
}
);
width = 554;
},
{
layerId = "2D07D9D6-DD7A-4EF1-82E8-8B18836F0AAC";
paths = (
{
closed = 1;
nodes = (
"532 0 LINE",
"532 185 LINE",
"262 185 LINE",
"262 245 LINE",
"472 245 LINE",
"472 428 LINE",
"262 428 LINE",
"262 485 LINE",
"532 485 LINE",
"532 670 LINE",
"30 670 LINE",
"30 0 LINE {\nname = hr00;\n}"
);
}
);
width = 549;
}
);
leftKerningGroup = I;
rightKerningGroup = E;
unicode = 0045;
},
{
glyphname = F;
lastChange = "2017-11-12 23:05:21 +0000";
layers = (
{
layerId = "F1BADE0A-D307-4A55-B1D9-DEBA981FCD10";
paths = (
{
closed = 1;
nodes = (
"128 0 LINE",
"128 316 LINE",
"442 316 LINE",
"442 350 LINE",
"128 350 LINE",
"128 666 LINE",
"493 666 LINE",
"493 700 LINE",
"92 700 LINE",
"92 0 LINE {\nname = hr00;\n}"
);
}
);
width = 523;
},
{
layerId = "D02A7F20-5372-446E-84B7-8F4B885083B2";
paths = (
{
closed = 1;
nodes = (
"212 0 LINE",
"212 240 LINE",
"454 240 LINE",
"454 360 LINE",
"212 360 LINE",
"212 560 LINE",
"508 560 LINE",
"508 680 LINE",
"74 680 LINE",
"74 0 LINE {\nname = hr00;\n}"
);
}
);
width = 531;
},
{
layerId = "2D07D9D6-DD7A-4EF1-82E8-8B18836F0AAC";
paths = (
{
closed = 1;
nodes = (
"262 0 LINE",
"262 184 LINE",
"453 184 LINE",
"453 373 LINE",
"262 373 LINE",
"262 481 LINE",
"513 481 LINE",
"513 670 LINE",
"30 670 LINE",
"30 0 LINE {\nname = hr00;\n}"
);
}
);
width = 521;
}
);
leftKerningGroup = I;
unicode = 0046;
},
{
glyphname = G;
lastChange = "2017-11-12 23:05:21 +0000";
layers = (
{
layerId = "F1BADE0A-D307-4A55-B1D9-DEBA981FCD10";
paths = (
{
closed = 1;
nodes = (
"393 -9 OFFCURVE",
"511 9 OFFCURVE",
"547 16 CURVE",
"547 347 LINE",
"361 347 LINE",
"361 313 LINE {\nname = hr00;\n}",
"511 313 LINE",
"511 45 LINE",
"467 37 OFFCURVE",
"383 25 OFFCURVE",
"327 25 CURVE SMOOTH",
"143 25 OFFCURVE",
"103 147 OFFCURVE",
"103 347 CURVE SMOOTH",
"103 546 OFFCURVE",
"139 675 OFFCURVE",
"327 675 CURVE SMOOTH",
"418 675 OFFCURVE",
"544 649 OFFCURVE",
"544 649 CURVE",
"547 684 LINE",
"547 684 OFFCURVE",
"432 709 OFFCURVE",
"327 709 CURVE SMOOTH",
"114 709 OFFCURVE",
"65 565 OFFCURVE",
"65 347 CURVE SMOOTH",
"65 125 OFFCURVE",
"121 -9 OFFCURVE",
"327 -9 CURVE SMOOTH"
);
}
);
width = 619;
},
{
layerId = "D02A7F20-5372-446E-84B7-8F4B885083B2";
paths = (
{
closed = 1;
nodes = (
"412 -12 OFFCURVE",
"555 11 OFFCURVE",
"555 11 CURVE",
"555 364 LINE",
"357 364 LINE",
"357 244 LINE {\nname = hr00;\n}",
"419 244 LINE",
"419 112 LINE",
"419 112 OFFCURVE",
"377 108 OFFCURVE",
"336 108 CURVE SMOOTH",
"212 108 OFFCURVE",
"187 159 OFFCURVE",
"187 340 CURVE SMOOTH",
"187 531 OFFCURVE",
"222 570 OFFCURVE",
"340 570 CURVE SMOOTH",
"431 570 OFFCURVE",
"551 557 OFFCURVE",
"551 557 CURVE",
"555 664 LINE",
"555 664 OFFCURVE",
"423 692 OFFCURVE",
"318 692 CURVE SMOOTH",
"117 692 OFFCURVE",
"45 588 OFFCURVE",
"45 340 CURVE SMOOTH",
"45 112 OFFCURVE",
"101 -12 OFFCURVE",
"323 -12 CURVE SMOOTH"
);
}
);
width = 611;
},
{
layerId = "2D07D9D6-DD7A-4EF1-82E8-8B18836F0AAC";
paths = (
{
closed = 1;
nodes = (
"411 -9 OFFCURVE",
"592 20 OFFCURVE",
"592 20 CURVE",
"592 394 LINE",
"345 394 LINE",
"346 232 LINE {\nname = hr00;\n}",
"376 232 LINE",
"376 182 LINE",
"376 182 OFFCURVE",
"355 181 OFFCURVE",
"342 181 CURVE SMOOTH",
"265 181 OFFCURVE",
"251 231 OFFCURVE",
"251 336 CURVE SMOOTH",
"251 453 OFFCURVE",
"253 487 OFFCURVE",
"352 487 CURVE SMOOTH",
"443 487 OFFCURVE",
"587 474 OFFCURVE",
"587 474 CURVE",
"587 649 LINE",
"587 649 OFFCURVE",
"447 683 OFFCURVE",
"332 683 CURVE SMOOTH",
"107 683 OFFCURVE",
"17 597 OFFCURVE",
"17 336 CURVE SMOOTH",
"17 98 OFFCURVE",
"77 -9 OFFCURVE",
"332 -9 CURVE SMOOTH"
);
}
);
width = 619;
}
);
leftKerningGroup = O;
rightKerningGroup = G;
unicode = 0047;
},
{
glyphname = H;
lastChange = "2017-11-12 23:05:21 +0000";
layers = (
{
layerId = "F1BADE0A-D307-4A55-B1D9-DEBA981FCD10";
paths = (
{
closed = 1;
nodes = (
"128 0 LINE",
"128 334 LINE",
"546 334 LINE",
"546 0 LINE {\nname = hr00;\n}",
"582 0 LINE",
"582 700 LINE",
"546 700 LINE",
"546 368 LINE",
"128 368 LINE",
"128 700 LINE",
"92 700 LINE",
"92 0 LINE"
);
}
);
width = 674;
},
{
layerId = "D02A7F20-5372-446E-84B7-8F4B885083B2";
paths = (
{
closed = 1;
nodes = (
"212 0 LINE",
"212 282 LINE",
"465 282 LINE",
"465 0 LINE {\nname = hr00;\n}",
"603 0 LINE",
"603 680 LINE",
"465 680 LINE",
"465 402 LINE",
"212 402 LINE",
"212 680 LINE",
"74 680 LINE",
"74 0 LINE"
);
}
);
width = 677;
},
{
layerId = "2D07D9D6-DD7A-4EF1-82E8-8B18836F0AAC";
paths = (
{
closed = 1;
nodes = (
"262 0 LINE",
"262 234 LINE",
"393 234 LINE",
"393 0 LINE {\nname = hr00;\n}",
"625 0 LINE",
"625 670 LINE",
"393 670 LINE",
"393 423 LINE",
"262 423 LINE",
"262 670 LINE",
"30 670 LINE",
"30 0 LINE"
);
}
);
width = 655;
}
);
leftKerningGroup = I;
rightKerningGroup = I;
unicode = 0048;
},
{
glyphname = S;
lastChange = "2017-11-12 23:05:21 +0000";
layers = (
{
layerId = "F1BADE0A-D307-4A55-B1D9-DEBA981FCD10";
paths = (
{
closed = 1;
nodes = (
"412 -7 OFFCURVE",
"486 47 OFFCURVE",
"486 203 CURVE SMOOTH",
"486 329 OFFCURVE",
"414.004 359.023 OFFCURVE",
"282 380 CURVE SMOOTH",
"156.004 400.023 OFFCURVE",
"94 415 OFFCURVE",
"94 537 CURVE SMOOTH",
"94 637 OFFCURVE",
"158 677 OFFCURVE",
"272 677 CURVE SMOOTH",
"330 677 OFFCURVE",
"467 660 OFFCURVE",
"467 660 CURVE",
"471 695 LINE {\nname = hr00;\n}",
"471 695 OFFCURVE",
"349 711 OFFCURVE",
"272 711 CURVE SMOOTH",
"139 711 OFFCURVE",
"56 664 OFFCURVE",
"56 535 CURVE SMOOTH",
"56 388 OFFCURVE",
"136.012 365.075 OFFCURVE",
"273 344 CURVE SMOOTH",
"396.012 325.075 OFFCURVE",
"448 302 OFFCURVE",
"448 200 CURVE SMOOTH",
"448 75 OFFCURVE",
"387 27 OFFCURVE",
"273 27 CURVE SMOOTH",
"202 27 OFFCURVE",
"64 44 OFFCURVE",
"64 44 CURVE",
"60 9 LINE",
"60 9 OFFCURVE",
"199 -7 OFFCURVE",
"274 -7 CURVE SMOOTH"
);
}
);
width = 540;
},
{
layerId = "D02A7F20-5372-446E-84B7-8F4B885083B2";
paths = (
{
closed = 1;
nodes = (
"406 -12 OFFCURVE",
"507 57 OFFCURVE",
"507 205 CURVE SMOOTH",
"507 318 OFFCURVE",
"462.073 359.23 OFFCURVE",
"315 406 CURVE SMOOTH",
"201.073 442.23 OFFCURVE",
"174 457 OFFCURVE",
"174 500 CURVE SMOOTH",
"174 545 OFFCURVE",
"209 572 OFFCURVE",
"283 572 CURVE SMOOTH",
"341 572 OFFCURVE",
"482 556 OFFCURVE",
"482 556 CURVE",
"493 665 LINE {\nname = hr00;\n}",
"493 665 OFFCURVE",
"360 692 OFFCURVE",
"269 692 CURVE SMOOTH",
"131 692 OFFCURVE",
"37 631 OFFCURVE",
"37 490 CURVE SMOOTH",
"37 381 OFFCURVE",
"94.97 328.897 OFFCURVE",
"248 285 CURVE SMOOTH",
"345.97 256.897 OFFCURVE",
"370 238 OFFCURVE",
"370 196 CURVE SMOOTH",
"370 143 OFFCURVE",
"338 108 OFFCURVE",
"264 108 CURVE SMOOTH",
"193 108 OFFCURVE",
"59 126 OFFCURVE",
"59 126 CURVE",
"45 19 LINE",
"45 19 OFFCURVE",
"179 -12 OFFCURVE",
"272 -12 CURVE SMOOTH"
);
}
);
width = 544;
},
{
layerId = "2D07D9D6-DD7A-4EF1-82E8-8B18836F0AAC";
paths = (
{
closed = 1;
nodes = (
"474 -14 OFFCURVE",
"568 45 OFFCURVE",
"568 216 CURVE SMOOTH",
"568 373 OFFCURVE",
"512 398 OFFCURVE",
"321 441 CURVE SMOOTH",
"257 455 OFFCURVE",
"250 460 OFFCURVE",
"250 474 CURVE SMOOTH",
"250 488 OFFCURVE",
"260 492 OFFCURVE",
"301 492 CURVE SMOOTH",
"399 492 OFFCURVE",
"540 477 OFFCURVE",
"540 477 CURVE",
"546 657 LINE {\nname = hr00;\n}",
"546 657 OFFCURVE",
"388 683 OFFCURVE",
"281 683 CURVE SMOOTH",
"115 683 OFFCURVE",
"16 639 OFFCURVE",
"16 448 CURVE SMOOTH",
"16 308 OFFCURVE",
"69 256 OFFCURVE",
"257 227 CURVE SMOOTH",
"327 216 OFFCURVE",
"334 214 OFFCURVE",
"334 200 CURVE SMOOTH",
"334 184 OFFCURVE",
"322 177 OFFCURVE",
"282 177 CURVE SMOOTH",
"184 177 OFFCURVE",
"31 199 OFFCURVE",
"31 199 CURVE",
"21 22 LINE",
"21 22 OFFCURVE",
"160 -14 OFFCURVE",
"303 -14 CURVE SMOOTH"
);
}
);
width = 578;
}
);
leftKerningGroup = S;
rightKerningGroup = S;
unicode = 0053;
},
{
glyphname = endash;
lastChange = "2017-11-12 23:05:21 +0000";
layers = (
{
layerId = "F1BADE0A-D307-4A55-B1D9-DEBA981FCD10";
paths = (
{
closed = 1;
nodes = (
"572 252 LINE",
"572 286 LINE",
"72 286 LINE {\nname = hr00;\n}",
"72 252 LINE"
);
}
);
width = 643;
},
{
layerId = "D02A7F20-5372-446E-84B7-8F4B885083B2";
paths = (
{
closed = 1;
nodes = (
"557 209 LINE",
"557 323 LINE",
"57 323 LINE {\nname = hr00;\n}",
"57 209 LINE"
);
}
);
width = 614;
},
{
layerId = "2D07D9D6-DD7A-4EF1-82E8-8B18836F0AAC";
paths = (
{
closed = 1;
nodes = (
"530 155 LINE",
"530 155 OFFCURVE",
"530 352 OFFCURVE",
"530 352 CURVE",
"30 352 LINE",
"30 155 LINE {\nname = hr00;\n}"
);
}
);
width = 560;
}
);
leftKerningGroup = hyphen;
rightKerningGroup = hyphen;
unicode = 2013;
},
{
glyphname = macron;
lastChange = "2017-11-12 23:05:21 +0000";
layers = (
{
layerId = "F1BADE0A-D307-4A55-B1D9-DEBA981FCD10";
paths = (
{
closed = 1;
nodes = (
"247 642 LINE",
"247 674 LINE",
"-20 674 LINE",
"-20 642 LINE {\nname = hr00;\n}"
);
}
);
width = 215;
},
{
layerId = "D02A7F20-5372-446E-84B7-8F4B885083B2";
paths = (
{
closed = 1;
nodes = (
"282 597 LINE",
"282 697 LINE",
"-5 697 LINE",
"-5 597 LINE {\nname = hr00;\n}"
);
}
);
width = 268;
},
{
layerId = "2D07D9D6-DD7A-4EF1-82E8-8B18836F0AAC";
paths = (
{
closed = 1;
nodes = (
"387 563 LINE",
"387 707 LINE",
"60 707 LINE",
"60 563 LINE"
);
}
);
width = 443;
}
);
unicode = 00AF;
},
{
glyphname = dollar;
lastChange = "2017-11-12 23:05:21 +0000";
layers = (
{
components = (
{
name = S;
transform = "{0.941, 0, 0, 0.941, 27, 0}";
}
);
layerId = "F1BADE0A-D307-4A55-B1D9-DEBA981FCD10";
paths = (
{
closed = 1;
nodes = (
"365 790 LINE",
"330 790 LINE",
"212 -113 LINE {\nname = hr00;\n}",
"212 -117 OFFCURVE",
"247 -120 OFFCURVE",
"247 -120 CURVE"
);
}
);
width = 560;
},
{
components = (
{
name = S;
transform = "{0.971, 0, 0, 0.971, 16, 0}";
}
);
layerId = "D02A7F20-5372-446E-84B7-8F4B885083B2";
paths = (
{
closed = 1;
nodes = (
"382 810 LINE",
"308 810 LINE",
"190 -123 LINE {\nname = hr00;\n}",
"190 -127 OFFCURVE",
"264 -130 OFFCURVE",
"264 -130 CURVE"
);
}
);
width = 560;
},
{
components = (
{
name = S;
transform = "{0.97985, 0, 0, 0.97991, -9, 1}";
}
);
layerId = "2D07D9D6-DD7A-4EF1-82E8-8B18836F0AAC";
paths = (
{
closed = 1;
nodes = (
"309 635 LINE",
"309 751 LINE",
"247 751 LINE",
"247 635 LINE"
);
},
{
closed = 1;
nodes = (
"309 -85 LINE",
"309 31 LINE",
"247 31 LINE",
"247 -85 LINE {\nname = hr00;\n}"
);
}
);
width = 550;
}
);
unicode = 0024;
},
{
glyphname = exclam;
lastChange = "2017-11-12 23:05:21 +0000";
layers = (
{
layerId = "F1BADE0A-D307-4A55-B1D9-DEBA981FCD10";
paths = (
{
closed = 1;
nodes = (
"130 214 LINE",
"130 700 LINE",
"95 700 LINE",
"95 214 LINE"
);
},
{
closed = 1;
nodes = (
"133 0 LINE",
"133 80 LINE",
"93 80 LINE",
"93 0 LINE {\nname = hr00;\n}"
);
}
);
width = 225;
},
{
layerId = "D02A7F20-5372-446E-84B7-8F4B885083B2";
paths = (
{
closed = 1;
nodes = (
"199 250 LINE",
"213 680 LINE",
"68 680 LINE",
"81 250 LINE"
);
},
{
closed = 1;
nodes = (
"212 0 LINE",
"212 161 LINE",
"68 161 LINE",
"68 0 LINE {\nname = hr00;\n}"
);
}
);
width = 280;
},
{
layerId = "2D07D9D6-DD7A-4EF1-82E8-8B18836F0AAC";
paths = (
{
closed = 1;
nodes = (
"252 244 LINE",
"266 670 LINE",
"24 670 LINE",
"38 244 LINE"
);
},
{
closed = 1;
nodes = (
"259 0 LINE",
"259 198 LINE",
"31 198 LINE",
"31 0 LINE {\nname = hr00;\n}"
);
}
);
width = 290;
}
);
unicode = 0021;
},
{
glyphname = summation;
lastChange = "2017-11-12 23:05:21 +0000";
layers = (
{
layerId = "F1BADE0A-D307-4A55-B1D9-DEBA981FCD10";
paths = (
{
closed = 1;
nodes = (
"503 -151 LINE",
"503 -117 LINE",
"90 -117 LINE",
"90 -85 LINE",
"374 298 LINE",
"374 328 LINE",
"90 688 LINE",
"90 715 LINE",
"503 715 LINE",
"503 749 LINE",
"53 749 LINE",
"53 676 LINE",
"339 314 LINE {\nname = hr00;\n}",
"53 -76 LINE",
"53 -151 LINE"
);
}
);
width = 560;
},
{
layerId = "D02A7F20-5372-446E-84B7-8F4B885083B2";
paths = (
{
closed = 1;
nodes = (
"530 -180 LINE",
"530 -60 LINE",
"176 -60 LINE",
"176 -45 LINE",
"391 251 LINE",
"391 344 LINE",
"176 625 LINE",
"176 640 LINE",
"530 640 LINE",
"530 760 LINE",
"30 760 LINE",
"30 620 LINE",
"268 298 LINE {\nname = hr00;\n}",
"30 -41 LINE",
"30 -180 LINE"
);
}
);
width = 560;
},
{
layerId = "2D07D9D6-DD7A-4EF1-82E8-8B18836F0AAC";
paths = (
{
closed = 1;
nodes = (
"558 -180 LINE",
"558 20 LINE",
"277 20 LINE",
"463 239 LINE",
"463 346 LINE",
"279 560 LINE",
"558 560 LINE",
"558 760 LINE",
"18 760 LINE",
"18 586 LINE",
"253 290 LINE",
"18 -10 LINE",
"18 -180 LINE"
);
}
);
width = 568;
}
);
unicode = 2211;
},
{
glyphname = a;
lastChange = "2017-11-12 23:05:21 +0000";
layers = (
{
layerId = "F1BADE0A-D307-4A55-B1D9-DEBA981FCD10";
paths = (
{
closed = 1;
nodes = (
"279 -9 OFFCURVE",
"381 34 OFFCURVE",
"381 34 CURVE",
"403 3 OFFCURVE",
"441 -8 OFFCURVE",
"484 -8 CURVE",
"486 23 LINE",
"451 26 OFFCURVE",
"414 36 OFFCURVE",
"411 65 CURVE",
"411 353 LINE {\nname = hr00;\n}",
"411 456 OFFCURVE",
"366 509 OFFCURVE",
"265 509 CURVE SMOOTH",
"185 509 OFFCURVE",
"73 491 OFFCURVE",
"73 491 CURVE",
"76 458 LINE",
"76 458 OFFCURVE",
"192 475 OFFCURVE",
"265 475 CURVE SMOOTH",
"338 475 OFFCURVE",
"376 440 OFFCURVE",
"376 353 CURVE SMOOTH",
"376 301 LINE",
"186 281 LINE",
"88 271 OFFCURVE",
"48 222 OFFCURVE",
"48 137 CURVE SMOOTH",
"48 40 OFFCURVE",
"97 -9 OFFCURVE",
"179 -9 CURVE SMOOTH"
);
},
{
closed = 1;
nodes = (
"119 23 OFFCURVE",
"85 64 OFFCURVE",
"85 137 CURVE SMOOTH",
"85 206 OFFCURVE",
"112 242 OFFCURVE",
"190 250 CURVE SMOOTH",
"376 269 LINE",
"376 64 LINE",
"376 64 OFFCURVE",
"274 23 OFFCURVE",
"180 23 CURVE SMOOTH"
);
}
);
width = 495;
},
{
layerId = "D02A7F20-5372-446E-84B7-8F4B885083B2";
paths = (
{
closed = 1;
nodes = (
"259 -12 OFFCURVE",
"331 23 OFFCURVE",
"331 23 CURVE",
"373 -5 OFFCURVE",
"407 -12 OFFCURVE",
"474 -12 CURVE",
"478 89 LINE",
"451 94 OFFCURVE",
"447 106 OFFCURVE",
"445 136 CURVE",
"445 344 LINE {\nname = hr00;\n}",
"445 461 OFFCURVE",
"393 512 OFFCURVE",
"263 512 CURVE SMOOTH",
"167 512 OFFCURVE",
"60 483 OFFCURVE",
"60 483 CURVE",
"64 390 LINE",
"64 390 OFFCURVE",
"186 398 OFFCURVE",
"252 398 CURVE SMOOTH",
"292 398 OFFCURVE",
"311 387 OFFCURVE",
"311 344 CURVE SMOOTH",
"311 313 LINE",
"204 305 LINE",
"94 297 OFFCURVE",
"29 265 OFFCURVE",
"29 152 CURVE SMOOTH",
"29 46 OFFCURVE",
"79 -12 OFFCURVE",
"184 -12 CURVE SMOOTH"
);
},
{
closed = 1;
nodes = (
"177 97 OFFCURVE",
"164 121 OFFCURVE",
"164 156 CURVE SMOOTH",
"164 192 OFFCURVE",
"185 209 OFFCURVE",
"220 212 CURVE SMOOTH",
"311 220 LINE",
"311 113 LINE",
"311 113 OFFCURVE",
"256 97 OFFCURVE",
"213 97 CURVE SMOOTH"
);
}
);
width = 511;
},
{
layerId = "2D07D9D6-DD7A-4EF1-82E8-8B18836F0AAC";
paths = (
{
closed = 1;
nodes = (
"277 -13 OFFCURVE",
"339 22 OFFCURVE",
"339 22 CURVE",
"339 22 OFFCURVE",
"362 -13 OFFCURVE",
"436 -13 CURVE SMOOTH",
"461 -13 OFFCURVE",
"539 -1 OFFCURVE",
"539 -1 CURVE",
"542 141 LINE",
"535 143 OFFCURVE",
"522 149 OFFCURVE",
"518 152 CURVE",
"518 342 LINE {\nname = hr00;\n}",
"518 487 OFFCURVE",
"418 518 OFFCURVE",
"273 518 CURVE SMOOTH",
"164 518 OFFCURVE",
"32 483 OFFCURVE",
"32 483 CURVE",
"37 331 LINE",
"37 331 OFFCURVE",
"162 344 OFFCURVE",
"251 344 CURVE SMOOTH",
"277 344 OFFCURVE",
"294 339 OFFCURVE",
"294 325 CURVE SMOOTH",
"294 316 LINE",
"222 313 LINE SMOOTH",
"92.017 307.584 OFFCURVE",
"10 288 OFFCURVE",
"10 157 CURVE SMOOTH",
"10 38 OFFCURVE",
"69 -13 OFFCURVE",
"195 -13 CURVE SMOOTH"
);
},
{
closed = 1;
nodes = (
"240 141 OFFCURVE",
"234 149 OFFCURVE",
"234 163 CURVE SMOOTH",
"234 179 OFFCURVE",
"244 190 OFFCURVE",
"260 191 CURVE",
"294 193 LINE",
"294 156 LINE",
"294 156 OFFCURVE",
"277 141 OFFCURVE",
"256 141 CURVE SMOOTH"
);
}
);
width = 557;
}
);
leftKerningGroup = a;
rightKerningGroup = a;
unicode = 0061;
},
{
glyphname = o;
lastChange = "2017-11-12 22:49:02 +0000";
layers = (
{
layerId = "F1BADE0A-D307-4A55-B1D9-DEBA981FCD10";
paths = (
{
closed = 1;
nodes = (
"428 -9 OFFCURVE",
"466 58 OFFCURVE",
"466 259 CURVE SMOOTH",
"466 444 OFFCURVE",
"411 509 OFFCURVE",
"263 509 CURVE SMOOTH {\nname = hr00;\n}",
"115 509 OFFCURVE",
"60 444 OFFCURVE",
"60 259 CURVE SMOOTH",
"60 58 OFFCURVE",
"98 -9 OFFCURVE",
"263 -9 CURVE SMOOTH"
);
},
{
closed = 1;
nodes = (
"115 23 OFFCURVE",
"97 87 OFFCURVE",
"97 259 CURVE SMOOTH",
"97 427 OFFCURVE",
"135 477 OFFCURVE",
"263 477 CURVE SMOOTH",
"391 477 OFFCURVE",
"429 427 OFFCURVE",
"429 259 CURVE SMOOTH",
"429 87 OFFCURVE",
"411 23 OFFCURVE",
"263 23 CURVE SMOOTH"
);
}
);
width = 526;
},
{
layerId = "D02A7F20-5372-446E-84B7-8F4B885083B2";
paths = (
{
closed = 1;
nodes = (
"440 -12 OFFCURVE",
"496 97 OFFCURVE",
"496 251 CURVE SMOOTH",
"496 405 OFFCURVE",
"440 512 OFFCURVE",
"266 512 CURVE SMOOTH {\nname = hr00;\n}",
"92 512 OFFCURVE",
"36 405 OFFCURVE",
"36 251 CURVE SMOOTH",
"36 97 OFFCURVE",
"92 -12 OFFCURVE",
"266 -12 CURVE SMOOTH"
);
},
{
closed = 1;
nodes = (
"192 102 OFFCURVE",
"172 154 OFFCURVE",
"172 251 CURVE SMOOTH",
"172 348 OFFCURVE",
"192 398 OFFCURVE",
"266 398 CURVE SMOOTH",
"340 398 OFFCURVE",
"360 348 OFFCURVE",
"360 251 CURVE SMOOTH",
"360 154 OFFCURVE",
"340 102 OFFCURVE",
"266 102 CURVE SMOOTH"
);
}
);
width = 532;
},
{
layerId = "2D07D9D6-DD7A-4EF1-82E8-8B18836F0AAC";
paths = (
{
closed = 1;
nodes = (
"455 -13 OFFCURVE",
"549 58 OFFCURVE",
"549 253 CURVE SMOOTH",
"549 445 OFFCURVE",
"455 518 OFFCURVE",
"282 518 CURVE SMOOTH {\nname = hr00;\n}",
"109 518 OFFCURVE",
"15 445 OFFCURVE",
"15 253 CURVE SMOOTH",
"15 58 OFFCURVE",
"109 -13 OFFCURVE",
"282 -13 CURVE SMOOTH"
);
},
{
closed = 1;
nodes = (
"251 168 OFFCURVE",
"241 188 OFFCURVE",
"241 253 CURVE SMOOTH",
"241 317 OFFCURVE",
"251 337 OFFCURVE",
"282 337 CURVE SMOOTH",
"313 337 OFFCURVE",
"323 318 OFFCURVE",
"323 253 CURVE SMOOTH",
"323 188 OFFCURVE",
"313 168 OFFCURVE",
"282 168 CURVE"
);
}
);
width = 564;
}
);
leftKerningGroup = o;
rightKerningGroup = o;
unicode = 006F;
},
{
glyphname = J;
lastChange = "2017-11-12 23:05:21 +0000";
layers = (
{
layerId = "F1BADE0A-D307-4A55-B1D9-DEBA981FCD10";
paths = (
{
closed = 1;
nodes = (
"138 -73 OFFCURVE",
"191 -69 OFFCURVE",
"191 81 CURVE SMOOTH",
"191 700 LINE {\nname = hr00;\n}",
"155 700 LINE",
"155 96 LINE",
"155 -37 OFFCURVE",
"135 -39 OFFCURVE",
"18 -39 CURVE",
"18 -73 LINE"
);
}
);
width = 280;
},
{
layerId = "D02A7F20-5372-446E-84B7-8F4B885083B2";
paths = (
{
closed = 1;
nodes = (
"169 -70 OFFCURVE",
"233 -35 OFFCURVE",
"233 115 CURVE",
"232 680 LINE {\nname = hr00;\n}",
"95 680 LINE",
"95 121 LINE",
"95 64 OFFCURVE",
"69 50 OFFCURVE",
"19 50 CURVE",
"19 -70 LINE"
);
}
);
width = 302;
},
{
layerId = "2D07D9D6-DD7A-4EF1-82E8-8B18836F0AAC";
paths = (
{
closed = 1;
nodes = (
"188 -13 OFFCURVE",
"294 -1 OFFCURVE",
"294 177 CURVE",
"294 670 LINE {\nname = hr00;\n}",
"62 670 LINE",
"62 322 LINE SMOOTH",
"62 181 OFFCURVE",
"58 178 OFFCURVE",
"15 178 CURVE",
"15 -13 LINE"
);
}
);
width = 321;
}
);
leftKerningGroup = J;
rightKerningGroup = J;
unicode = 004A;
},
{
glyphname = n;
lastChange = "2017-11-12 23:05:21 +0000";
layers = (
{
layerId = "F1BADE0A-D307-4A55-B1D9-DEBA981FCD10";
paths = (
{
closed = 1;
nodes = (
"114 0 LINE",
"114 427 LINE",
"114 427 OFFCURVE",
"200 477 OFFCURVE",
"289 477 CURVE SMOOTH",
"400 477 OFFCURVE",
"418 428 OFFCURVE",
"418 258 CURVE",
"418 0 LINE",
"453 0 LINE",
"453 260 LINE SMOOTH",
"453 454 OFFCURVE",
"425 509 OFFCURVE",
"289 509 CURVE SMOOTH",
"203 509 OFFCURVE",
"114 460 OFFCURVE",
"114 460 CURVE",
"114 500 LINE",
"79 500 LINE",
"79 0 LINE {\nname = hr00;\n}"
);
}
);
width = 527;
},
{
layerId = "D02A7F20-5372-446E-84B7-8F4B885083B2";
paths = (
{
closed = 1;
nodes = (
"196 0 LINE",
"196 374 LINE",
"196 374 OFFCURVE",
"240 392 OFFCURVE",
"287 392 CURVE SMOOTH",
"352 392 OFFCURVE",
"362 343 OFFCURVE",
"362 267 CURVE",
"362 0 LINE",
"496 0 LINE",
"496 271 LINE SMOOTH",
"496 424 OFFCURVE",
"460 512 OFFCURVE",
"320 512 CURVE SMOOTH",
"263 512 OFFCURVE",
"195 472 OFFCURVE",
"195 472 CURVE",
"195 500 LINE",
"62 500 LINE",
"62 0 LINE {\nname = hr00;\n}"
);
}
);
width = 553;
},
{
layerId = "2D07D9D6-DD7A-4EF1-82E8-8B18836F0AAC";
paths = (
{
closed = 1;
nodes = (
"252 0 LINE",
"252 318 LINE",
"252 318 OFFCURVE",
"276 325 OFFCURVE",
"295 325 CURVE SMOOTH",
"319 325 OFFCURVE",
"331 299 OFFCURVE",
"331 238 CURVE SMOOTH",
"331 0 LINE",
"555 0 LINE",
"555 253 LINE SMOOTH",
"555 451 OFFCURVE",
"504 518 OFFCURVE",
"361 518 CURVE SMOOTH",
"314 518 OFFCURVE",
"251 479 OFFCURVE",
"251 479 CURVE",
"251 505 LINE",
"28 505 LINE",
"28 0 LINE {\nname = hr00;\n}"
);
}
);
width = 578;
}
);
leftKerningGroup = n;
rightKerningGroup = n;
unicode = 006E;
},
{
glyphname = numbersign;
lastChange = "2017-11-12 23:05:21 +0000";
layers = (
{
layerId = "F1BADE0A-D307-4A55-B1D9-DEBA981FCD10";
paths = (
{
closed = 1;
nodes = (
"186 0 LINE",
"186 190 LINE",
"374 190 LINE",
"374 0 LINE",
"410 0 LINE",
"410 190 LINE",
"530 190 LINE {\nname = hr00;\n}",
"530 222 LINE",
"410 222 LINE",
"410 448 LINE",
"530 448 LINE",
"530 480 LINE",
"410 480 LINE",
"410 670 LINE",
"374 670 LINE",
"374 480 LINE",
"186 480 LINE",
"186 670 LINE",
"150 670 LINE",
"150 480 LINE",
"30 480 LINE",
"30 448 LINE",
"150 448 LINE",
"150 222 LINE",
"30 222 LINE",
"30 190 LINE",
"150 190 LINE",
"150 0 LINE"
);
},
{
closed = 1;
nodes = (
"186 448 LINE",
"374 448 LINE",
"374 222 LINE",
"186 222 LINE"
);
}
);
width = 560;
},
{
layerId = "D02A7F20-5372-446E-84B7-8F4B885083B2";
paths = (
{
closed = 1;
nodes = (
"228 0 LINE",
"228 149 LINE",
"332 149 LINE",
"332 0 LINE",
"448 0 LINE",
"448 149 LINE",
"544 149 LINE {\nname = hr00;\n}",
"544 261 LINE",
"448 261 LINE",
"448 387 LINE",
"544 387 LINE",
"544 499 LINE",
"448 499 LINE",
"448 660 LINE",
"332 660 LINE",
"332 499 LINE",
"228 499 LINE",
"228 660 LINE",
"112 660 LINE",
"112 499 LINE",
"16 499 LINE",
"16 387 LINE",
"112 387 LINE",
"112 261 LINE",
"16 261 LINE",
"16 149 LINE",
"112 149 LINE",
"112 0 LINE"
);
},
{
closed = 1;
nodes = (
"228 387 LINE",
"332 387 LINE",
"332 261 LINE",
"228 261 LINE"
);
}
);
width = 560;
},
{
layerId = "2D07D9D6-DD7A-4EF1-82E8-8B18836F0AAC";
paths = (
{
closed = 1;
nodes = (
"472 0 LINE",
"490 670 LINE",
"313 670 LINE",
"295 0 LINE"
);
},
{
closed = 1;
nodes = (
"532 113 LINE",
"536 290 LINE",
"12 290 LINE",
"5 113 LINE"
);
},
{
closed = 1;
nodes = (
"233 0 LINE",
"251 670 LINE",
"75 670 LINE",
"57 0 LINE"
);
},
{
closed = 1;
nodes = (
"537 370 LINE {\nname = hr00;\n}",
"544 547 LINE",
"19 547 LINE",
"12 370 LINE"
);
}
);
width = 550;
}
);
unicode = 0023;
userData = {
com.typemytype.robofont.guides = (
{
angle = 90;
isGlobal = 0;
magnetic = 5;
x = 7;
y = 0;
},
{
angle = 90;
isGlobal = 0;
magnetic = 5;
x = 555;
y = 0;
}
);
};
},
{
glyphname = at;
lastChange = "2017-11-12 23:05:21 +0000";
layers = (
{
layerId = "F1BADE0A-D307-4A55-B1D9-DEBA981FCD10";
paths = (
{
closed = 1;
nodes = (
"552 -199 OFFCURVE",
"650 -190 OFFCURVE",
"650 -190 CURVE",
"647 -157 LINE",
"647 -157 OFFCURVE",
"544 -167 OFFCURVE",
"504 -167 CURVE SMOOTH",
"227 -167 OFFCURVE",
"97 -71 OFFCURVE",
"97 261 CURVE SMOOTH",
"97 580 OFFCURVE",
"227 687 OFFCURVE",
"504 687 CURVE SMOOTH",
"786 687 OFFCURVE",
"888 570 OFFCURVE",
"888 306 CURVE SMOOTH",
"888 288 LINE",
"888 29 OFFCURVE",
"839 20 OFFCURVE",
"767 20 CURVE SMOOTH",
"677 20 OFFCURVE",
"672 48 OFFCURVE",
"672 300 CURVE SMOOTH",
"672 500 LINE",
"637 500 LINE",
"637 482 LINE",
"637 482 OFFCURVE",
"562 509 OFFCURVE",
"505 509 CURVE SMOOTH {\nname = hr01;\n}",
"341 509 OFFCURVE",
"295 415 OFFCURVE",
"295 243 CURVE SMOOTH",
"295 0 OFFCURVE",
"402 -9 OFFCURVE",
"464 -9 CURVE SMOOTH",
"545 -9 OFFCURVE",
"655 53 OFFCURVE",
"655 53 CURVE",
"655 53 OFFCURVE",
"666 -10 OFFCURVE",
"762 -10 CURVE SMOOTH",
"857 -10 OFFCURVE",
"925 -1 OFFCURVE",
"925 288 CURVE SMOOTH",
"925 305 LINE {\nname = hr00;\n}",
"925 589 OFFCURVE",
"809 719 OFFCURVE",
"504 719 CURVE SMOOTH",
"208 719 OFFCURVE",
"60 599 OFFCURVE",
"60 261 CURVE SMOOTH",
"60 -100 OFFCURVE",
"208 -199 OFFCURVE",
"504 -199 CURVE SMOOTH"
);
},
{
closed = 1;
nodes = (
"408 23 OFFCURVE",
"330 41 OFFCURVE",
"330 240 CURVE SMOOTH",
"330 392 OFFCURVE",
"363 477 OFFCURVE",
"505 477 CURVE SMOOTH",
"564 477 OFFCURVE",
"637 450 OFFCURVE",
"637 450 CURVE",
"637 300 LINE",
"637 197 OFFCURVE",
"648 83 OFFCURVE",
"648 83 CURVE",
"648 83 OFFCURVE",
"533 23 OFFCURVE",
"464 23 CURVE SMOOTH"
);
}
);
width = 979;
},
{
layerId = "D02A7F20-5372-446E-84B7-8F4B885083B2";
paths = (
{
closed = 1;
nodes = (
"561 -209 OFFCURVE",
"651 -199 OFFCURVE",
"651 -199 CURVE",
"646 -82 LINE",
"646 -82 OFFCURVE",
"553 -91 OFFCURVE",
"503 -91 CURVE SMOOTH",
"261 -91 OFFCURVE",
"172 19 OFFCURVE",
"172 261 CURVE SMOOTH",
"172 480 OFFCURVE",
"286 611 OFFCURVE",
"503 611 CURVE SMOOTH",
"715 611 OFFCURVE",
"810 520 OFFCURVE",
"810 306 CURVE SMOOTH",
"810 297 LINE",
"810 148 OFFCURVE",
"789 112 OFFCURVE",
"749 112 CURVE SMOOTH",
"704 112 OFFCURVE",
"699 127 OFFCURVE",
"699 309 CURVE SMOOTH",
"699 488 LINE",
"565 488 LINE",
"565 475 LINE",
"565 475 OFFCURVE",
"511 500 OFFCURVE",
"474 500 CURVE SMOOTH {\nname = hr01;\n}",
"330 500 OFFCURVE",
"283 413 OFFCURVE",
"283 251 CURVE SMOOTH",
"283 68 OFFCURVE",
"348 0 OFFCURVE",
"470 0 CURVE SMOOTH",
"538 0 OFFCURVE",
"618 56 OFFCURVE",
"618 56 CURVE",
"618 56 OFFCURVE",
"647 0 OFFCURVE",
"751 0 CURVE SMOOTH",
"876 0 OFFCURVE",
"944 88 OFFCURVE",
"944 297 CURVE SMOOTH",
"944 305 LINE {\nname = hr00;\n}",
"944 579 OFFCURVE",
"798 729 OFFCURVE",
"503 729 CURVE SMOOTH",
"227 729 OFFCURVE",
"38 579 OFFCURVE",
"38 261 CURVE SMOOTH",
"38 -100 OFFCURVE",
"207 -209 OFFCURVE",
"503 -209 CURVE SMOOTH"
);
},
{
closed = 1;
nodes = (
"438 118 OFFCURVE",
"419 162 OFFCURVE",
"419 251 CURVE SMOOTH",
"419 343 OFFCURVE",
"432 382 OFFCURVE",
"504 382 CURVE SMOOTH",
"523 382 OFFCURVE",
"565 372 OFFCURVE",
"565 372 CURVE",
"565 249 LINE",
"565 211 OFFCURVE",
"566 173 OFFCURVE",
"571 143 CURVE",
"548 132 OFFCURVE",
"511 118 OFFCURVE",
"481 118 CURVE SMOOTH"
);
}
);
width = 973;
},
{
layerId = "2D07D9D6-DD7A-4EF1-82E8-8B18836F0AAC";
paths = (
{
closed = 1;
nodes = (
"565 -219 OFFCURVE",
"663 -210 OFFCURVE",
"663 -210 CURVE",
"663 -210 OFFCURVE",
"660 -57 OFFCURVE",
"660 -57 CURVE",
"660 -57 OFFCURVE",
"557 -67 OFFCURVE",
"517 -67 CURVE",
"260 -67 OFFCURVE",
"180 -21 OFFCURVE",
"180 261 CURVE SMOOTH",
"180 530 OFFCURVE",
"300 577 OFFCURVE",
"527 577 CURVE SMOOTH",
"759 577 OFFCURVE",
"841 530 OFFCURVE",
"841 316 CURVE SMOOTH",
"841 298 LINE SMOOTH",
"841 189 OFFCURVE",
"836 168 OFFCURVE",
"806 168 CURVE SMOOTH",
"777 168 OFFCURVE",
"765 190 OFFCURVE",
"765 300 CURVE SMOOTH",
"765 492 LINE",
"541 492 LINE",
"541 467 LINE",
"541 467 OFFCURVE",
"493 505 OFFCURVE",
"423 505 CURVE SMOOTH",
"304 505 OFFCURVE",
"239 425 OFFCURVE",
"239 245 CURVE SMOOTH",
"239 75 OFFCURVE",
"299 0 OFFCURVE",
"448 0 CURVE SMOOTH",
"578 0 OFFCURVE",
"663 112 OFFCURVE",
"663 112 CURVE",
"636 229 LINE",
"636 229 OFFCURVE",
"536 178 OFFCURVE",
"500 178 CURVE SMOOTH",
"474 178 OFFCURVE",
"465 195 OFFCURVE",
"465 250 CURVE SMOOTH",
"465 312 OFFCURVE",
"477 324 OFFCURVE",
"513 324 CURVE SMOOTH",
"526 324 OFFCURVE",
"541 320 OFFCURVE",
"541 320 CURVE",
"541 279 LINE SMOOTH",
"541 82 OFFCURVE",
"595 0 OFFCURVE",
"775 0 CURVE SMOOTH",
"956 0 OFFCURVE",
"1008 70 OFFCURVE",
"1008 298 CURVE SMOOTH",
"1008 315 LINE {\nname = hr00;\n}",
"1008 619 OFFCURVE",
"852 729 OFFCURVE",
"527 729 CURVE SMOOTH",
"211 729 OFFCURVE",
"23 619 OFFCURVE",
"23 261 CURVE SMOOTH",
"23 -80 OFFCURVE",
"127 -219 OFFCURVE",
"517 -219 CURVE"
);
}
);
width = 1027;
}
);
unicode = 0040;
},
{
glyphname = grave;
lastChange = "2017-11-12 23:05:21 +0000";
layers = (
{
layerId = "F1BADE0A-D307-4A55-B1D9-DEBA981FCD10";
paths = (
{
closed = 1;
nodes = (
"218 636 LINE",
"26 732 LINE",
"10 701 LINE",
"203 609 LINE"
);
}
);
width = 215;
},
{
layerId = "D02A7F20-5372-446E-84B7-8F4B885083B2";
paths = (
{
closed = 1;
nodes = (
"275 651 LINE",
"23 753 LINE",
"-17 638 LINE",
"245 564 LINE"
);
}
);
width = 268;
},
{
layerId = "2D07D9D6-DD7A-4EF1-82E8-8B18836F0AAC";
paths = (
{
closed = 1;
nodes = (
"358 557 LINE",
"315 723 LINE {\nname = hr00;\n}",
"78 723 LINE",
"187 557 LINE"
);
}
);
width = 423;
}
);
unicode = 0060;
},
{
glyphname = acute;
lastChange = "2017-11-12 23:05:21 +0000";
layers = (
{
layerId = "F1BADE0A-D307-4A55-B1D9-DEBA981FCD10";
paths = (
{
closed = 1;
nodes = (
"248 701 LINE",
"232 732 LINE",
"40 636 LINE {\nname = hr00;\n}",
"55 609 LINE"
);
}
);
width = 268;
},
{
layerId = "D02A7F20-5372-446E-84B7-8F4B885083B2";
paths = (
{
closed = 1;
nodes = (
"297 638 LINE",
"257 753 LINE",
"5 651 LINE {\nname = hr00;\n}",
"35 564 LINE"
);
}
);
width = 268;
},
{
layerId = "2D07D9D6-DD7A-4EF1-82E8-8B18836F0AAC";
paths = (
{
closed = 1;
nodes = (
"347 557 LINE",
"456 723 LINE",
"219 723 LINE",
"176 557 LINE"
);
}
);
width = 833;
}
);
unicode = 00B4;
},
{
glyphname = dieresis;
lastChange = "2017-11-12 23:05:21 +0000";
layers = (
{
layerId = "F1BADE0A-D307-4A55-B1D9-DEBA981FCD10";
paths = (
{
closed = 1;
nodes = (
"225 638 LINE",
"225 700 LINE",
"190 700 LINE",
"190 638 LINE"
);
},
{
closed = 1;
nodes = (
"35 638 LINE",
"35 700 LINE",
"0 700 LINE",
"0 638 LINE {\nname = hr00;\n}"
);
}
);
width = 215;
},
{
layerId = "D02A7F20-5372-446E-84B7-8F4B885083B2";
paths = (
{
closed = 1;
nodes = (
"314 596 LINE",
"314 728 LINE",
"186 728 LINE",
"186 596 LINE"
);
},
{
closed = 1;
nodes = (
"98 596 LINE",
"98 728 LINE",
"-30 728 LINE",
"-30 596 LINE {\nname = hr00;\n}"
);
}
);
width = 268;
},
{
layerId = "2D07D9D6-DD7A-4EF1-82E8-8B18836F0AAC";
paths = (
{
closed = 1;
nodes = (
"398 559 LINE",
"398 713 LINE",
"234 713 LINE",
"234 559 LINE"
);
},
{
closed = 1;
nodes = (
"188 559 LINE",
"188 713 LINE",
"24 713 LINE",
"24 559 LINE"
);
}
);
width = 418;
}
);
unicode = 00A8;
},
{
glyphname = circumflex;
lastChange = "2017-11-12 23:05:21 +0000";
layers = (
{
layerId = "F1BADE0A-D307-4A55-B1D9-DEBA981FCD10";
paths = (
{
closed = 1;
nodes = (
"28 600 LINE",
"121 700 LINE",
"213 600 LINE",
"256 600 LINE",
"134 732 LINE",
"106 732 LINE",
"-15 600 LINE {\nname = hr00;\n}"
);
}
);
width = 215;
},
{
layerId = "D02A7F20-5372-446E-84B7-8F4B885083B2";
paths = (
{
closed = 1;
nodes = (
"99 580 LINE",
"145 647 LINE",
"191 580 LINE",
"314 580 LINE",
"186 731 LINE",
"102 731 LINE",
"-24 580 LINE {\nname = hr00;\n}"
);
}
);
width = 268;
},
{
layerId = "2D07D9D6-DD7A-4EF1-82E8-8B18836F0AAC";
paths = (
{
closed = 1;
nodes = (
"401 557 LINE",
"413 629 LINE",
"428 557 LINE",
"590 557 LINE",
"488 723 LINE",
"330 723 LINE",
"239 557 LINE"
);
}
);
width = 833;
}
);
unicode = 02C6;
},
{
glyphname = tilde;
lastChange = "2017-11-12 23:05:21 +0000";
layers = (
{
layerId = "F1BADE0A-D307-4A55-B1D9-DEBA981FCD10";
paths = (
{
closed = 1;
nodes = (
"223 630 OFFCURVE",
"265 673 OFFCURVE",
"265 673 CURVE",
"256 703 LINE {\nname = hr00;\n}",
"256 703 OFFCURVE",
"212 662 OFFCURVE",
"194 662 CURVE SMOOTH",
"162 662 OFFCURVE",
"87 715 OFFCURVE",
"47 715 CURVE SMOOTH",
"14 715 OFFCURVE",
"-35 668 OFFCURVE",
"-35 668 CURVE",
"-25 639 LINE",
"-25 639 OFFCURVE",
"24 684 OFFCURVE",
"45 684 CURVE SMOOTH",
"77 684 OFFCURVE",
"152 630 OFFCURVE",
"192 630 CURVE SMOOTH"
);
}
);
width = 215;
},
{
layerId = "D02A7F20-5372-446E-84B7-8F4B885083B2";
paths = (
{
closed = 1;
nodes = (
"265 585 OFFCURVE",
"318 647 OFFCURVE",
"318 647 CURVE",
"289 723 LINE {\nname = hr00;\n}",
"289 723 OFFCURVE",
"235 689 OFFCURVE",
"209 689 CURVE SMOOTH",
"181 689 OFFCURVE",
"123 725 OFFCURVE",
"82 725 CURVE SMOOTH",
"30 725 OFFCURVE",
"-22 665 OFFCURVE",
"-22 665 CURVE",
"7 590 LINE",
"7 590 OFFCURVE",
"56 621 OFFCURVE",
"84 621 CURVE SMOOTH",
"117 621 OFFCURVE",
"171 585 OFFCURVE",
"213 585 CURVE SMOOTH"
);
}
);
width = 268;
},
{
layerId = "2D07D9D6-DD7A-4EF1-82E8-8B18836F0AAC";
paths = (
{
closed = 1;
nodes = (
"349 547 OFFCURVE",
"402 610 OFFCURVE",
"402 610 CURVE",
"373 727 LINE",
"373 727 OFFCURVE",
"317 688 OFFCURVE",
"291 688 CURVE SMOOTH",
"263 688 OFFCURVE",
"205 731 OFFCURVE",
"144 731 CURVE SMOOTH",
"91 731 OFFCURVE",
"37 667 OFFCURVE",
"37 667 CURVE",
"66 551 LINE",
"66 551 OFFCURVE",
"118 591 OFFCURVE",
"146 591 CURVE SMOOTH",
"179 591 OFFCURVE",
"243 547 OFFCURVE",
"295 547 CURVE SMOOTH"
);
}
);
width = 481;
}
);
unicode = 02DC;
},
{
glyphname = ring;
lastChange = "2017-11-12 23:05:21 +0000";
layers = (
{
layerId = "F1BADE0A-D307-4A55-B1D9-DEBA981FCD10";
paths = (
{
closed = 1;
nodes = (
"165 555 OFFCURVE",
"206 596 OFFCURVE",
"206 650 CURVE SMOOTH",
"206 703 OFFCURVE",
"165 745 OFFCURVE",
"112 745 CURVE SMOOTH",
"58 745 OFFCURVE",
"16 703 OFFCURVE",
"16 650 CURVE SMOOTH {\nname = hr00;\n}",
"16 596 OFFCURVE",
"58 555 OFFCURVE",
"112 555 CURVE SMOOTH"
);
},
{
closed = 1;
nodes = (
"77 586 OFFCURVE",
"50 615 OFFCURVE",
"50 650 CURVE SMOOTH",
"50 684 OFFCURVE",
"77 713 OFFCURVE",
"112 713 CURVE SMOOTH",
"146 713 OFFCURVE",
"173 684 OFFCURVE",
"173 650 CURVE SMOOTH",
"173 615 OFFCURVE",
"146 586 OFFCURVE",
"112 586 CURVE SMOOTH"
);
}
);
width = 215;
},
{
layerId = "D02A7F20-5372-446E-84B7-8F4B885083B2";
paths = (
{
closed = 1;
nodes = (
"202 521 OFFCURVE",
"254 571 OFFCURVE",
"254 638 CURVE SMOOTH",
"254 703 OFFCURVE",
"202 755 OFFCURVE",
"137 755 CURVE SMOOTH",
"70 755 OFFCURVE",
"20 703 OFFCURVE",
"20 638 CURVE SMOOTH {\nname = hr00;\n}",
"20 571 OFFCURVE",
"70 521 OFFCURVE",
"137 521 CURVE SMOOTH"
);
},
{
closed = 1;
nodes = (
"111 592 OFFCURVE",
"92 611 OFFCURVE",
"92 638 CURVE SMOOTH",
"92 664 OFFCURVE",
"111 683 OFFCURVE",
"138 683 CURVE SMOOTH",
"164 683 OFFCURVE",
"183 664 OFFCURVE",
"183 638 CURVE SMOOTH",
"183 611 OFFCURVE",
"164 592 OFFCURVE",
"138 592 CURVE SMOOTH"
);
}
);
width = 268;
},
{
layerId = "2D07D9D6-DD7A-4EF1-82E8-8B18836F0AAC";
paths = (
{
closed = 1;
nodes = (
"351 543 OFFCURVE",
"402 578 OFFCURVE",
"402 642 CURVE SMOOTH",
"402 711 OFFCURVE",
"346 741 OFFCURVE",
"268 741 CURVE SMOOTH",
"189 741 OFFCURVE",
"134 711 OFFCURVE",
"134 642 CURVE SMOOTH",
"134 573 OFFCURVE",
"189 543 OFFCURVE",
"268 543 CURVE SMOOTH"
);
},
{
closed = 1;
nodes = (
"253 620 OFFCURVE",
"238 627 OFFCURVE",
"238 642 CURVE SMOOTH",
"238 656 OFFCURVE",
"253 663 OFFCURVE",
"269 663 CURVE SMOOTH",
"285 663 OFFCURVE",
"299 656 OFFCURVE",
"299 642 CURVE SMOOTH",
"299 627 OFFCURVE",
"285 620 OFFCURVE",
"269 620 CURVE SMOOTH"
);
}
);
width = 496;
}
);
unicode = 02DA;
},
{
glyphname = caron;
lastChange = "2017-11-12 23:05:21 +0000";
layers = (
{
layerId = "F1BADE0A-D307-4A55-B1D9-DEBA981FCD10";
paths = (
{
closed = 1;
nodes = (
"134 600 LINE",
"256 732 LINE",
"214 732 LINE",
"121 633 LINE",
"27 732 LINE",
"-15 732 LINE {\nname = hr00;\n}",
"106 600 LINE"
);
}
);
width = 215;
},
{
layerId = "D02A7F20-5372-446E-84B7-8F4B885083B2";
paths = (
{
closed = 1;
nodes = (
"190 580 LINE",
"318 731 LINE",
"195 731 LINE",
"149 664 LINE",
"103 731 LINE",
"-20 731 LINE {\nname = hr00;\n}",
"106 580 LINE"
);
}
);
width = 268;
},
{
layerId = "2D07D9D6-DD7A-4EF1-82E8-8B18836F0AAC";
paths = (
{
closed = 1;
nodes = (
"484 557 LINE",
"586 723 LINE",
"424 723 LINE",
"411 651 LINE",
"397 723 LINE",
"235 723 LINE {\nname = hr00;\n}",
"326 557 LINE"
);
}
);
width = 833;
}
);
unicode = 02C7;
},
{
glyphname = degree;
lastChange = "2017-11-12 23:05:21 +0000";
layers = (
{
layerId = "F1BADE0A-D307-4A55-B1D9-DEBA981FCD10";
paths = (
{
closed = 1;
nodes = (
"361 438 OFFCURVE",
"416 492 OFFCURVE",
"416 573 CURVE SMOOTH",
"416 654 OFFCURVE",
"361 709 OFFCURVE",
"280 709 CURVE SMOOTH",
"199 709 OFFCURVE",
"144 654 OFFCURVE",
"144 573 CURVE SMOOTH {\nname = hr00;\n}",
"144 492 OFFCURVE",
"199 438 OFFCURVE",
"280 438 CURVE SMOOTH"
);
},
{
closed = 1;
nodes = (
"218 470 OFFCURVE",
"178 511 OFFCURVE",
"178 573 CURVE SMOOTH",
"178 635 OFFCURVE",
"218 677 OFFCURVE",
"280 677 CURVE SMOOTH",
"342 677 OFFCURVE",
"384 635 OFFCURVE",
"384 573 CURVE SMOOTH",
"384 511 OFFCURVE",
"342 470 OFFCURVE",
"280 470 CURVE SMOOTH"
);
}
);
width = 560;
},
{
layerId = "D02A7F20-5372-446E-84B7-8F4B885083B2";
paths = (
{
closed = 1;
nodes = (
"369 393 OFFCURVE",
"430 453 OFFCURVE",
"430 542 CURVE SMOOTH",
"430 631 OFFCURVE",
"369 692 OFFCURVE",
"280 692 CURVE SMOOTH",
"191 692 OFFCURVE",
"130 631 OFFCURVE",
"130 542 CURVE SMOOTH {\nname = hr00;\n}",
"130 453 OFFCURVE",
"191 393 OFFCURVE",
"280 393 CURVE SMOOTH"
);
},
{
closed = 1;
nodes = (
"235 466 OFFCURVE",
"205 497 OFFCURVE",
"205 542 CURVE SMOOTH",
"205 587 OFFCURVE",
"235 619 OFFCURVE",
"280 619 CURVE SMOOTH",
"325 619 OFFCURVE",
"357 587 OFFCURVE",
"357 542 CURVE SMOOTH",
"357 497 OFFCURVE",
"325 466 OFFCURVE",
"280 466 CURVE SMOOTH"
);
}
);
width = 560;
},
{
layerId = "2D07D9D6-DD7A-4EF1-82E8-8B18836F0AAC";
paths = (
{
closed = 1;
nodes = (
"364 391 OFFCURVE",
"425 451 OFFCURVE",
"425 540 CURVE SMOOTH",
"425 629 OFFCURVE",
"364 690 OFFCURVE",
"275 690 CURVE SMOOTH",
"186 690 OFFCURVE",
"125 629 OFFCURVE",
"125 540 CURVE SMOOTH",
"125 451 OFFCURVE",
"186 391 OFFCURVE",
"275 391 CURVE SMOOTH"
);
},
{
closed = 1;
nodes = (
"254 504 OFFCURVE",
"240 519 OFFCURVE",
"240 540 CURVE SMOOTH",
"240 562 OFFCURVE",
"254 577 OFFCURVE",
"275 577 CURVE SMOOTH",
"297 577 OFFCURVE",
"312 562 OFFCURVE",
"312 540 CURVE SMOOTH",
"312 519 OFFCURVE",
"297 504 OFFCURVE",
"275 504 CURVE SMOOTH"
);
}
);
width = 550;
}
);
unicode = 00B0;
},
{
glyphname = section;
lastChange = "2017-11-12 23:05:21 +0000";
layers = (
{
layerId = "F1BADE0A-D307-4A55-B1D9-DEBA981FCD10";
paths = (
{
closed = 1;
nodes = (
"356 -123 OFFCURVE",
"418 -69 OFFCURVE",
"418 35 CURVE SMOOTH",
"418 80 OFFCURVE",
"406 109 OFFCURVE",
"382 128 CURVE",
"382 128 OFFCURVE",
"421 190 OFFCURVE",
"421 255 CURVE SMOOTH",
"421 354 OFFCURVE",
"358 379 OFFCURVE",
"255 395 CURVE SMOOTH",
"156 410 OFFCURVE",
"107 425 OFFCURVE",
"107 518 CURVE SMOOTH",
"107 593 OFFCURVE",
"158 628 OFFCURVE",
"247 628 CURVE SMOOTH",
"295 628 OFFCURVE",
"401 615 OFFCURVE",
"401 615 CURVE",
"403 647 LINE {\nname = hr00;\n}",
"403 647 OFFCURVE",
"310 660 OFFCURVE",
"247 660 CURVE SMOOTH",
"138 660 OFFCURVE",
"72 613 OFFCURVE",
"72 517 CURVE SMOOTH",
"72 458 OFFCURVE",
"87 425 OFFCURVE",
"116 403 CURVE",
"116 403 OFFCURVE",
"62 351 OFFCURVE",
"62 283 CURVE SMOOTH",
"62 185 OFFCURVE",
"125 155 OFFCURVE",
"238 139 CURVE SMOOTH",
"332 126 OFFCURVE",
"383 117 OFFCURVE",
"383 34 CURVE SMOOTH",
"383 -51 OFFCURVE",
"333 -92 OFFCURVE",
"245 -92 CURVE SMOOTH",
"190 -92 OFFCURVE",
"80 -78 OFFCURVE",
"80 -78 CURVE",
"77 -110 LINE",
"77 -110 OFFCURVE",
"185 -123 OFFCURVE",
"245 -123 CURVE SMOOTH"
);
},
{
closed = 1;
nodes = (
"329 157 OFFCURVE",
"291 164 OFFCURVE",
"245 171 CURVE SMOOTH",
"146 185 OFFCURVE",
"97 210 OFFCURVE",
"97 285 CURVE SMOOTH",
"97 336 OFFCURVE",
"141 389 OFFCURVE",
"141 389 CURVE",
"169 376 OFFCURVE",
"205 370 OFFCURVE",
"248 363 CURVE SMOOTH",
"332 350 OFFCURVE",
"386 335 OFFCURVE",
"386 252 CURVE SMOOTH",
"386 196 OFFCURVE",
"356 144 OFFCURVE",
"356 144 CURVE"
);
}
);
width = 487;
},
{
layerId = "D02A7F20-5372-446E-84B7-8F4B885083B2";
paths = (
{
closed = 1;
nodes = (
"397 -190 OFFCURVE",
"463 -137 OFFCURVE",
"463 -7 CURVE SMOOTH",
"463 59 OFFCURVE",
"449 80 OFFCURVE",
"425 102 CURVE",
"453 142 OFFCURVE",
"475 196 OFFCURVE",
"475 241 CURVE SMOOTH",
"475 339 OFFCURVE",
"438 364 OFFCURVE",
"323 392 CURVE SMOOTH",
"225 416 OFFCURVE",
"187 426 OFFCURVE",
"187 457 CURVE SMOOTH",
"187 505 OFFCURVE",
"204 522 OFFCURVE",
"283 522 CURVE SMOOTH",
"331 522 OFFCURVE",
"444 506 OFFCURVE",
"444 506 CURVE",
"450 614 LINE {\nname = hr00;\n}",
"450 614 OFFCURVE",
"345 638 OFFCURVE",
"274 638 CURVE SMOOTH",
"134 638 OFFCURVE",
"57 581 OFFCURVE",
"57 455 CURVE SMOOTH",
"57 396 OFFCURVE",
"72 368 OFFCURVE",
"101 347 CURVE",
"70 322 OFFCURVE",
"37 261 OFFCURVE",
"37 213 CURVE SMOOTH",
"37 115 OFFCURVE",
"82 85 OFFCURVE",
"193 57 CURVE SMOOTH",
"303 29 OFFCURVE",
"335 22 OFFCURVE",
"335 -17 CURVE SMOOTH",
"335 -58 OFFCURVE",
"304 -74 OFFCURVE",
"236 -74 CURVE SMOOTH",
"181 -74 OFFCURVE",
"73 -59 OFFCURVE",
"73 -59 CURVE",
"60 -167 LINE",
"60 -167 OFFCURVE",
"176 -190 OFFCURVE",
"246 -190 CURVE SMOOTH"
);
},
{
closed = 1;
nodes = (
"298 157 OFFCURVE",
"268 167 OFFCURVE",
"232 177 CURVE SMOOTH",
"184 190 OFFCURVE",
"172 198 OFFCURVE",
"172 238 CURVE SMOOTH",
"172 259 OFFCURVE",
"181 290 OFFCURVE",
"189 302 CURVE",
"208 296 OFFCURVE",
"235 291 OFFCURVE",
"258 285 CURVE SMOOTH",
"324 268 OFFCURVE",
"339 255 OFFCURVE",
"339 222 CURVE SMOOTH",
"339 198 OFFCURVE",
"331 162 OFFCURVE",
"321 149 CURVE"
);
}
);
width = 517;
},
{
layerId = "2D07D9D6-DD7A-4EF1-82E8-8B18836F0AAC";
paths = (
{
closed = 1;
nodes = (
"438 -195 OFFCURVE",
"563 -158 OFFCURVE",
"563 11 CURVE SMOOTH",
"563 74 OFFCURVE",
"553 93 OFFCURVE",
"528 121 CURVE",
"554 146 OFFCURVE",
"573 189 OFFCURVE",
"573 256 CURVE SMOOTH",
"573 359 OFFCURVE",
"517 388 OFFCURVE",
"358 420 CURVE SMOOTH",
"267 438 OFFCURVE",
"256 445 OFFCURVE",
"256 464 CURVE SMOOTH",
"256 482 OFFCURVE",
"268 489 OFFCURVE",
"328 489 CURVE SMOOTH",
"376 489 OFFCURVE",
"546 469 OFFCURVE",
"546 469 CURVE",
"552 629 LINE {\nname = hr00;\n}",
"552 629 OFFCURVE",
"390 670 OFFCURVE",
"281 670 CURVE SMOOTH",
"139 670 OFFCURVE",
"32 626 OFFCURVE",
"32 449 CURVE SMOOTH",
"32 409 OFFCURVE",
"32 379 OFFCURVE",
"65 340 CURVE",
"40 310 OFFCURVE",
"22 275 OFFCURVE",
"22 225 CURVE SMOOTH",
"22 119 OFFCURVE",
"67 86 OFFCURVE",
"218 56 CURVE SMOOTH",
"320 36 OFFCURVE",
"340 30 OFFCURVE",
"340 13 CURVE SMOOTH",
"340 -11 OFFCURVE",
"314 -15 OFFCURVE",
"286 -15 CURVE SMOOTH",
"233 -15 OFFCURVE",
"61 13 OFFCURVE",
"54 16 CURVE",
"37 -144 LINE",
"37 -144 OFFCURVE",
"181 -195 OFFCURVE",
"316 -195 CURVE SMOOTH"
);
},
{
closed = 1;
nodes = (
"339 199 OFFCURVE",
"313 205 OFFCURVE",
"287 213 CURVE SMOOTH",
"249 225 OFFCURVE",
"242 228 OFFCURVE",
"242 243 CURVE SMOOTH",
"242 256 OFFCURVE",
"247 270 OFFCURVE",
"253 280 CURVE",
"265 275 OFFCURVE",
"283 271 OFFCURVE",
"301 267 CURVE SMOOTH",
"337 260 OFFCURVE",
"362 252 OFFCURVE",
"362 232 CURVE SMOOTH",
"362 218 OFFCURVE",
"360 207 OFFCURVE",
"353 192 CURVE"
);
}
);
width = 595;
}
);
unicode = 00A7;
},
{
glyphname = copyright;
lastChange = "2017-11-12 23:05:21 +0000";
layers = (
{
layerId = "F1BADE0A-D307-4A55-B1D9-DEBA981FCD10";
paths = (
{
closed = 1;
nodes = (
"470 169 OFFCURVE",
"579 287 OFFCURVE",
"579 434 CURVE SMOOTH",
"579 581 OFFCURVE",
"470 700 OFFCURVE",
"323 700 CURVE SMOOTH",
"176 700 OFFCURVE",
"68 581 OFFCURVE",
"68 434 CURVE SMOOTH {\nname = hr00;\n}",
"68 287 OFFCURVE",
"176 169 OFFCURVE",
"323 169 CURVE SMOOTH"
);
},
{
closed = 1;
nodes = (
"354 281 OFFCURVE",
"397 289 OFFCURVE",
"397 289 CURVE",
"396 321 LINE",
"396 321 OFFCURVE",
"351 313 OFFCURVE",
"323 313 CURVE SMOOTH",
"259 313 OFFCURVE",
"246 357 OFFCURVE",
"246 433 CURVE SMOOTH",
"246 510 OFFCURVE",
"253 555 OFFCURVE",
"323 555 CURVE SMOOTH",
"355 555 OFFCURVE",
"396 548 OFFCURVE",
"396 548 CURVE",
"397 580 LINE",
"397 580 OFFCURVE",
"361 587 OFFCURVE",
"323 587 CURVE SMOOTH",
"233 587 OFFCURVE",
"214 524 OFFCURVE",
"214 433 CURVE SMOOTH",
"214 342 OFFCURVE",
"235 281 OFFCURVE",
"323 281 CURVE SMOOTH"
);
},
{
closed = 1;
nodes = (
"194 201 OFFCURVE",
"100 305 OFFCURVE",
"100 434 CURVE SMOOTH",
"100 563 OFFCURVE",
"194 668 OFFCURVE",
"323 668 CURVE SMOOTH",
"452 668 OFFCURVE",
"547 563 OFFCURVE",
"547 434 CURVE SMOOTH",
"547 305 OFFCURVE",
"452 201 OFFCURVE",
"323 201 CURVE SMOOTH"
);
}
);
width = 647;
},
{
layerId = "D02A7F20-5372-446E-84B7-8F4B885083B2";
paths = (
{
closed = 1;
nodes = (
"490 150 OFFCURVE",
"597 273 OFFCURVE",
"597 434 CURVE SMOOTH",
"597 588 OFFCURVE",
"490 718 OFFCURVE",
"322 718 CURVE SMOOTH",
"162 718 OFFCURVE",
"46 598 OFFCURVE",
"46 434 CURVE SMOOTH {\nname = hr00;\n}",
"46 274 OFFCURVE",
"163 150 OFFCURVE",
"320 150 CURVE SMOOTH"
);
},
{
closed = 1;
nodes = (
"386 269 OFFCURVE",
"414 287 OFFCURVE",
"414 287 CURVE",
"407 369 LINE",
"407 369 OFFCURVE",
"372 364 OFFCURVE",
"340 364 CURVE SMOOTH",
"315 364 OFFCURVE",
"305 386 OFFCURVE",
"305 439 CURVE SMOOTH",
"305 488 OFFCURVE",
"314 503 OFFCURVE",
"340 503 CURVE SMOOTH",
"372 503 OFFCURVE",
"407 497 OFFCURVE",
"407 497 CURVE",
"414 583 LINE",
"414 583 OFFCURVE",
"382 598 OFFCURVE",
"334 598 CURVE SMOOTH",
"242 598 OFFCURVE",
"202 561 OFFCURVE",
"202 439 CURVE SMOOTH",
"202 303 OFFCURVE",
"242 269 OFFCURVE",
"330 269 CURVE SMOOTH"
);
},
{
closed = 1;
nodes = (
"198 210 OFFCURVE",
"108 312 OFFCURVE",
"108 434 CURVE SMOOTH",
"108 556 OFFCURVE",
"199 658 OFFCURVE",
"321 658 CURVE SMOOTH",
"443 658 OFFCURVE",
"535 556 OFFCURVE",
"535 434 CURVE SMOOTH",
"535 311 OFFCURVE",
"445 210 OFFCURVE",
"320 210 CURVE SMOOTH"
);
}
);
width = 643;
},
{
layerId = "2D07D9D6-DD7A-4EF1-82E8-8B18836F0AAC";
paths = (
{
closed = 1;
nodes = (
"361 150 OFFCURVE",
"463 193 OFFCURVE",
"535 270 OFFCURVE",
"574 374 OFFCURVE",
"574 434 QCURVE",
"574 492 OFFCURVE",
"535 595 OFFCURVE",
"464 673 OFFCURVE",
"362 718 OFFCURVE",
"299 718 QCURVE",
"239 718 OFFCURVE",
"138 675 OFFCURVE",
"64 600 OFFCURVE",
"23 495 OFFCURVE",
"23 434 QCURVE",
"23 374 OFFCURVE",
"64 270 OFFCURVE",
"138 194 OFFCURVE",
"238 150 OFFCURVE",
"297 150 QCURVE"
);
},
{
closed = 1;
nodes = (
"328 269 OFFCURVE",
"359 274 OFFCURVE",
"370 278 QCURVE",
"382 282 OFFCURVE",
"391 287 QCURVE",
"384 369 LINE",
"373 367 OFFCURVE",
"362 366 QCURVE",
"352 365 OFFCURVE",
"329 364 OFFCURVE",
"317 364 QCURVE",
"298 364 OFFCURVE",
"282 399 OFFCURVE",
"282 439 QCURVE",
"282 476 OFFCURVE",
"297 503 OFFCURVE",
"317 503 QCURVE",
"329 503 OFFCURVE",
"352 501 OFFCURVE",
"362 500 QCURVE",
"373 498 OFFCURVE",
"384 497 QCURVE",
"391 583 LINE",
"381 586 OFFCURVE",
"369 590 QCURVE",
"358 593 OFFCURVE",
"329 598 OFFCURVE",
"311 598 QCURVE",
"276 598 OFFCURVE",
"227 583 OFFCURVE",
"194 546 OFFCURVE",
"179 485 OFFCURVE",
"179 439 QCURVE",
"179 388 OFFCURVE",
"194 322 OFFCURVE",
"226 284 OFFCURVE",
"274 269 OFFCURVE",
"307 269 QCURVE"
);
},
{
closed = 1;
nodes = (
"251 210 OFFCURVE",
"174 246 OFFCURVE",
"117 307 OFFCURVE",
"85 388 OFFCURVE",
"85 434 QCURVE",
"85 480 OFFCURVE",
"117 561 OFFCURVE",
"174 622 OFFCURVE",
"252 658 OFFCURVE",
"298 658 QCURVE",
"344 658 OFFCURVE",
"422 622 OFFCURVE",
"479 561 OFFCURVE",
"512 480 OFFCURVE",
"512 434 QCURVE",
"512 388 OFFCURVE",
"480 306 OFFCURVE",
"423 245 OFFCURVE",
"344 210 OFFCURVE",
"297 210 QCURVE"
);
}
);
width = 597;
}
);
unicode = 00A9;
},
{
glyphname = trademark;
lastChange = "2017-11-12 23:05:21 +0000";
layers = (
{
layerId = "F1BADE0A-D307-4A55-B1D9-DEBA981FCD10";
paths = (
{
closed = 1;
nodes = (
"366 331 LINE",
"366 589 LINE",
"450 342 LINE",
"485 342 LINE",
"573 589 LINE",
"573 331 LINE",
"605 331 LINE",
"605 621 LINE",
"555 621 LINE",
"468 379 LINE",
"384 621 LINE",
"334 621 LINE",
"334 331 LINE {\nname = hr01;\n}"
);
},
{
closed = 1;
nodes = (
"216 332 LINE",
"216 590 LINE",
"299 590 LINE",
"299 621 LINE",
"99 621 LINE",
"99 590 LINE {\nname = hr00;\n}",
"183 590 LINE",
"183 332 LINE"
);
}
);
width = 689;
},
{
layerId = "D02A7F20-5372-446E-84B7-8F4B885083B2";
paths = (
{
closed = 1;
nodes = (
"387 331 LINE",
"387 505 LINE",
"425 352 LINE",
"480 352 LINE",
"514 505 LINE",
"514 331 LINE",
"596 331 LINE",
"596 644 LINE",
"494 644 LINE",
"449 486 LINE",
"408 644 LINE",
"305 644 LINE",
"305 331 LINE {\nname = hr01;\n}"
);
},
{
closed = 1;
nodes = (
"239 332 LINE",
"239 565 LINE",
"280 565 LINE",
"280 644 LINE",
"80 644 LINE",
"80 565 LINE",
"151 565 LINE",
"151 332 LINE"
);
}
);
width = 660;
},
{
layerId = "2D07D9D6-DD7A-4EF1-82E8-8B18836F0AAC";
paths = (
{
closed = 1;
nodes = (
"348 331 LINE",
"348 505 LINE",
"386 352 LINE",
"441 352 LINE",
"475 505 LINE",
"475 331 LINE",
"557 331 LINE",
"557 644 LINE",
"455 644 LINE",
"410 486 LINE",
"369 644 LINE",
"266 644 LINE",
"266 331 LINE"
);
},
{
closed = 1;
nodes = (
"200 332 LINE",
"200 565 LINE",
"241 565 LINE",
"241 644 LINE",
"41 644 LINE",
"41 565 LINE",
"112 565 LINE",
"112 332 LINE"
);
}
);
width = 592;
}
);
unicode = 2122;
},
{
glyphname = registered;
lastChange = "2017-11-12 23:05:21 +0000";
layers = (
{
layerId = "F1BADE0A-D307-4A55-B1D9-DEBA981FCD10";
paths = (
{
closed = 1;
nodes = (
"470 169 OFFCURVE",
"579 287 OFFCURVE",
"579 434 CURVE SMOOTH",
"579 581 OFFCURVE",
"470 700 OFFCURVE",
"323 700 CURVE SMOOTH",
"176 700 OFFCURVE",
"68 581 OFFCURVE",
"68 434 CURVE SMOOTH {\nname = hr00;\n}",
"68 287 OFFCURVE",
"176 169 OFFCURVE",
"323 169 CURVE SMOOTH"
);
},
{
closed = 1;
nodes = (
"194 201 OFFCURVE",
"100 305 OFFCURVE",
"100 434 CURVE SMOOTH",
"100 563 OFFCURVE",
"194 668 OFFCURVE",
"323 668 CURVE SMOOTH",
"452 668 OFFCURVE",
"547 563 OFFCURVE",
"547 434 CURVE SMOOTH",
"547 305 OFFCURVE",
"452 201 OFFCURVE",
"323 201 CURVE SMOOTH"
);
},
{
closed = 1;
nodes = (
"253 286 LINE",
"253 402 LINE",
"332 402 LINE",
"398 286 LINE",
"433 286 LINE",
"368 405 LINE",
"412 416 OFFCURVE",
"427 445 OFFCURVE",
"427 492 CURVE SMOOTH",
"427 560 OFFCURVE",
"390 581 OFFCURVE",
"314 581 CURVE SMOOTH",
"221 581 LINE",
"221 286 LINE"
);
},
{
closed = 1;
nodes = (
"253 550 LINE",
"315 550 LINE",
"369 550 OFFCURVE",
"395 537 OFFCURVE",
"395 492 CURVE SMOOTH",
"395 447 OFFCURVE",
"377 433 OFFCURVE",
"333 433 CURVE",
"253 433 LINE"
);
}
);
width = 647;
},
{
layerId = "D02A7F20-5372-446E-84B7-8F4B885083B2";
paths = (
{
closed = 1;
nodes = (
"490 150 OFFCURVE",
"597 273 OFFCURVE",
"597 434 CURVE SMOOTH",
"597 588 OFFCURVE",
"490 718 OFFCURVE",
"321 718 CURVE SMOOTH",
"162 718 OFFCURVE",
"46 598 OFFCURVE",
"46 434 CURVE SMOOTH {\nname = hr00;\n}",
"46 274 OFFCURVE",
"163 150 OFFCURVE",
"321 150 CURVE SMOOTH"
);
},
{
closed = 1;
nodes = (
"202 210 OFFCURVE",
"108 312 OFFCURVE",
"108 434 CURVE SMOOTH",
"108 556 OFFCURVE",
"200 658 OFFCURVE",
"321 658 CURVE SMOOTH",
"443 658 OFFCURVE",
"535 556 OFFCURVE",
"535 434 CURVE SMOOTH",
"535 311 OFFCURVE",
"445 210 OFFCURVE",
"321 210 CURVE SMOOTH"
);
},
{
closed = 1;
nodes = (
"297 276 LINE",
"297 369 LINE",
"326 369 LINE",
"354 276 LINE",
"454 276 LINE",
"413 386 LINE",
"442 410 OFFCURVE",
"451 434 OFFCURVE",
"451 486 CURVE SMOOTH",
"451 562 OFFCURVE",
"402 591 OFFCURVE",
"337 591 CURVE SMOOTH",
"201 591 LINE",
"201 276 LINE"
);
},
{
closed = 1;
nodes = (
"296 519 LINE",
"323 519 LINE",
"347 519 OFFCURVE",
"358 503 OFFCURVE",
"358 479 CURVE SMOOTH",
"358 456 OFFCURVE",
"346 440 OFFCURVE",
"324 440 CURVE",
"296 440 LINE"
);
}
);
width = 643;
},
{
layerId = "2D07D9D6-DD7A-4EF1-82E8-8B18836F0AAC";
paths = (
{
closed = 1;
nodes = (
"361 150 OFFCURVE",
"463 193 OFFCURVE",
"535 270 OFFCURVE",
"574 374 OFFCURVE",
"574 434 QCURVE",
"574 492 OFFCURVE",
"535 595 OFFCURVE",
"463 673 OFFCURVE",
"361 718 OFFCURVE",
"298 718 QCURVE",
"238 718 OFFCURVE",
"138 675 OFFCURVE",
"64 600 OFFCURVE",
"23 495 OFFCURVE",
"23 434 QCURVE",
"23 374 OFFCURVE",
"64 270 OFFCURVE",
"138 194 OFFCURVE",
"239 150 OFFCURVE",
"298 150 QCURVE"
);
},
{
closed = 1;
nodes = (
"253 210 OFFCURVE",
"176 246 OFFCURVE",
"118 307 OFFCURVE",
"85 388 OFFCURVE",
"85 434 QCURVE",
"85 480 OFFCURVE",
"118 561 OFFCURVE",
"175 622 OFFCURVE",
"253 658 OFFCURVE",
"298 658 QCURVE",
"344 658 OFFCURVE",
"422 622 OFFCURVE",
"479 561 OFFCURVE",
"512 480 OFFCURVE",
"512 434 QCURVE",
"512 388 OFFCURVE",
"480 306 OFFCURVE",
"423 245 OFFCURVE",
"344 210 OFFCURVE",
"298 210 QCURVE"
);
},
{
closed = 1;
nodes = (
"274 276 LINE",
"274 369 LINE",
"303 369 LINE",
"331 276 LINE",
"431 276 LINE",
"390 386 LINE",
"412 404 OFFCURVE",
"428 447 OFFCURVE",
"428 486 QCURVE",
"428 543 OFFCURVE",
"363 591 OFFCURVE",
"314 591 QCURVE",
"178 591 LINE",
"178 276 LINE"
);
},
{
closed = 1;
nodes = (
"273 519 LINE",
"300 519 LINE",
"318 519 OFFCURVE",
"335 497 OFFCURVE",
"335 479 QCURVE",
"335 462 OFFCURVE",
"318 440 OFFCURVE",
"301 440 QCURVE",
"273 440 LINE"
);
}
);
width = 597;
}
);
unicode = 00AE;
},
{
glyphname = minus;
lastChange = "2017-11-12 23:05:21 +0000";
layers = (
{
layerId = "F1BADE0A-D307-4A55-B1D9-DEBA981FCD10";
paths = (
{
closed = 1;
nodes = (
"491 234 LINE",
"491 268 LINE",
"69 268 LINE",
"69 234 LINE {\nname = hr00;\n}"
);
}
);
width = 560;
},
{
layerId = "D02A7F20-5372-446E-84B7-8F4B885083B2";
paths = (
{
closed = 1;
nodes = (
"498 191 LINE",
"498 311 LINE",
"62 311 LINE",
"62 191 LINE {\nname = hr00;\n}"
);
}
);
width = 560;
},
{
layerId = "2D07D9D6-DD7A-4EF1-82E8-8B18836F0AAC";
paths = (
{
closed = 1;
nodes = (
"488 164 LINE",
"488 344 LINE",
"62 344 LINE",
"62 164 LINE {\nname = hr00;\n}"
);
}
);
width = 550;
}
);
unicode = 2212;
},
{
glyphname = multiply;
lastChange = "2017-11-12 23:05:21 +0000";
layers = (
{
layerId = "F1BADE0A-D307-4A55-B1D9-DEBA981FCD10";
paths = (
{
closed = 1;
nodes = (
"280 228 LINE",
"455 52 LINE",
"479 76 LINE",
"303 251 LINE",
"479 426 LINE",
"455 450 LINE",
"280 274 LINE",
"105 450 LINE {\nname = hr00;\n}",
"81 426 LINE",
"257 251 LINE",
"81 76 LINE",
"105 52 LINE"
);
}
);
width = 560;
},
{
layerId = "D02A7F20-5372-446E-84B7-8F4B885083B2";
paths = (
{
closed = 1;
nodes = (
"504 111 LINE",
"361 250 LINE",
"504 390 LINE",
"420 475 LINE",
"280 332 LINE",
"142 473 LINE {\nname = hr00;\n}",
"57 388 LINE",
"198 250 LINE",
"56 111 LINE",
"141 27 LINE",
"280 168 LINE",
"419 26 LINE"
);
}
);
width = 560;
},
{
layerId = "2D07D9D6-DD7A-4EF1-82E8-8B18836F0AAC";
paths = (
{
closed = 1;
nodes = (
"274 129 LINE",
"402 3 LINE",
"525 126 LINE",
"398 253 LINE",
"525 380 LINE",
"401 503 LINE",
"274 376 LINE",
"148 503 LINE",
"25 381 LINE",
"151 253 LINE",
"25 125 LINE",
"148 3 LINE"
);
}
);
width = 550;
}
);
unicode = 00D7;
},
{
glyphname = dotlessi;
lastChange = "2017-11-12 23:05:21 +0000";
layers = (
{
layerId = "F1BADE0A-D307-4A55-B1D9-DEBA981FCD10";
paths = (
{
closed = 1;
nodes = (
"114 0 LINE",
"114 500 LINE",
"79 500 LINE {\nname = hr00;\n}",
"79 0 LINE"
);
}
);
width = 193;
},
{
layerId = "D02A7F20-5372-446E-84B7-8F4B885083B2";
paths = (
{
closed = 1;
nodes = (
"196 0 LINE",
"196 500 LINE",
"62 500 LINE {\nname = hr00;\n}",
"62 0 LINE"
);
}
);
width = 258;
},
{
layerId = "2D07D9D6-DD7A-4EF1-82E8-8B18836F0AAC";
paths = (
{
closed = 1;
nodes = (
"252 0 LINE",
"252 505 LINE",
"28 505 LINE",
"28 0 LINE"
);
}
);
width = 280;
}
);
leftKerningGroup = i;
rightKerningGroup = i;
unicode = 0131;
},
{
glyphname = Igrave;
lastChange = "2017-11-12 23:05:21 +0000";
layers = (
{
components = (
{
name = I;
},
{
name = grave.cap;
transform = "{1, 0, 0, 1, -28, 0}";
}
);
layerId = "F1BADE0A-D307-4A55-B1D9-DEBA981FCD10";
width = 220;
},
{
components = (
{
name = I;
},
{
name = grave.cap;
transform = "{1, 0, 0, 1, -33, 0}";
}
);
layerId = "D02A7F20-5372-446E-84B7-8F4B885083B2";
width = 286;
},
{
components = (
{
name = grave.cap;
transform = "{1, 0, 0, 1, -73, 0}";
}
);
layerId = "2D07D9D6-DD7A-4EF1-82E8-8B18836F0AAC";
paths = (
{
closed = 1;
nodes = (
"256 0 LINE",
"256 670 LINE",
"30 670 LINE",
"30 0 LINE {\nname = hr00;\n}"
);
}
);
width = 286;
}
);
leftKerningGroup = I;
rightKerningGroup = I;
unicode = 00CC;
},
{
glyphname = Icircumflex;
lastChange = "2017-11-30 16:26:34 +0000";
layers = (
{
components = (
{
name = I;
},
{
name = circumflex.cap;
transform = "{1, 0, 0, 1, -119, 0}";
}
);
layerId = "F1BADE0A-D307-4A55-B1D9-DEBA981FCD10";
width = 220;
},
{
components = (
{
name = I;
},
{
name = circumflex.cap;
transform = "{1, 0, 0, 1, -74, 0}";
}
);
layerId = "D02A7F20-5372-446E-84B7-8F4B885083B2";
width = 286;
},
{
components = (
{
name = circumflex.cap;
transform = "{1, 0, 0, 1, -271, 0}";
}
);
layerId = "2D07D9D6-DD7A-4EF1-82E8-8B18836F0AAC";
paths = (
{
closed = 1;
nodes = (
"256 0 LINE",
"256 670 LINE",
"30 670 LINE",
"30 0 LINE {\nname = hr00;\n}"
);
}
);
width = 286;
}
);
leftKerningGroup = I;
rightKerningGroup = I;
unicode = 00CE;
},
{
glyphname = Ucircumflex;
lastChange = "2017-11-12 23:05:21 +0000";
layers = (
{
components = (
{
name = U;
},
{
name = circumflex.cap;
transform = "{1, 0, 0, 1, 95, 0}";
}
);
layerId = "F1BADE0A-D307-4A55-B1D9-DEBA981FCD10";
width = 638;
},
{
components = (
{
name = U;
},
{
name = circumflex.cap;
transform = "{1, 0, 0, 1, 111, 0}";
}
);
layerId = "D02A7F20-5372-446E-84B7-8F4B885083B2";
width = 654;
},
{
components = (
{
name = circumflex.cap;
transform = "{1, 0, 0, 1, -97, 0}";
}
);
layerId = "2D07D9D6-DD7A-4EF1-82E8-8B18836F0AAC";
paths = (
{
closed = 1;
nodes = (
"511 -13 OFFCURVE",
"608 50 OFFCURVE",
"608 244 CURVE SMOOTH",
"608 670 LINE",
"382 670 LINE",
"382 231 LINE SMOOTH",
"382 193 OFFCURVE",
"365 178 OFFCURVE",
"317 178 CURVE SMOOTH",
"269 178 OFFCURVE",
"252 193 OFFCURVE",
"252 231 CURVE SMOOTH",
"252 670 LINE {\nname = hr00;\n}",
"26 670 LINE",
"26 240 LINE SMOOTH",
"26 46 OFFCURVE",
"123 -13 OFFCURVE",
"317 -13 CURVE SMOOTH"
);
}
);
width = 634;
}
);
leftKerningGroup = U;
rightKerningGroup = U;
unicode = 00DB;
},
{
glyphname = Ugrave;
lastChange = "2017-11-12 23:05:21 +0000";
layers = (
{
components = (
{
name = U;
},
{
name = grave.cap;
transform = "{1, 0, 0, 1, 200, 0}";
}
);
layerId = "F1BADE0A-D307-4A55-B1D9-DEBA981FCD10";
width = 638;
},
{
components = (
{
name = U;
},
{
name = grave.cap;
transform = "{1, 0, 0, 1, 166, 0}";
}
);
layerId = "D02A7F20-5372-446E-84B7-8F4B885083B2";
width = 654;
},
{
components = (
{
name = grave.cap;
transform = "{1, 0, 0, 1, 127, 0}";
}
);
layerId = "2D07D9D6-DD7A-4EF1-82E8-8B18836F0AAC";
paths = (
{
closed = 1;
nodes = (
"511 -13 OFFCURVE",
"608 50 OFFCURVE",
"608 244 CURVE SMOOTH",
"608 670 LINE",
"382 670 LINE",
"382 231 LINE SMOOTH",
"382 193 OFFCURVE",
"365 178 OFFCURVE",
"317 178 CURVE SMOOTH",
"269 178 OFFCURVE",
"252 193 OFFCURVE",
"252 231 CURVE SMOOTH",
"252 670 LINE {\nname = hr00;\n}",
"26 670 LINE",
"26 240 LINE SMOOTH",
"26 46 OFFCURVE",
"123 -13 OFFCURVE",
"317 -13 CURVE SMOOTH"
);
}
);
width = 634;
}
);
leftKerningGroup = U;
rightKerningGroup = U;
unicode = 00D9;
},
{
glyphname = cedilla;
lastChange = "2017-11-12 23:05:21 +0000";
layers = (
{
layerId = "F1BADE0A-D307-4A55-B1D9-DEBA981FCD10";
paths = (
{
closed = 1;
nodes = (
"179 -201 OFFCURVE",
"213 -180 OFFCURVE",
"213 -127 CURVE SMOOTH {\nname = hr00;\n}",
"213 -71 OFFCURVE",
"180 -57 OFFCURVE",
"109 -57 CURVE",
"109 1 LINE",
"76 1 LINE",
"76 -85 LINE",
"130 -85 LINE",
"159 -85 OFFCURVE",
"178 -96 OFFCURVE",
"178 -127 CURVE SMOOTH",
"178 -162 OFFCURVE",
"159 -173 OFFCURVE",
"130 -173 CURVE SMOOTH",
"96 -173 OFFCURVE",
"52 -169 OFFCURVE",
"52 -169 CURVE",
"50 -197 LINE",
"50 -197 OFFCURVE",
"87 -201 OFFCURVE",
"131 -201 CURVE SMOOTH"
);
}
);
width = 263;
},
{
layerId = "D02A7F20-5372-446E-84B7-8F4B885083B2";
paths = (
{
closed = 1;
nodes = (
"191 -241 OFFCURVE",
"234 -205 OFFCURVE",
"234 -127 CURVE SMOOTH {\nname = hr00;\n}",
"234 -52 OFFCURVE",
"189 -38 OFFCURVE",
"111 -37 CURVE",
"111 1 LINE",
"58 1 LINE",
"58 -105 LINE",
"82 -105 LINE",
"109 -105 OFFCURVE",
"120 -110 OFFCURVE",
"120 -127 CURVE SMOOTH",
"120 -144 OFFCURVE",
"109 -153 OFFCURVE",
"82 -153 CURVE SMOOTH",
"65 -153 OFFCURVE",
"34 -152 OFFCURVE",
"34 -152 CURVE",
"30 -230 LINE",
"30 -230 OFFCURVE",
"80 -241 OFFCURVE",
"123 -241 CURVE SMOOTH"
);
}
);
width = 264;
},
{
layerId = "2D07D9D6-DD7A-4EF1-82E8-8B18836F0AAC";
paths = (
{
closed = 1;
nodes = (
"571 -231 OFFCURVE",
"614 -199 OFFCURVE",
"614 -123 CURVE SMOOTH",
"614 -48 OFFCURVE",
"576 -34 OFFCURVE",
"476 -33 CURVE",
"476 11 LINE",
"403 11 LINE",
"403 -101 LINE",
"412 -101 LINE SMOOTH",
"441 -101 OFFCURVE",
"450 -104 OFFCURVE",
"450 -121 CURVE SMOOTH",
"450 -136 OFFCURVE",
"442 -143 OFFCURVE",
"412 -143 CURVE SMOOTH",
"395 -143 OFFCURVE",
"364 -142 OFFCURVE",
"364 -142 CURVE",
"360 -220 LINE",
"360 -220 OFFCURVE",
"420 -231 OFFCURVE",
"487 -231 CURVE SMOOTH"
);
}
);
width = 833;
}
);
unicode = 00B8;
},
{
glyphname = germandbls;
lastChange = "2017-11-12 23:05:21 +0000";
layers = (
{
layerId = "F1BADE0A-D307-4A55-B1D9-DEBA981FCD10";
paths = (
{
closed = 1;
nodes = (
"452 -9 OFFCURVE",
"506 51 OFFCURVE",
"506 186 CURVE SMOOTH",
"506 269 OFFCURVE",
"471 302 OFFCURVE",
"372 353 CURVE SMOOTH",
"308 386 OFFCURVE",
"288 400 OFFCURVE",
"288 422 CURVE SMOOTH",
"288 444 OFFCURVE",
"302 452 OFFCURVE",
"348 473 CURVE SMOOTH",
"401 497 OFFCURVE",
"421 534 OFFCURVE",
"421 603 CURVE SMOOTH",
"421 697 OFFCURVE",
"380 739 OFFCURVE",
"251 739 CURVE SMOOTH",
"130 739 OFFCURVE",
"79 698 OFFCURVE",
"79 561 CURVE SMOOTH",
"79 0 LINE",
"114 0 LINE {\nname = hr00;\n}",
"114 548 LINE",
"114 679 OFFCURVE",
"156 705 OFFCURVE",
"251 705 CURVE SMOOTH",
"351 705 OFFCURVE",
"383 678 OFFCURVE",
"383 603 CURVE SMOOTH",
"383 548 OFFCURVE",
"371 519 OFFCURVE",
"328 499 CURVE SMOOTH",
"280 477 OFFCURVE",
"251 462 OFFCURVE",
"251 422 CURVE SMOOTH",
"251 382 OFFCURVE",
"271 366 OFFCURVE",
"347 327 CURVE SMOOTH",
"439 280 OFFCURVE",
"468 254 OFFCURVE",
"468 181 CURVE SMOOTH",
"468 77 OFFCURVE",
"430 25 OFFCURVE",
"306 25 CURVE SMOOTH",
"270 25 OFFCURVE",
"193 34 OFFCURVE",
"193 34 CURVE",
"191 1 LINE",
"191 1 OFFCURVE",
"266 -9 OFFCURVE",
"306 -9 CURVE SMOOTH"
);
}
);
width = 549;
},
{
layerId = "D02A7F20-5372-446E-84B7-8F4B885083B2";
paths = (
{
closed = 1;
nodes = (
"531 -12 OFFCURVE",
"588 27 OFFCURVE",
"588 164 CURVE SMOOTH",
"588 245 OFFCURVE",
"552 273 OFFCURVE",
"464 314 CURVE SMOOTH",
"379 353 OFFCURVE",
"370 362 OFFCURVE",
"370 381 CURVE SMOOTH",
"370 398 OFFCURVE",
"379 406 OFFCURVE",
"429 428 CURVE SMOOTH",
"490 455 OFFCURVE",
"523 478 OFFCURVE",
"523 555 CURVE SMOOTH",
"523 669 OFFCURVE",
"443 712 OFFCURVE",
"293 712 CURVE SMOOTH",
"129 712 OFFCURVE",
"62 659 OFFCURVE",
"62 522 CURVE SMOOTH",
"62 0 LINE",
"196 0 LINE {\nname = hr00;\n}",
"196 519 LINE",
"196 571 OFFCURVE",
"217 594 OFFCURVE",
"293 594 CURVE SMOOTH",
"363 594 OFFCURVE",
"385 580 OFFCURVE",
"385 545 CURVE SMOOTH",
"385 525 OFFCURVE",
"373 515 OFFCURVE",
"309 489 CURVE SMOOTH",
"255 467 OFFCURVE",
"232 433 OFFCURVE",
"232 368 CURVE SMOOTH",
"232 296 OFFCURVE",
"265 257 OFFCURVE",
"359 217 CURVE SMOOTH",
"441 182 OFFCURVE",
"450 174 OFFCURVE",
"450 144 CURVE SMOOTH",
"450 123 OFFCURVE",
"435 106 OFFCURVE",
"370 106 CURVE SMOOTH",
"333 106 OFFCURVE",
"236 118 OFFCURVE",
"236 118 CURVE",
"232 11 LINE",
"232 11 OFFCURVE",
"320 -12 OFFCURVE",
"386 -12 CURVE SMOOTH"
);
}
);
width = 611;
},
{
layerId = "2D07D9D6-DD7A-4EF1-82E8-8B18836F0AAC";
paths = (
{
closed = 1;
nodes = (
"645 -13 OFFCURVE",
"692 43 OFFCURVE",
"692 175 CURVE SMOOTH",
"692 268 OFFCURVE",
"668 298 OFFCURVE",
"573 332 CURVE SMOOTH",
"507 355 OFFCURVE",
"494 362 OFFCURVE",
"494 382 CURVE SMOOTH",
"494 395 OFFCURVE",
"503 402 OFFCURVE",
"553 429 CURVE SMOOTH",
"606 458 OFFCURVE",
"615 472 OFFCURVE",
"615 538 CURVE SMOOTH",
"615 650 OFFCURVE",
"543 703 OFFCURVE",
"340 703 CURVE SMOOTH",
"110 703 OFFCURVE",
"28 647 OFFCURVE",
"28 453 CURVE SMOOTH",
"28 0 LINE",
"252 0 LINE {\nname = hr00;\n}",
"252 460 LINE SMOOTH",
"252 502 OFFCURVE",
"283 515 OFFCURVE",
"339 515 CURVE SMOOTH",
"379 515 OFFCURVE",
"389 501 OFFCURVE",
"389 484 CURVE SMOOTH",
"389 472 OFFCURVE",
"386 463 OFFCURVE",
"345 430 CURVE SMOOTH",
"304 397 OFFCURVE",
"288 374 OFFCURVE",
"288 324 CURVE SMOOTH",
"288 275 OFFCURVE",
"307 243 OFFCURVE",
"380 215 CURVE SMOOTH",
"461 184 OFFCURVE",
"476 177 OFFCURVE",
"476 167 CURVE SMOOTH",
"476 154 OFFCURVE",
"461 148 OFFCURVE",
"438 148 CURVE SMOOTH",
"377 148 OFFCURVE",
"299 158 OFFCURVE",
"299 158 CURVE",
"292 11 LINE",
"292 11 OFFCURVE",
"384 -13 OFFCURVE",
"500 -13 CURVE SMOOTH"
);
}
);
width = 697;
}
);
leftKerningGroup = h;
unicode = 00DF;
},
{
glyphname = lslash;
lastChange = "2017-11-12 23:05:21 +0000";
layers = (
{
layerId = "F1BADE0A-D307-4A55-B1D9-DEBA981FCD10";
paths = (
{
closed = 1;
nodes = (
"246 414 LINE {\nname = hr00;\n}",
"227 441 LINE",
"14 292 LINE",
"33 265 LINE"
);
},
{
closed = 1;
nodes = (
"146 0 LINE",
"146 730 LINE",
"111 730 LINE",
"111 0 LINE"
);
}
);
width = 263;
},
{
layerId = "D02A7F20-5372-446E-84B7-8F4B885083B2";
paths = (
{
closed = 1;
nodes = (
"381 402 LINE {\nname = hr00;\n}",
"316 492 LINE",
"3 273 LINE",
"68 183 LINE"
);
},
{
closed = 1;
nodes = (
"253 0 LINE",
"253 700 LINE",
"119 700 LINE",
"119 0 LINE"
);
}
);
width = 381;
},
{
components = (
{
name = l;
transform = "{1, 0, 0, 1, 13, 0}";
}
);
layerId = "2D07D9D6-DD7A-4EF1-82E8-8B18836F0AAC";
paths = (
{
closed = 1;
nodes = (
"304 281 LINE",
"304 281 OFFCURVE",
"304 468 OFFCURVE",
"304 468 CURVE",
"4 318 LINE",
"4 131 LINE"
);
}
);
width = 308;
}
);
leftKerningGroup = l;
rightKerningGroup = l;
unicode = 0142;
},
{
glyphname = Lslash;
lastChange = "2017-11-30 16:26:24 +0000";
layers = (
{
components = (
{
name = L;
transform = "{1, 0, 0, 1, 2, 0}";
}
);
layerId = "F1BADE0A-D307-4A55-B1D9-DEBA981FCD10";
paths = (
{
closed = 1;
nodes = (
"320 467 LINE",
"301 493 LINE",
"9 288 LINE",
"28 262 LINE"
);
}
);
width = 485;
},
{
components = (
{
name = L;
transform = "{1, 0, 0, 1, 9, 0}";
}
);
layerId = "D02A7F20-5372-446E-84B7-8F4B885083B2";
paths = (
{
closed = 1;
nodes = (
"385 429 LINE",
"320 519 LINE",
"-24 278 LINE",
"41 188 LINE"
);
}
);
width = 481;
},
{
components = (
{
name = L;
transform = "{1, 0, 0, 1, 4, 0}";
}
);
layerId = "2D07D9D6-DD7A-4EF1-82E8-8B18836F0AAC";
paths = (
{
closed = 1;
nodes = (
"340 319 LINE",
"340 319 OFFCURVE",
"340 506 OFFCURVE",
"340 506 CURVE",
"3 338 LINE",
"3 151 LINE"
);
}
);
width = 493;
}
);
leftKerningGroup = I;
rightKerningGroup = L;
unicode = 0141;
},
{
glyphname = eth;
lastChange = "2017-11-12 23:05:21 +0000";
layers = (
{
layerId = "F1BADE0A-D307-4A55-B1D9-DEBA981FCD10";
paths = (
{
closed = 1;
nodes = (
"412 -9 OFFCURVE",
"475 84 OFFCURVE",
"475 355 CURVE",
"475 541 OFFCURVE",
"352 669 OFFCURVE",
"118 739 CURVE {\nname = hr00;\n}",
"105 708 LINE",
"341 638 OFFCURVE",
"434 510 OFFCURVE",
"438 381 CURVE",
"438 381 OFFCURVE",
"327 425 OFFCURVE",
"249 425 CURVE SMOOTH",
"123 425 OFFCURVE",
"45 340 OFFCURVE",
"45 214 CURVE SMOOTH",
"45 71 OFFCURVE",
"127 -9 OFFCURVE",
"260 -9 CURVE SMOOTH"
);
},
{
closed = 1;
nodes = (
"145 25 OFFCURVE",
"81 92 OFFCURVE",
"81 214 CURVE SMOOTH",
"81 318 OFFCURVE",
"144 391 OFFCURVE",
"251 391 CURVE SMOOTH",
"323 391 OFFCURVE",
"439 346 OFFCURVE",
"439 346 CURVE",
"437 99 OFFCURVE",
"390 25 OFFCURVE",
"260 25 CURVE SMOOTH"
);
},
{
closed = 1;
nodes = (
"392 718 LINE",
"372 745 LINE",
"132 583 LINE",
"152 556 LINE"
);
}
);
width = 535;
},
{
layerId = "D02A7F20-5372-446E-84B7-8F4B885083B2";
paths = (
{
closed = 1;
nodes = (
"455 -9 OFFCURVE",
"528 106 OFFCURVE",
"528 347 CURVE",
"528 598 OFFCURVE",
"376 691 OFFCURVE",
"100 712 CURVE {\nname = hr00;\n}",
"82 618 LINE",
"318 575 OFFCURVE",
"376 518 OFFCURVE",
"386 414 CURVE",
"386 414 OFFCURVE",
"325 438 OFFCURVE",
"256 438 CURVE SMOOTH",
"107 438 OFFCURVE",
"38 350 OFFCURVE",
"38 216 CURVE SMOOTH",
"38 64 OFFCURVE",
"120 -9 OFFCURVE",
"273 -9 CURVE SMOOTH"
);
},
{
closed = 1;
nodes = (
"206 111 OFFCURVE",
"180 152 OFFCURVE",
"180 216 CURVE SMOOTH",
"180 268 OFFCURVE",
"205 320 OFFCURVE",
"264 320 CURVE SMOOTH",
"336 320 OFFCURVE",
"386 298 OFFCURVE",
"386 298 CURVE",
"386 162 OFFCURVE",
"345 111 OFFCURVE",
"273 111 CURVE SMOOTH"
);
},
{
closed = 1;
nodes = (
"459 661 LINE",
"405 737 LINE",
"114 543 LINE",
"168 467 LINE"
);
}
);
width = 567;
},
{
layerId = "2D07D9D6-DD7A-4EF1-82E8-8B18836F0AAC";
paths = (
{
closed = 1;
nodes = (
"434 -9 OFFCURVE",
"512 112 OFFCURVE",
"512 345 CURVE SMOOTH",
"512 615 OFFCURVE",
"352 697 OFFCURVE",
"65 705 CURVE",
"46 595 LINE",
"284 559 OFFCURVE",
"329 518 OFFCURVE",
"343 423 CURVE",
"319 442 OFFCURVE",
"260 441 OFFCURVE",
"228 441 CURVE SMOOTH",
"73 441 OFFCURVE",
"6 351 OFFCURVE",
"6 217 CURVE SMOOTH",
"6 60 OFFCURVE",
"88 -9 OFFCURVE",
"246 -9 CURVE SMOOTH"
);
},
{
closed = 1;
nodes = (
"190 133 OFFCURVE",
"176 168 OFFCURVE",
"176 217 CURVE SMOOTH",
"176 255 OFFCURVE",
"191 302 OFFCURVE",
"237 302 CURVE SMOOTH",
"282 302 OFFCURVE",
"297 302 OFFCURVE",
"342 286 CURVE",
"342 178 OFFCURVE",
"304 133 OFFCURVE",
"246 133 CURVE SMOOTH"
);
},
{
closed = 1;
nodes = (
"243 512 OFFCURVE",
"345 578 OFFCURVE",
"446 646 CURVE",
"425 675 OFFCURVE",
"405 706 OFFCURVE",
"384 735 CURVE",
"79 533 LINE",
"142 444 LINE"
);
}
);
width = 529;
}
);
unicode = 00F0;
userData = {
"- fatto thin\\012- fatto bold\\012- aggiunti hint  com.typemytype.robofont.guides" = (
{
angle = 90;
isGlobal = 0;
magnetic = 5;
x = 513;
y = 0;
},
{
angle = 90;
isGlobal = 0;
magnetic = 5;
x = 481;
y = 0;
}
);
};
},
{
glyphname = Thorn;
lastChange = "2017-11-12 23:05:21 +0000";
layers = (
{
layerId = "F1BADE0A-D307-4A55-B1D9-DEBA981FCD10";
paths = (
{
closed = 1;
nodes = (
"128 0 LINE",
"128 135 LINE",
"347 135 LINE SMOOTH",
"492 135 OFFCURVE",
"554 222 OFFCURVE",
"554 367 CURVE SMOOTH",
"554 512 OFFCURVE",
"492 578 OFFCURVE",
"347 578 CURVE SMOOTH",
"128 578 LINE",
"128 700 LINE",
"92 700 LINE",
"92 0 LINE"
);
},
{
closed = 1;
nodes = (
"128 544 LINE",
"347 544 LINE",
"468 544 OFFCURVE",
"516 488 OFFCURVE",
"516 367 CURVE SMOOTH",
"516 246 OFFCURVE",
"468 169 OFFCURVE",
"347 169 CURVE {\nname = hr00;\n}",
"128 169 LINE"
);
}
);
width = 601;
},
{
layerId = "D02A7F20-5372-446E-84B7-8F4B885083B2";
paths = (
{
closed = 1;
nodes = (
"212 0 LINE",
"212 99 LINE",
"324 99 LINE SMOOTH",
"484 99 OFFCURVE",
"568 193 OFFCURVE",
"568 353 CURVE SMOOTH",
"568 513 OFFCURVE",
"484 592 OFFCURVE",
"324 592 CURVE SMOOTH",
"212 592 LINE",
"212 690 LINE",
"74 690 LINE",
"74 0 LINE"
);
},
{
closed = 1;
nodes = (
"212 460 LINE",
"323 460 LINE",
"392 460 OFFCURVE",
"428 427 OFFCURVE",
"428 353 CURVE SMOOTH",
"428 278 OFFCURVE",
"392 233 OFFCURVE",
"323 233 CURVE {\nname = hr00;\n}",
"212 233 LINE"
);
}
);
width = 596;
},
{
layerId = "2D07D9D6-DD7A-4EF1-82E8-8B18836F0AAC";
paths = (
{
closed = 1;
nodes = (
"256 0 LINE",
"256 72 LINE",
"290 72 LINE",
"488 72 OFFCURVE",
"591 129 OFFCURVE",
"591 339 CURVE SMOOTH",
"591 549 OFFCURVE",
"487 600 OFFCURVE",
"290 600 CURVE SMOOTH",
"30 600 LINE",
"30 0 LINE"
);
},
{
closed = 1;
nodes = (
"256 72 LINE",
"256 600 LINE",
"256 670 LINE",
"30 670 LINE",
"30 72 LINE"
);
},
{
closed = 1;
nodes = (
"256 417 LINE",
"280 417 LINE SMOOTH",
"341 417 OFFCURVE",
"363 402 OFFCURVE",
"363 338 CURVE SMOOTH",
"363 277 OFFCURVE",
"340 255 OFFCURVE",
"280 255 CURVE",
"256 255 LINE"
);
}
);
width = 611;
}
);
leftKerningGroup = I;
unicode = 00DE;
},
{
glyphname = oslash;
lastChange = "2017-11-12 23:05:21 +0000";
layers = (
{
components = (
{
name = o;
}
);
layerId = "F1BADE0A-D307-4A55-B1D9-DEBA981FCD10";
paths = (
{
closed = 1;
nodes = (
"184 12 LINE",
"189 25 LINE",
"369 463 LINE",
"374 476 LINE",
"423 594 LINE",
"393 605 LINE",
"345 488 LINE",
"340 474 LINE",
"161 34 LINE",
"154 21 LINE",
"103 -104 LINE",
"133 -114 LINE"
);
}
);
width = 526;
},
{
components = (
{
name = o;
}
);
layerId = "D02A7F20-5372-446E-84B7-8F4B885083B2";
paths = (
{
closed = 1;
nodes = (
"212 14 LINE",
"215 27 LINE",
"388 455 LINE",
"398 468 LINE",
"443 577 LINE",
"362 607 LINE",
"318 497 LINE",
"314 484 LINE",
"143 53 LINE",
"131 40 LINE",
"82 -78 LINE",
"162 -108 LINE"
);
}
);
width = 532;
},
{
components = (
{
name = o;
}
);
layerId = "2D07D9D6-DD7A-4EF1-82E8-8B18836F0AAC";
paths = (
{
closed = 1;
nodes = (
"482 398 OFFCURVE",
"566 546 OFFCURVE",
"566 546 CURVE",
"566 546 OFFCURVE",
"349 590 OFFCURVE",
"349 589 CURVE",
"349 588 OFFCURVE",
"271 454 OFFCURVE",
"271 454 CURVE",
"271 454 OFFCURVE",
"482 398 OFFCURVE",
"482 398 CURVE"
);
},
{
closed = 1;
nodes = (
"212 -74 OFFCURVE",
"259 8 OFFCURVE",
"259 8 CURVE",
"259 8 OFFCURVE",
"63 89 OFFCURVE",
"63 89 CURVE",
"63 89 OFFCURVE",
"-5 -30 OFFCURVE",
"-5 -30 CURVE",
"212 -74 LINE"
);
}
);
width = 564;
}
);
leftKerningGroup = o;
rightKerningGroup = o;
unicode = 00F8;
},
{
glyphname = zero.pnum;
lastChange = "2017-11-12 23:05:21 +0000";
layers = (
{
layerId = "F1BADE0A-D307-4A55-B1D9-DEBA981FCD10";
paths = (
{
closed = 1;
nodes = (
"383 -9 OFFCURVE",
"467 47 OFFCURVE",
"467 241 CURVE SMOOTH",
"467 456 OFFCURVE",
"393 509 OFFCURVE",
"263 509 CURVE SMOOTH {\nname = hr00;\n}",
"143 509 OFFCURVE",
"61 447 OFFCURVE",
"61 243 CURVE SMOOTH",
"61 47 OFFCURVE",
"152 -9 OFFCURVE",
"264 -9 CURVE SMOOTH"
);
},
{
closed = 1;
nodes = (
"167 23 OFFCURVE",
"96 67 OFFCURVE",
"96 244 CURVE SMOOTH",
"96 435 OFFCURVE",
"167 477 OFFCURVE",
"264 477 CURVE",
"369 477 OFFCURVE",
"432 435 OFFCURVE",
"432 242 CURVE SMOOTH",
"432 67 OFFCURVE",
"369 23 OFFCURVE",
"265 23 CURVE SMOOTH"
);
}
);
width = 529;
},
{
layerId = "D02A7F20-5372-446E-84B7-8F4B885083B2";
paths = (
{
closed = 1;
nodes = (
"405 -9 OFFCURVE",
"495 43 OFFCURVE",
"495 243 CURVE SMOOTH",
"495 443 OFFCURVE",
"404 509 OFFCURVE",
"268 509 CURVE SMOOTH {\nname = hr00;\n}",
"132 509 OFFCURVE",
"41 443 OFFCURVE",
"41 243 CURVE SMOOTH",
"41 43 OFFCURVE",
"131 -9 OFFCURVE",
"268 -9 CURVE SMOOTH"
);
},
{
closed = 1;
nodes = (
"202 105 OFFCURVE",
"166 132 OFFCURVE",
"166 243 CURVE SMOOTH",
"166 367 OFFCURVE",
"202 395 OFFCURVE",
"268 395 CURVE",
"334 395 OFFCURVE",
"370 367 OFFCURVE",
"370 243 CURVE SMOOTH",
"370 132 OFFCURVE",
"334 105 OFFCURVE",
"268 105 CURVE SMOOTH"
);
}
);
width = 536;
},
{
layerId = "2D07D9D6-DD7A-4EF1-82E8-8B18836F0AAC";
paths = (
{
closed = 1;
nodes = (
"388 -8 OFFCURVE",
"480 45 OFFCURVE",
"480 254 CURVE SMOOTH",
"480 461 OFFCURVE",
"387 529 OFFCURVE",
"247 529 CURVE SMOOTH",
"107 529 OFFCURVE",
"13 461 OFFCURVE",
"13 254 CURVE SMOOTH",
"13 45 OFFCURVE",
"106 -8 OFFCURVE",
"247 -8 CURVE SMOOTH"
);
},
{
closed = 1;
nodes = (
"201 148 OFFCURVE",
"177 169 OFFCURVE",
"177 254 CURVE SMOOTH",
"177 350 OFFCURVE",
"201 372 OFFCURVE",
"247 372 CURVE SMOOTH",
"293 372 OFFCURVE",
"316 350 OFFCURVE",
"316 254 CURVE SMOOTH",
"316 169 OFFCURVE",
"293 148 OFFCURVE",
"247 148 CURVE SMOOTH"
);
}
);
width = 518;
}
);
userData = {
com.typemytype.robofont.guides = (
{
angle = 0;
isGlobal = 0;
magnetic = 5;
x = 0;
y = 243;
},
{
angle = 0;
isGlobal = 0;
magnetic = 5;
x = 0;
y = 447;
},
{
angle = 90;
isGlobal = 0;
magnetic = 5;
x = 263;
y = 0;
}
);
};
},
{
glyphname = one.pnum;
lastChange = "2017-11-12 23:05:21 +0000";
layers = (
{
layerId = "F1BADE0A-D307-4A55-B1D9-DEBA981FCD10";
paths = (
{
closed = 1;
nodes = (
"243 0 LINE",
"243 500 LINE",
"208 500 LINE",
"35 391 LINE {\nname = hr00;\n}",
"52 363 LINE",
"208 462 LINE",
"208 0 LINE"
);
}
);
width = 326;
},
{
layerId = "D02A7F20-5372-446E-84B7-8F4B885083B2";
paths = (
{
closed = 1;
nodes = (
"331 0 LINE",
"331 500 LINE",
"226 500 LINE",
"13 379 LINE {\nname = hr00;\n}",
"59 278 LINE",
"206 355 LINE",
"206 0 LINE"
);
}
);
width = 396;
},
{
layerId = "2D07D9D6-DD7A-4EF1-82E8-8B18836F0AAC";
paths = (
{
closed = 1;
nodes = (
"326 0 LINE",
"326 520 LINE",
"199 520 LINE",
"-21 391 LINE",
"40 252 LINE",
"64 266 OFFCURVE",
"93 280 OFFCURVE",
"119 294 CURVE SMOOTH",
"133 302 OFFCURVE",
"147 309 OFFCURVE",
"162 316 CURVE",
"162 0 LINE"
);
}
);
width = 364;
}
);
},
{
glyphname = two.pnum;
lastChange = "2017-11-12 23:05:21 +0000";
layers = (
{
layerId = "F1BADE0A-D307-4A55-B1D9-DEBA981FCD10";
paths = (
{
closed = 1;
nodes = (
"409 0 LINE {\nname = hr00;\n}",
"409 32 LINE",
"98 32 LINE",
"293 195 LINE",
"351 244 OFFCURVE",
"393 289 OFFCURVE",
"393 370 CURVE SMOOTH",
"393 465 OFFCURVE",
"337 509 OFFCURVE",
"227 509 CURVE SMOOTH",
"156 509 OFFCURVE",
"58 488 OFFCURVE",
"58 488 CURVE",
"61 457 LINE",
"61 458 OFFCURVE",
"168 477 OFFCURVE",
"226 477 CURVE SMOOTH",
"319 477 OFFCURVE",
"358 447 OFFCURVE",
"358 370 CURVE SMOOTH",
"358 304 OFFCURVE",
"322 262 OFFCURVE",
"259 207 CURVE SMOOTH",
"58 32 LINE",
"58 0 LINE"
);
}
);
width = 463;
},
{
layerId = "D02A7F20-5372-446E-84B7-8F4B885083B2";
paths = (
{
closed = 1;
nodes = (
"445 0 LINE {\nname = hr00;\n}",
"445 115 LINE",
"225 115 LINE",
"308 173 LINE",
"395 234 OFFCURVE",
"439 273 OFFCURVE",
"439 360 CURVE SMOOTH",
"439 475 OFFCURVE",
"351 509 OFFCURVE",
"243 509 CURVE SMOOTH",
"164 509 OFFCURVE",
"44 489 OFFCURVE",
"44 489 CURVE",
"52 375 LINE",
"52 376 OFFCURVE",
"165 389 OFFCURVE",
"197 389 CURVE SMOOTH",
"273 389 OFFCURVE",
"304 381 OFFCURVE",
"304 341 CURVE SMOOTH",
"304 301 OFFCURVE",
"271 271 OFFCURVE",
"171 200 CURVE SMOOTH",
"44 109 LINE",
"44 0 LINE"
);
}
);
width = 487;
},
{
layerId = "2D07D9D6-DD7A-4EF1-82E8-8B18836F0AAC";
paths = (
{
closed = 1;
nodes = (
"428 0 LINE",
"428 159 LINE",
"270 157 LINE",
"320 193 LINE SMOOTH",
"392 245 OFFCURVE",
"424 286 OFFCURVE",
"424 363 CURVE SMOOTH",
"424 491 OFFCURVE",
"331 529 OFFCURVE",
"218 529 CURVE SMOOTH",
"180 529 OFFCURVE",
"132 524 OFFCURVE",
"10 505 CURVE",
"18 352 LINE",
"92 360 OFFCURVE",
"146 365 OFFCURVE",
"165 365 CURVE SMOOTH",
"210 365 OFFCURVE",
"228 360 OFFCURVE",
"228 340 CURVE SMOOTH",
"228 326 OFFCURVE",
"214 309 OFFCURVE",
"151 256 CURVE SMOOTH",
"11 140 LINE",
"11 0 LINE"
);
}
);
width = 461;
}
);
},
{
glyphname = three.pnum;
lastChange = "2017-11-12 23:05:21 +0000";
layers = (
{
layerId = "F1BADE0A-D307-4A55-B1D9-DEBA981FCD10";
paths = (
{
closed = 1;
nodes = (
"357 -9 OFFCURVE",
"424 38 OFFCURVE",
"424 137 CURVE SMOOTH",
"424 228 OFFCURVE",
"369 251 OFFCURVE",
"312 267 CURVE",
"313 267 OFFCURVE",
"409 289 OFFCURVE",
"409 384 CURVE SMOOTH",
"409 477 OFFCURVE",
"346 510 OFFCURVE",
"238 510 CURVE SMOOTH",
"162 510 OFFCURVE",
"66 492 CURVE {\nname = hr00;\n}",
"70 460 LINE",
"70 460 OFFCURVE",
"163 478 OFFCURVE",
"239 478 CURVE SMOOTH",
"329 478 OFFCURVE",
"374 456 OFFCURVE",
"374 385 CURVE SMOOTH",
"374 310 OFFCURVE",
"309 285 OFFCURVE",
"250 282 CURVE",
"129 282 LINE",
"129 250 LINE",
"251 250 LINE",
"317 246 OFFCURVE",
"389 226 OFFCURVE",
"389 135 CURVE SMOOTH",
"389 57 OFFCURVE",
"335 24 OFFCURVE",
"245 23 CURVE",
"164 23 OFFCURVE",
"64 41 OFFCURVE",
"64 41 CURVE",
"59 9 LINE",
"59 9 OFFCURVE",
"162 -9 OFFCURVE",
"245 -9 CURVE SMOOTH"
);
}
);
width = 484;
},
{
layerId = "D02A7F20-5372-446E-84B7-8F4B885083B2";
paths = (
{
closed = 1;
nodes = (
"354 -9 OFFCURVE",
"441 38 OFFCURVE",
"441 147 CURVE SMOOTH",
"441 218 OFFCURVE",
"394 253 OFFCURVE",
"362 267 CURVE",
"393 285 OFFCURVE",
"426 315 OFFCURVE",
"426 386 CURVE SMOOTH",
"426 479 OFFCURVE",
"353 510 OFFCURVE",
"235 510 CURVE SMOOTH",
"159 510 OFFCURVE",
"44 491 CURVE {\nname = hr00;\n}",
"56 379 LINE",
"56 379 OFFCURVE",
"149 390 OFFCURVE",
"236 390 CURVE SMOOTH",
"271 390 OFFCURVE",
"301 380 OFFCURVE",
"301 350 CURVE SMOOTH",
"301 317 OFFCURVE",
"270 307 OFFCURVE",
"237 307 CURVE",
"106 307 LINE",
"106 197 LINE",
"238 197 LINE",
"281 197 OFFCURVE",
"316 190 OFFCURVE",
"316 160 CURVE SMOOTH",
"316 131 OFFCURVE",
"302 116 OFFCURVE",
"242 116 CURVE SMOOTH",
"161 116 OFFCURVE",
"51 127 OFFCURVE",
"51 127 CURVE",
"36 13 LINE",
"36 13 OFFCURVE",
"159 -9 OFFCURVE",
"242 -9 CURVE SMOOTH"
);
}
);
width = 481;
},
{
layerId = "2D07D9D6-DD7A-4EF1-82E8-8B18836F0AAC";
paths = (
{
closed = 1;
nodes = (
"334 -8 OFFCURVE",
"425 44 OFFCURVE",
"425 163 CURVE SMOOTH",
"425 217 OFFCURVE",
"395 258 OFFCURVE",
"362 272 CURVE",
"394 293 OFFCURVE",
"412 331 OFFCURVE",
"412 388 CURVE SMOOTH",
"412 492 OFFCURVE",
"333 530 OFFCURVE",
"210 530 CURVE SMOOTH",
"170 530 OFFCURVE",
"127 525 OFFCURVE",
"9 509 CURVE",
"24 355 LINE",
"76 361 OFFCURVE",
"161 366 OFFCURVE",
"211 366 CURVE SMOOTH",
"236 366 OFFCURVE",
"248 360 OFFCURVE",
"248 350 CURVE SMOOTH",
"248 338 OFFCURVE",
"237 334 OFFCURVE",
"212 334 CURVE",
"87 334 LINE",
"87 190 LINE",
"213 190 LINE",
"251 190 OFFCURVE",
"262 185 OFFCURVE",
"262 175 CURVE SMOOTH",
"262 164 OFFCURVE",
"253 160 OFFCURVE",
"217 160 CURVE SMOOTH",
"180 160 OFFCURVE",
"137 161 OFFCURVE",
"19 171 CURVE",
"-1 18 LINE",
"80 1 OFFCURVE",
"134 -8 OFFCURVE",
"217 -8 CURVE SMOOTH"
);
}
);
width = 457;
}
);
},
{
glyphname = four.pnum;
lastChange = "2017-11-12 23:05:21 +0000";
layers = (
{
layerId = "F1BADE0A-D307-4A55-B1D9-DEBA981FCD10";
paths = (
{
closed = 1;
nodes = (
"366 -33 LINE",
"366 101 LINE",
"427 101 LINE",
"427 133 LINE",
"366 133 LINE",
"366 280 LINE",
"331 280 LINE",
"331 133 LINE",
"79 133 LINE",
"252 500 LINE",
"216 500 LINE",
"40 132 LINE",
"40 101 LINE",
"331 101 LINE",
"331 -33 LINE {\nname = hr00;\n}"
);
}
);
width = 465;
},
{
layerId = "D02A7F20-5372-446E-84B7-8F4B885083B2";
paths = (
{
closed = 1;
nodes = (
"413 0 LINE",
"413 82 LINE",
"454 82 LINE",
"454 202 LINE",
"413 202 LINE",
"413 316 LINE",
"288 316 LINE",
"288 202 LINE",
"166 202 LINE",
"288 500 LINE",
"155 500 LINE",
"29 172 LINE",
"29 82 LINE",
"288 82 LINE",
"288 0 LINE {\nname = hr00;\n}"
);
}
);
width = 484;
},
{
layerId = "2D07D9D6-DD7A-4EF1-82E8-8B18836F0AAC";
paths = (
{
closed = 1;
nodes = (
"405 0 LINE",
"405 77 LINE",
"453 77 LINE",
"453 239 LINE",
"405 239 LINE",
"405 327 LINE",
"241 327 LINE",
"241 239 LINE",
"189 239 LINE",
"321 520 LINE",
"115 520 LINE",
"2 202 LINE",
"2 77 LINE",
"241 77 LINE",
"241 0 LINE"
);
}
);
width = 467;
}
);
},
{
glyphname = five.pnum;
lastChange = "2017-11-12 23:05:21 +0000";
layers = (
{
layerId = "F1BADE0A-D307-4A55-B1D9-DEBA981FCD10";
paths = (
{
closed = 1;
nodes = (
"356 -9 OFFCURVE",
"425 47 OFFCURVE",
"425 164 CURVE SMOOTH",
"425 273 OFFCURVE",
"356 313 OFFCURVE",
"256 313 CURVE SMOOTH {\nname = hr01;\n}",
"184 313 OFFCURVE",
"100 273 OFFCURVE",
"100 273 CURVE",
"114 469 LINE",
"405 469 LINE",
"405 501 LINE {\nname = hr00;\n}",
"83 501 LINE {\nname = hr02;\n}",
"67 244 LINE",
"91 238 LINE",
"91 238 OFFCURVE",
"187 281 OFFCURVE",
"255 281 CURVE SMOOTH",
"336 281 OFFCURVE",
"390 251 OFFCURVE",
"390 164 CURVE SMOOTH",
"390 67 OFFCURVE",
"337 23 OFFCURVE",
"254 23 CURVE SMOOTH",
"184 23 OFFCURVE",
"70 41 OFFCURVE",
"70 41 CURVE",
"66 9 LINE",
"66 9 OFFCURVE",
"178 -9 OFFCURVE",
"254 -9 CURVE SMOOTH"
);
}
);
width = 480;
},
{
layerId = "D02A7F20-5372-446E-84B7-8F4B885083B2";
paths = (
{
closed = 1;
nodes = (
"398 -9 OFFCURVE",
"469 59 OFFCURVE",
"469 163 CURVE SMOOTH",
"469 267 OFFCURVE",
"398 323 OFFCURVE",
"267 323 CURVE SMOOTH {\nname = hr01;\n}",
"220 323 OFFCURVE",
"176 305 OFFCURVE",
"176 305 CURVE",
"188 372 LINE",
"449 372 LINE",
"449 504 LINE",
"74 504 LINE {\nname = hr02;\n}",
"52 203 LINE",
"151 184 LINE",
"151 184 OFFCURVE",
"208 205 OFFCURVE",
"249 205 CURVE SMOOTH",
"302 205 OFFCURVE",
"331 192 OFFCURVE",
"331 155 CURVE SMOOTH",
"331 122 OFFCURVE",
"300 113 OFFCURVE",
"252 113 CURVE SMOOTH",
"178 113 OFFCURVE",
"52 137 OFFCURVE",
"52 137 CURVE",
"37 23 LINE",
"37 23 OFFCURVE",
"168 -9 OFFCURVE",
"257 -9 CURVE SMOOTH"
);
}
);
width = 506;
},
{
layerId = "2D07D9D6-DD7A-4EF1-82E8-8B18836F0AAC";
paths = (
{
closed = 1;
nodes = (
"381 -9 OFFCURVE",
"452 59 OFFCURVE",
"452 163 CURVE SMOOTH",
"452 280 OFFCURVE",
"382 333 OFFCURVE",
"250 333 CURVE SMOOTH",
"226 333 OFFCURVE",
"209 331 OFFCURVE",
"187 326 CURVE",
"191 362 LINE",
"432 362 LINE",
"432 524 LINE",
"41 524 LINE",
"19 203 LINE",
"130 174 LINE",
"153 182 OFFCURVE",
"181 187 OFFCURVE",
"210 187 CURVE SMOOTH",
"252 187 OFFCURVE",
"276 179 OFFCURVE",
"276 160 CURVE SMOOTH",
"276 141 OFFCURVE",
"251 134 OFFCURVE",
"212 134 CURVE SMOOTH",
"170 134 OFFCURVE",
"77 150 OFFCURVE",
"16 166 CURVE",
"4 23 LINE",
"78 1 OFFCURVE",
"160 -9 OFFCURVE",
"240 -9 CURVE SMOOTH"
);
}
);
width = 481;
}
);
},
{
glyphname = six.pnum;
lastChange = "2017-11-12 23:05:21 +0000";
layers = (
{
layerId = "F1BADE0A-D307-4A55-B1D9-DEBA981FCD10";
paths = (
{
closed = 1;
nodes = (
"366 -10 OFFCURVE",
"428 49 OFFCURVE",
"428 157 CURVE SMOOTH",
"428 259 OFFCURVE",
"372 313 OFFCURVE",
"257 313 CURVE SMOOTH",
"208 313 OFFCURVE",
"140 290 OFFCURVE",
"95 269 CURVE",
"95 428 OFFCURVE",
"160 477 OFFCURVE",
"259 477 CURVE SMOOTH",
"323 477 OFFCURVE",
"397 463 OFFCURVE",
"397 463 CURVE",
"400 494 LINE {\nname = hr00;\n}",
"400 494 OFFCURVE",
"323 509 OFFCURVE",
"259 509 CURVE SMOOTH",
"137 509 OFFCURVE",
"61 444 OFFCURVE",
"61 254 CURVE SMOOTH",
"61 73 OFFCURVE",
"126 -10 OFFCURVE",
"243 -10 CURVE SMOOTH"
);
},
{
closed = 1;
nodes = (
"143 21 OFFCURVE",
"97 94 OFFCURVE",
"95 237 CURVE",
"95 237 OFFCURVE",
"185 281 OFFCURVE",
"255 281 CURVE SMOOTH",
"356 281 OFFCURVE",
"393 242 OFFCURVE",
"393 157 CURVE SMOOTH",
"393 65 OFFCURVE",
"345 21 OFFCURVE",
"243 21 CURVE SMOOTH"
);
}
);
width = 481;
},
{
layerId = "D02A7F20-5372-446E-84B7-8F4B885083B2";
paths = (
{
closed = 1;
nodes = (
"382 -10 OFFCURVE",
"478 49 OFFCURVE",
"478 157 CURVE SMOOTH",
"478 279 OFFCURVE",
"401 324 OFFCURVE",
"286 324 CURVE SMOOTH",
"245 324 OFFCURVE",
"196 309 OFFCURVE",
"166 297 CURVE",
"166 376 OFFCURVE",
"210 399 OFFCURVE",
"269 399 CURVE SMOOTH",
"333 399 OFFCURVE",
"441 390 OFFCURVE",
"441 390 CURVE",
"450 494 LINE {\nname = hr00;\n}",
"450 494 OFFCURVE",
"363 509 OFFCURVE",
"269 509 CURVE SMOOTH",
"147 509 OFFCURVE",
"41 444 OFFCURVE",
"41 254 CURVE SMOOTH",
"41 63 OFFCURVE",
"116 -10 OFFCURVE",
"253 -10 CURVE SMOOTH"
);
},
{
closed = 1;
nodes = (
"203 100 OFFCURVE",
"168 132 OFFCURVE",
"166 195 CURVE",
"166 195 OFFCURVE",
"225 207 OFFCURVE",
"265 207 CURVE SMOOTH",
"316 207 OFFCURVE",
"353 196 OFFCURVE",
"353 157 CURVE SMOOTH",
"353 112 OFFCURVE",
"305 100 OFFCURVE",
"263 100 CURVE SMOOTH"
);
}
);
width = 511;
},
{
layerId = "2D07D9D6-DD7A-4EF1-82E8-8B18836F0AAC";
paths = (
{
closed = 1;
nodes = (
"367 -9 OFFCURVE",
"464 55 OFFCURVE",
"464 173 CURVE SMOOTH",
"464 306 OFFCURVE",
"383 343 OFFCURVE",
"265 343 CURVE SMOOTH",
"233 343 OFFCURVE",
"199 337 OFFCURVE",
"176 328 CURVE",
"179 355 OFFCURVE",
"190 376 OFFCURVE",
"246 376 CURVE SMOOTH",
"275 376 OFFCURVE",
"313 374 OFFCURVE",
"427 365 CURVE",
"439 515 LINE",
"352 526 OFFCURVE",
"291 529 OFFCURVE",
"246 529 CURVE SMOOTH",
"120 529 OFFCURVE",
"12 461 OFFCURVE",
"12 264 CURVE SMOOTH",
"12 67 OFFCURVE",
"89 -9 OFFCURVE",
"231 -9 CURVE SMOOTH"
);
},
{
closed = 1;
nodes = (
"212 144 OFFCURVE",
"184 158 OFFCURVE",
"179 187 CURVE",
"205 195 OFFCURVE",
"227 198 OFFCURVE",
"243 198 CURVE SMOOTH",
"280 198 OFFCURVE",
"300 189 OFFCURVE",
"300 173 CURVE SMOOTH",
"300 150 OFFCURVE",
"275 144 OFFCURVE",
"241 144 CURVE SMOOTH"
);
}
);
width = 490;
}
);
userData = {
com.typemytype.robofont.guides = (
{
angle = 90;
isGlobal = 0;
magnetic = 5;
x = 182;
y = 0;
}
);
};
},
{
glyphname = seven.pnum;
lastChange = "2017-11-12 23:05:21 +0000";
layers = (
{
layerId = "F1BADE0A-D307-4A55-B1D9-DEBA981FCD10";
paths = (
{
closed = 1;
nodes = (
"368 448 LINE",
"368 501 LINE",
"41 501 LINE",
"41 469 LINE {\nname = hr00;\n}",
"333 469 LINE",
"333 451 LINE",
"111 1 LINE",
"143 -9 LINE"
);
}
);
width = 404;
},
{
layerId = "D02A7F20-5372-446E-84B7-8F4B885083B2";
paths = (
{
closed = 1;
nodes = (
"394 367 LINE",
"394 500 LINE",
"27 500 LINE",
"27 390 LINE {\nname = hr00;\n}",
"275 390 LINE",
"275 367 LINE",
"90 20 LINE",
"197 -9 LINE"
);
}
);
width = 421;
},
{
layerId = "2D07D9D6-DD7A-4EF1-82E8-8B18836F0AAC";
paths = (
{
closed = 1;
nodes = (
"386 362 LINE",
"386 520 LINE",
"-1 520 LINE",
"-1 355 LINE",
"203 355 LINE",
"14 28 LINE",
"192 -18 LINE"
);
}
);
width = 405;
}
);
},
{
glyphname = eight.pnum;
lastChange = "2017-11-12 23:05:21 +0000";
layers = (
{
layerId = "F1BADE0A-D307-4A55-B1D9-DEBA981FCD10";
paths = (
{
closed = 1;
nodes = (
"374 -10 OFFCURVE",
"450 19 OFFCURVE",
"450 133 CURVE SMOOTH",
"450 216 OFFCURVE",
"401 244 OFFCURVE",
"337 263 CURVE",
"406 283 OFFCURVE",
"443 315 OFFCURVE",
"443 383 CURVE SMOOTH",
"443 473 OFFCURVE",
"370 509 OFFCURVE",
"254 509 CURVE SMOOTH {\nname = hr00;\n}",
"136 509 OFFCURVE",
"70 474 OFFCURVE",
"70 384 CURVE SMOOTH",
"70 315 OFFCURVE",
"108 283 OFFCURVE",
"167 263 CURVE",
"107 238 OFFCURVE",
"62 214 OFFCURVE",
"62 126 CURVE SMOOTH",
"62 23 OFFCURVE",
"138 -10 OFFCURVE",
"254 -10 CURVE SMOOTH"
);
},
{
closed = 1;
nodes = (
"162 22 OFFCURVE",
"97 41 OFFCURVE",
"97 126 CURVE SMOOTH",
"97 203 OFFCURVE",
"135 230 OFFCURVE",
"201 246 CURVE",
"300 246 LINE",
"365 230 OFFCURVE",
"415 215 OFFCURVE",
"415 133 CURVE SMOOTH",
"415 40 OFFCURVE",
"352 22 OFFCURVE",
"254 22 CURVE SMOOTH"
);
},
{
closed = 1;
nodes = (
"135 297 OFFCURVE",
"105 321 OFFCURVE",
"105 383 CURVE SMOOTH",
"105 458 OFFCURVE",
"159 477 OFFCURVE",
"254 477 CURVE SMOOTH",
"349 477 OFFCURVE",
"408 457 OFFCURVE",
"408 382 CURVE SMOOTH",
"408 320 OFFCURVE",
"371 295 OFFCURVE",
"300 278 CURVE",
"201 278 LINE"
);
}
);
width = 512;
},
{
layerId = "D02A7F20-5372-446E-84B7-8F4B885083B2";
paths = (
{
closed = 1;
nodes = (
"367 -10 OFFCURVE",
"462 33 OFFCURVE",
"462 136 CURVE SMOOTH",
"462 214 OFFCURVE",
"426 236 OFFCURVE",
"386 261 CURVE",
"418 281 OFFCURVE",
"450 310 OFFCURVE",
"450 368 CURVE SMOOTH",
"450 468 OFFCURVE",
"369 509 OFFCURVE",
"251 509 CURVE SMOOTH {\nname = hr00;\n}",
"133 509 OFFCURVE",
"52 468 OFFCURVE",
"52 368 CURVE SMOOTH",
"52 309 OFFCURVE",
"84 281 OFFCURVE",
"116 261 CURVE",
"76 238 OFFCURVE",
"40 206 OFFCURVE",
"40 136 CURVE SMOOTH",
"40 33 OFFCURVE",
"135 -10 OFFCURVE",
"251 -10 CURVE SMOOTH"
);
},
{
closed = 1;
nodes = (
"199 98 OFFCURVE",
"165 113 OFFCURVE",
"165 148 CURVE SMOOTH",
"165 179 OFFCURVE",
"185 194 OFFCURVE",
"221 207 CURVE",
"281 207 LINE",
"317 195 OFFCURVE",
"337 180 OFFCURVE",
"337 148 CURVE SMOOTH",
"337 113 OFFCURVE",
"303 98 OFFCURVE",
"251 98 CURVE SMOOTH"
);
},
{
closed = 1;
nodes = (
"195 312 OFFCURVE",
"177 325 OFFCURVE",
"177 357 CURVE SMOOTH",
"177 378 OFFCURVE",
"196 401 OFFCURVE",
"251 401 CURVE SMOOTH",
"306 401 OFFCURVE",
"325 379 OFFCURVE",
"325 358 CURVE SMOOTH",
"325 326 OFFCURVE",
"307 311 OFFCURVE",
"281 302 CURVE",
"221 302 LINE"
);
}
);
width = 502;
},
{
layerId = "2D07D9D6-DD7A-4EF1-82E8-8B18836F0AAC";
paths = (
{
closed = 1;
nodes = (
"349 -9 OFFCURVE",
"448 38 OFFCURVE",
"448 154 CURVE SMOOTH",
"448 212 OFFCURVE",
"418 245 OFFCURVE",
"388 270 CURVE",
"417 291 OFFCURVE",
"438 318 OFFCURVE",
"438 371 CURVE SMOOTH",
"438 482 OFFCURVE",
"352 529 OFFCURVE",
"229 529 CURVE SMOOTH",
"106 529 OFFCURVE",
"20 482 OFFCURVE",
"20 371 CURVE SMOOTH",
"20 318 OFFCURVE",
"41 291 OFFCURVE",
"70 270 CURVE",
"40 245 OFFCURVE",
"10 212 OFFCURVE",
"10 154 CURVE SMOOTH",
"10 38 OFFCURVE",
"109 -9 OFFCURVE",
"229 -9 CURVE SMOOTH"
);
},
{
closed = 1;
nodes = (
"195 142 OFFCURVE",
"174 148 OFFCURVE",
"174 164 CURVE SMOOTH",
"174 175 OFFCURVE",
"190 187 OFFCURVE",
"208 195 CURVE",
"250 195 LINE",
"268 187 OFFCURVE",
"284 175 OFFCURVE",
"284 164 CURVE SMOOTH",
"284 148 OFFCURVE",
"263 142 OFFCURVE",
"229 142 CURVE SMOOTH"
);
},
{
closed = 1;
nodes = (
"196 340 OFFCURVE",
"185 349 OFFCURVE",
"185 360 CURVE SMOOTH",
"185 368 OFFCURVE",
"196 378 OFFCURVE",
"229 378 CURVE SMOOTH",
"262 378 OFFCURVE",
"273 368 OFFCURVE",
"273 360 CURVE SMOOTH",
"273 349 OFFCURVE",
"262 340 OFFCURVE",
"249 334 CURVE",
"209 334 LINE"
);
}
);
width = 481;
}
);
userData = {
com.typemytype.robofont.guides = (
{
angle = 90;
isGlobal = 0;
magnetic = 5;
x = 259;
y = 0;
}
);
};
},
{
glyphname = nine.pnum;
lastChange = "2017-11-12 23:05:21 +0000";
layers = (
{
layerId = "F1BADE0A-D307-4A55-B1D9-DEBA981FCD10";
paths = (
{
closed = 1;
nodes = (
"347 -9 OFFCURVE",
"425 58 OFFCURVE",
"425 251 CURVE SMOOTH",
"425 424 OFFCURVE",
"363 510 OFFCURVE",
"235 510 CURVE SMOOTH",
"122 510 OFFCURVE",
"54 448 OFFCURVE",
"54 344 CURVE SMOOTH",
"54 246 OFFCURVE",
"115 190 OFFCURVE",
"228 190 CURVE SMOOTH",
"295 190 OFFCURVE",
"388 233 OFFCURVE",
"388 234 CURVE",
"388 72 OFFCURVE",
"323 23 OFFCURVE",
"223 23 CURVE SMOOTH",
"159 23 OFFCURVE",
"76 38 OFFCURVE",
"76 38 CURVE",
"74 6 LINE {\nname = hr00;\n}",
"74 6 OFFCURVE",
"159 -9 OFFCURVE",
"223 -9 CURVE SMOOTH"
);
},
{
closed = 1;
nodes = (
"133 222 OFFCURVE",
"89 265 OFFCURVE",
"89 344 CURVE SMOOTH",
"89 435 OFFCURVE",
"139 478 OFFCURVE",
"235 478 CURVE SMOOTH",
"342 478 OFFCURVE",
"386 408 OFFCURVE",
"389 266 CURVE",
"389 266 OFFCURVE",
"299 222 OFFCURVE",
"229 222 CURVE SMOOTH"
);
}
);
width = 486;
},
{
layerId = "D02A7F20-5372-446E-84B7-8F4B885083B2";
paths = (
{
closed = 1;
nodes = (
"348 -9 OFFCURVE",
"446 58 OFFCURVE",
"446 251 CURVE SMOOTH",
"446 434 OFFCURVE",
"364 510 OFFCURVE",
"236 510 CURVE SMOOTH",
"118 510 OFFCURVE",
"35 450 OFFCURVE",
"35 341 CURVE SMOOTH",
"35 243 OFFCURVE",
"91 186 OFFCURVE",
"219 186 CURVE SMOOTH",
"284 186 OFFCURVE",
"319 205 OFFCURVE",
"319 204 CURVE SMOOTH",
"319 142 OFFCURVE",
"284 103 OFFCURVE",
"224 103 CURVE SMOOTH",
"144 103 OFFCURVE",
"67 116 OFFCURVE",
"67 116 CURVE",
"55 13 LINE {\nname = hr00;\n}",
"55 13 OFFCURVE",
"123 -9 OFFCURVE",
"224 -9 CURVE SMOOTH"
);
},
{
closed = 1;
nodes = (
"184 294 OFFCURVE",
"160 315 OFFCURVE",
"160 343 CURVE SMOOTH",
"160 384 OFFCURVE",
"182 400 OFFCURVE",
"231 400 CURVE SMOOTH",
"284 400 OFFCURVE",
"312 367 OFFCURVE",
"313 311 CURVE",
"313 311 OFFCURVE",
"285 294 OFFCURVE",
"230 294 CURVE SMOOTH"
);
}
);
width = 486;
},
{
layerId = "2D07D9D6-DD7A-4EF1-82E8-8B18836F0AAC";
paths = (
{
closed = 1;
nodes = (
"343 -9 OFFCURVE",
"455 59 OFFCURVE",
"455 256 CURVE SMOOTH",
"455 453 OFFCURVE",
"374 529 OFFCURVE",
"232 529 CURVE SMOOTH",
"96 529 OFFCURVE",
"-1 465 OFFCURVE",
"-1 347 CURVE SMOOTH",
"-1 214 OFFCURVE",
"80 167 OFFCURVE",
"198 167 CURVE SMOOTH",
"230 167 OFFCURVE",
"264 173 OFFCURVE",
"287 182 CURVE",
"284 155 OFFCURVE",
"273 144 OFFCURVE",
"217 144 CURVE SMOOTH",
"188 144 OFFCURVE",
"150 146 OFFCURVE",
"36 155 CURVE",
"24 5 LINE",
"111 -6 OFFCURVE",
"172 -9 OFFCURVE",
"217 -9 CURVE SMOOTH"
);
},
{
closed = 1;
nodes = (
"183 312 OFFCURVE",
"163 320 OFFCURVE",
"163 345 CURVE SMOOTH",
"163 368 OFFCURVE",
"188 376 OFFCURVE",
"222 376 CURVE SMOOTH",
"251 376 OFFCURVE",
"279 356 OFFCURVE",
"284 327 CURVE",
"258 316 OFFCURVE",
"236 312 OFFCURVE",
"220 312 CURVE SMOOTH"
);
}
);
width = 461;
}
);
},
{
glyphname = brokenbar;
lastChange = "2017-11-12 23:05:21 +0000";
layers = (
{
layerId = "F1BADE0A-D307-4A55-B1D9-DEBA981FCD10";
paths = (
{
closed = 1;
nodes = (
"122 354 LINE",
"122 730 LINE",
"87 730 LINE {\nname = hr00;\n}",
"87 354 LINE"
);
},
{
closed = 1;
nodes = (
"122 -230 LINE",
"122 146 LINE",
"87 146 LINE",
"87 -230 LINE"
);
}
);
width = 209;
},
{
layerId = "D02A7F20-5372-446E-84B7-8F4B885083B2";
paths = (
{
closed = 1;
nodes = (
"203 -210 LINE",
"203 170 LINE",
"69 170 LINE",
"69 -210 LINE"
);
},
{
closed = 1;
nodes = (
"203 328 LINE",
"203 700 LINE",
"69 700 LINE {\nname = hr00;\n}",
"69 328 LINE"
);
}
);
width = 272;
},
{
layerId = "2D07D9D6-DD7A-4EF1-82E8-8B18836F0AAC";
paths = (
{
closed = 1;
nodes = (
"251 308 LINE",
"251 703 LINE",
"33 703 LINE {\nname = hr00;\n}",
"33 308 LINE"
);
},
{
closed = 1;
nodes = (
"251 -220 LINE",
"251 170 LINE",
"33 170 LINE",
"33 -220 LINE"
);
}
);
width = 284;
}
);
unicode = 00A6;
},
{
glyphname = plusminus;
lastChange = "2017-11-12 23:05:21 +0000";
layers = (
{
layerId = "F1BADE0A-D307-4A55-B1D9-DEBA981FCD10";
paths = (
{
closed = 1;
nodes = (
"297 164 LINE",
"297 308 LINE",
"501 308 LINE",
"501 342 LINE",
"297 342 LINE",
"297 480 LINE",
"261 480 LINE",
"261 342 LINE",
"59 342 LINE",
"59 308 LINE {\nname = hr00;\n}",
"261 308 LINE",
"261 164 LINE"
);
},
{
closed = 1;
nodes = (
"501 50 LINE",
"501 84 LINE",
"59 84 LINE",
"59 50 LINE"
);
}
);
width = 560;
},
{
layerId = "D02A7F20-5372-446E-84B7-8F4B885083B2";
paths = (
{
closed = 1;
nodes = (
"339 170 LINE",
"339 270 LINE",
"510 270 LINE",
"510 390 LINE",
"339 390 LINE",
"339 498 LINE",
"219 498 LINE",
"219 390 LINE",
"50 390 LINE",
"50 270 LINE {\nname = hr00;\n}",
"219 270 LINE",
"219 170 LINE"
);
},
{
closed = 1;
nodes = (
"510 19 LINE",
"510 139 LINE",
"50 139 LINE",
"50 19 LINE"
);
}
);
width = 560;
},
{
layerId = "2D07D9D6-DD7A-4EF1-82E8-8B18836F0AAC";
paths = (
{
closed = 1;
nodes = (
"365 180 LINE",
"365 251 LINE",
"506 251 LINE",
"506 421 LINE",
"365 421 LINE",
"365 505 LINE",
"185 505 LINE",
"185 421 LINE",
"44 421 LINE",
"44 251 LINE {\nname = hr00;\n}",
"185 251 LINE",
"185 180 LINE"
);
},
{
closed = 1;
nodes = (
"506 0 LINE",
"506 170 LINE",
"44 170 LINE",
"44 0 LINE"
);
}
);
width = 550;
}
);
unicode = 00B1;
},
{
glyphname = pi;
lastChange = "2017-11-12 23:09:16 +0000";
layers = (
{
layerId = "F1BADE0A-D307-4A55-B1D9-DEBA981FCD10";
paths = (
{
closed = 1;
nodes = (
"25 455 OFFCURVE",
"65 468 OFFCURVE",
"170 467 CURVE",
"176 468 LINE",
"389 468 LINE",
"396 469 LINE",
"494 468 OFFCURVE",
"531 484 OFFCURVE",
"531 484 CURVE",
"531 516 LINE",
"531 516 OFFCURVE",
"469 500 OFFCURVE",
"386 500 CURVE SMOOTH",
"162 500 LINE",
"81 500 OFFCURVE",
"25 487 OFFCURVE",
"25 487 CURVE",
"25 455 LINE"
);
},
{
closed = 1;
nodes = (
"519 32 LINE",
"442 32 OFFCURVE",
"420 51 OFFCURVE",
"420 154 CURVE SMOOTH",
"420 475 LINE",
"385 476 LINE",
"385 154 LINE SMOOTH {\nname = hr00;\n}",
"385 30 OFFCURVE",
"418 0 OFFCURVE",
"519 0 CURVE"
);
},
{
closed = 1;
nodes = (
"152 0 LINE",
"181 475 LINE",
"147 475 LINE",
"116 0 LINE"
);
}
);
width = 560;
},
{
layerId = "D02A7F20-5372-446E-84B7-8F4B885083B2";
paths = (
{
closed = 1;
nodes = (
"18 373 OFFCURVE",
"139 401 OFFCURVE",
"124 375 CURVE",
"170 386 LINE",
"329 386 LINE",
"350 393 LINE",
"471 376 OFFCURVE",
"528 402 OFFCURVE",
"528 402 CURVE",
"528 512 LINE",
"528 512 OFFCURVE",
"476 500 OFFCURVE",
"419 500 CURVE SMOOTH",
"168 500 LINE",
"82 500 OFFCURVE",
"18 482 OFFCURVE",
"18 482 CURVE",
"18 373 LINE"
);
},
{
closed = 1;
nodes = (
"523 104 LINE",
"465 104 OFFCURVE",
"454 121 OFFCURVE",
"454 154 CURVE SMOOTH",
"454 420 LINE",
"320 415 LINE",
"320 154 LINE SMOOTH {\nname = hr00;\n}",
"320 20 OFFCURVE",
"342 -10 OFFCURVE",
"523 -10 CURVE"
);
},
{
closed = 1;
nodes = (
"209 0 LINE",
"237 411 LINE",
"108 410 LINE",
"74 0 LINE"
);
}
);
width = 560;
},
{
layerId = "2D07D9D6-DD7A-4EF1-82E8-8B18836F0AAC";
paths = (
{
closed = 1;
nodes = (
"18 282 OFFCURVE",
"60 295 OFFCURVE",
"169 295 CURVE",
"197 295 LINE",
"355.994 295 LINE",
"384 295 LINE",
"483 295 OFFCURVE",
"528 311 OFFCURVE {\nname = hr01;\n}",
"528 311 CURVE {\nname = hr01;\n}",
"528 516 LINE",
"479 500 OFFCURVE",
"384 500 OFFCURVE",
"384 500 CURVE",
"168 500 LINE",
"168 500 OFFCURVE",
"75 498 OFFCURVE",
"18 487 CURVE",
"18 282 LINE"
);
},
{
closed = 1;
nodes = (
"513 164 LINE",
"436 164 OFFCURVE",
"424 161 OFFCURVE",
"424 264 CURVE SMOOTH",
"424 477 LINE",
"269 477 LINE",
"269 154 LINE",
"275 30 OFFCURVE",
"342 0 OFFCURVE",
"513 0 CURVE"
);
},
{
closed = 1;
nodes = (
"236 0 LINE",
"266 476 LINE",
"91 476 LINE",
"61 0 LINE {\nname = hr00;\n}"
);
}
);
width = 550;
}
);
unicode = 03C0;
},
{
glyphname = bullet;
lastChange = "2017-11-12 23:05:21 +0000";
layers = (
{
layerId = "F1BADE0A-D307-4A55-B1D9-DEBA981FCD10";
paths = (
{
closed = 1;
nodes = (
"369 110 LINE",
"369 400 LINE",
"119 400 LINE",
"119 110 LINE {\nname = hr00;\n}"
);
}
);
width = 488;
},
{
layerId = "D02A7F20-5372-446E-84B7-8F4B885083B2";
paths = (
{
closed = 1;
nodes = (
"350 100 LINE",
"350 380 LINE",
"100 380 LINE",
"100 100 LINE {\nname = hr00;\n}"
);
}
);
width = 450;
},
{
layerId = "2D07D9D6-DD7A-4EF1-82E8-8B18836F0AAC";
paths = (
{
closed = 1;
nodes = (
"326 140 LINE",
"326 410 LINE",
"51 410 LINE",
"51 140 LINE"
);
}
);
width = 377;
}
);
unicode = 2022;
},
{
glyphname = ordfeminine;
lastChange = "2017-11-30 13:58:12 +0000";
layers = (
{
layerId = "F1BADE0A-D307-4A55-B1D9-DEBA981FCD10";
paths = (
{
closed = 1;
nodes = (
"188 386 OFFCURVE",
"251 408 OFFCURVE",
"251 408 CURVE",
"267 393 OFFCURVE",
"280 387 OFFCURVE",
"305 386 CURVE",
"307 414 LINE",
"293 417 OFFCURVE",
"278 424 OFFCURVE",
"270 437 CURVE {\nname = hr00;\n}",
"270 571 LINE SMOOTH",
"270 634 OFFCURVE",
"244 659 OFFCURVE",
"187 659 CURVE SMOOTH",
"150 659 OFFCURVE",
"81 651 OFFCURVE",
"81 651 CURVE",
"83 622 LINE",
"83 622 OFFCURVE",
"153 629 OFFCURVE",
"187 629 CURVE SMOOTH",
"222 629 OFFCURVE",
"239 615 OFFCURVE",
"239 572 CURVE",
"239 549 LINE",
"137 542 LINE SMOOTH",
"86 538 OFFCURVE",
"62 514 OFFCURVE",
"62 466 CURVE SMOOTH",
"62 417 OFFCURVE",
"91 386 OFFCURVE",
"132 386 CURVE SMOOTH"
);
},
{
closed = 1;
nodes = (
"110 417 OFFCURVE",
"95 432 OFFCURVE",
"95 464 CURVE SMOOTH",
"95 497 OFFCURVE",
"108 512 OFFCURVE",
"142 514 CURVE SMOOTH",
"239 520 LINE",
"239 435 LINE",
"239 435 OFFCURVE",
"180 417 OFFCURVE",
"135 417 CURVE SMOOTH"
);
}
);
width = 366;
},
{
layerId = "D02A7F20-5372-446E-84B7-8F4B885083B2";
paths = (
{
closed = 1;
nodes = (
"369 395 LINE",
"364 396 OFFCURVE",
"355 400 OFFCURVE",
"351 403 CURVE {\nname = hr00;\n}",
"351 544 LINE SMOOTH",
"351 638 OFFCURVE",
"293 659 OFFCURVE",
"199 659 CURVE SMOOTH",
"128 659 OFFCURVE",
"58 633 OFFCURVE",
"58 633 CURVE",
"61 558 LINE",
"61 558 OFFCURVE",
"148 565 OFFCURVE",
"192 565 CURVE SMOOTH",
"221 565 OFFCURVE",
"236 560 OFFCURVE",
"236 550 CURVE",
"236 528 LINE",
"169 525 LINE SMOOTH",
"84 521 OFFCURVE",
"42 490 OFFCURVE",
"42 424 CURVE SMOOTH",
"42 357 OFFCURVE",
"79 314 OFFCURVE",
"151 314 CURVE SMOOTH",
"198 314 OFFCURVE",
"240 346 OFFCURVE",
"240 346 CURVE",
"254 325 OFFCURVE",
"268 313 OFFCURVE",
"367 313 CURVE"
);
},
{
closed = 1;
nodes = (
"167 402 OFFCURVE",
"157 409 OFFCURVE",
"157 428 CURVE SMOOTH",
"157 446 OFFCURVE",
"168 453 OFFCURVE",
"189 455 CURVE SMOOTH",
"236 458 LINE",
"236 418 LINE",
"236 418 OFFCURVE",
"208 402 OFFCURVE",
"188 402 CURVE SMOOTH"
);
}
);
width = 416;
},
{
layerId = "2D07D9D6-DD7A-4EF1-82E8-8B18836F0AAC";
paths = (
{
closed = 1;
nodes = (
"171 379 OFFCURVE",
"207 398 OFFCURVE",
"207 398 CURVE",
"207 398 OFFCURVE",
"235 379 OFFCURVE",
"274 379 CURVE SMOOTH",
"288 379 OFFCURVE",
"332 385 OFFCURVE",
"332 385 CURVE",
"334 463 LINE",
"329 464 OFFCURVE",
"321 466 OFFCURVE",
"318 468 CURVE",
"318 571 LINE {\nname = hr00;\n}",
"318 640 OFFCURVE",
"273 666 OFFCURVE",
"168 666 CURVE SMOOTH",
"100 666 OFFCURVE",
"29 647 OFFCURVE",
"29 647 CURVE",
"31 565 LINE",
"31 565 OFFCURVE",
"107 572 OFFCURVE",
"164 572 CURVE SMOOTH",
"179 572 OFFCURVE",
"188 569 OFFCURVE",
"188 562 CURVE SMOOTH",
"188 557 LINE",
"141 555 LINE SMOOTH",
"71.035 552.023 OFFCURVE",
"16 542 OFFCURVE",
"16 471 CURVE SMOOTH",
"16 407 OFFCURVE",
"58 379 OFFCURVE",
"126 379 CURVE SMOOTH"
);
},
{
closed = 1;
nodes = (
"150 463 OFFCURVE",
"147 466 OFFCURVE",
"147 474 CURVE SMOOTH",
"147 482 OFFCURVE",
"152.997 489.055 OFFCURVE",
"170 490 CURVE SMOOTH",
"188 491 LINE",
"188 471 LINE",
"188 471 OFFCURVE",
"180 463 OFFCURVE",
"168 463 CURVE SMOOTH"
);
}
);
width = 351;
},
{
associatedMasterId = "F1BADE0A-D307-4A55-B1D9-DEBA981FCD10";
layerId = "BC5C9DA2-249A-49D2-87FD-050E17E26E51";
name = "Nov 30 17, 15:36";
paths = (
{
closed = 1;
nodes = (
"188 386 OFFCURVE",
"251 408 OFFCURVE",
"251 408 CURVE",
"267 393 OFFCURVE",
"280 387 OFFCURVE",
"305 386 CURVE",
"307 414 LINE",
"293 417 OFFCURVE",
"278 424 OFFCURVE",
"270 437 CURVE {\nname = hr00;\n}",
"270 571 LINE SMOOTH",
"270 634 OFFCURVE",
"244 659 OFFCURVE",
"187 659 CURVE SMOOTH",
"150 659 OFFCURVE",
"81 651 OFFCURVE",
"81 651 CURVE",
"83 622 LINE",
"83 622 OFFCURVE",
"153 629 OFFCURVE",
"187 629 CURVE SMOOTH",
"222 629 OFFCURVE",
"239 615 OFFCURVE",
"239 572 CURVE",
"239 549 LINE",
"137 542 LINE SMOOTH",
"86 538 OFFCURVE",
"62 514 OFFCURVE",
"62 466 CURVE SMOOTH",
"62 417 OFFCURVE",
"91 386 OFFCURVE",
"132 386 CURVE SMOOTH"
);
},
{
closed = 1;
nodes = (
"110 417 OFFCURVE",
"95 432 OFFCURVE",
"95 464 CURVE SMOOTH",
"95 497 OFFCURVE",
"108 512 OFFCURVE",
"142 514 CURVE SMOOTH",
"239 520 LINE",
"239 435 LINE",
"239 435 OFFCURVE",
"180 417 OFFCURVE",
"135 417 CURVE SMOOTH"
);
}
);
width = 366;
},
{
associatedMasterId = "D02A7F20-5372-446E-84B7-8F4B885083B2";
layerId = "DA8178E5-2CC8-4851-BB5B-B16342BB7AB9";
name = "Nov 30 17, 15:36";
paths = (
{
closed = 1;
nodes = (
"369 395 LINE",
"364 396 OFFCURVE",
"355 400 OFFCURVE",
"351 403 CURVE {\nname = hr00;\n}",
"351 544 LINE SMOOTH",
"351 638 OFFCURVE",
"293 659 OFFCURVE",
"199 659 CURVE SMOOTH",
"128 659 OFFCURVE",
"58 633 OFFCURVE",
"58 633 CURVE",
"61 558 LINE",
"61 558 OFFCURVE",
"148 565 OFFCURVE",
"192 565 CURVE SMOOTH",
"221 565 OFFCURVE",
"236 560 OFFCURVE",
"236 550 CURVE",
"236 528 LINE",
"169 525 LINE SMOOTH",
"84 521 OFFCURVE",
"42 490 OFFCURVE",
"42 424 CURVE SMOOTH",
"42 357 OFFCURVE",
"79 314 OFFCURVE",
"151 314 CURVE SMOOTH",
"198 314 OFFCURVE",
"240 346 OFFCURVE",
"240 346 CURVE",
"254 325 OFFCURVE",
"268 313 OFFCURVE",
"367 313 CURVE"
);
},
{
closed = 1;
nodes = (
"167 402 OFFCURVE",
"157 409 OFFCURVE",
"157 428 CURVE SMOOTH",
"157 446 OFFCURVE",
"168 453 OFFCURVE",
"189 455 CURVE SMOOTH",
"236 458 LINE",
"236 418 LINE",
"236 418 OFFCURVE",
"208 402 OFFCURVE",
"188 402 CURVE SMOOTH"
);
}
);
width = 416;
},
{
associatedMasterId = "2D07D9D6-DD7A-4EF1-82E8-8B18836F0AAC";
layerId = "49964366-8E90-4640-9E4C-BD607597C41C";
name = "Nov 30 17, 15:36";
paths = (
{
closed = 1;
nodes = (
"171 379 OFFCURVE",
"207 398 OFFCURVE",
"207 398 CURVE",
"207 398 OFFCURVE",
"235 379 OFFCURVE",
"274 379 CURVE SMOOTH",
"288 379 OFFCURVE",
"332 385 OFFCURVE",
"332 385 CURVE",
"334 463 LINE",
"329 464 OFFCURVE",
"321 466 OFFCURVE",
"318 468 CURVE",
"318 571 LINE {\nname = hr00;\n}",
"318 640 OFFCURVE",
"273 666 OFFCURVE",
"168 666 CURVE SMOOTH",
"100 666 OFFCURVE",
"29 647 OFFCURVE",
"29 647 CURVE",
"31 565 LINE",
"31 565 OFFCURVE",
"107 572 OFFCURVE",
"164 572 CURVE SMOOTH",
"179 572 OFFCURVE",
"188 569 OFFCURVE",
"188 562 CURVE SMOOTH",
"188 557 LINE",
"141 555 LINE SMOOTH",
"71.035 552.023 OFFCURVE",
"16 542 OFFCURVE",
"16 471 CURVE SMOOTH",
"16 407 OFFCURVE",
"58 379 OFFCURVE",
"126 379 CURVE SMOOTH"
);
},
{
closed = 1;
nodes = (
"150 463 OFFCURVE",
"147 466 OFFCURVE",
"147 474 CURVE SMOOTH",
"147 482 OFFCURVE",
"152.997 489.055 OFFCURVE",
"170 490 CURVE SMOOTH",
"188 491 LINE",
"188 471 LINE",
"188 471 OFFCURVE",
"180 463 OFFCURVE",
"168 463 CURVE SMOOTH"
);
}
);
width = 351;
}
);
unicode = 00AA;
},
{
glyphname = ordmasculine;
lastChange = "2017-11-12 23:05:21 +0000";
layers = (
{
layerId = "F1BADE0A-D307-4A55-B1D9-DEBA981FCD10";
paths = (
{
closed = 1;
nodes = (
"253 386 OFFCURVE",
"290 430 OFFCURVE",
"290 524 CURVE SMOOTH",
"290 618 OFFCURVE",
"253 659 OFFCURVE",
"177 659 CURVE SMOOTH {\nname = hr00;\n}",
"101 659 OFFCURVE",
"62 618 OFFCURVE",
"62 524 CURVE SMOOTH",
"62 430 OFFCURVE",
"101 386 OFFCURVE",
"177 386 CURVE SMOOTH"
);
},
{
closed = 1;
nodes = (
"120 418 OFFCURVE",
"96 448 OFFCURVE",
"96 524 CURVE SMOOTH",
"96 600 OFFCURVE",
"120 627 OFFCURVE",
"177 627 CURVE SMOOTH",
"234 627 OFFCURVE",
"256 600 OFFCURVE",
"256 524 CURVE SMOOTH",
"256 448 OFFCURVE",
"234 418 OFFCURVE",
"177 418 CURVE SMOOTH"
);
}
);
width = 353;
},
{
layerId = "D02A7F20-5372-446E-84B7-8F4B885083B2";
paths = (
{
closed = 1;
nodes = (
"322 314 OFFCURVE",
"380 370 OFFCURVE",
"380 489 CURVE SMOOTH",
"380 607 OFFCURVE",
"322 659 OFFCURVE",
"211 659 CURVE SMOOTH {\nname = hr00;\n}",
"99 659 OFFCURVE",
"40 607 OFFCURVE",
"40 489 CURVE SMOOTH",
"40 370 OFFCURVE",
"99 314 OFFCURVE",
"211 314 CURVE SMOOTH"
);
},
{
closed = 1;
nodes = (
"171 419 OFFCURVE",
"160 442 OFFCURVE",
"160 488 CURVE SMOOTH",
"160 534 OFFCURVE",
"171 555 OFFCURVE",
"211 555 CURVE SMOOTH",
"251 555 OFFCURVE",
"259 534 OFFCURVE",
"259 488 CURVE SMOOTH",
"259 442 OFFCURVE",
"251 419 OFFCURVE",
"211 419 CURVE SMOOTH"
);
}
);
width = 420;
},
{
layerId = "2D07D9D6-DD7A-4EF1-82E8-8B18836F0AAC";
paths = (
{
closed = 1;
nodes = (
"291 379 OFFCURVE",
"338 418 OFFCURVE",
"338 523 CURVE SMOOTH",
"338 626 OFFCURVE",
"291 666 OFFCURVE",
"177 666 CURVE SMOOTH {\nname = hr00;\n}",
"63 666 OFFCURVE",
"15 626 OFFCURVE",
"15 523 CURVE SMOOTH",
"15 418 OFFCURVE",
"63 379 OFFCURVE",
"177 379 CURVE SMOOTH"
);
},
{
closed = 1;
nodes = (
"156 479 OFFCURVE",
"146 490 OFFCURVE",
"146 523 CURVE SMOOTH",
"146 555 OFFCURVE",
"155 566 OFFCURVE",
"177 566 CURVE SMOOTH",
"198 566 OFFCURVE",
"207 556 OFFCURVE",
"207 523 CURVE SMOOTH",
"207 490 OFFCURVE",
"198 479 OFFCURVE",
"177 479 CURVE SMOOTH"
);
}
);
width = 353;
}
);
unicode = 00BA;
},
{
glyphname = I;
lastChange = "2017-11-30 13:59:35 +0000";
layers = (
{
layerId = "F1BADE0A-D307-4A55-B1D9-DEBA981FCD10";
paths = (
{
closed = 1;
nodes = (
"128 0 LINE",
"128 700 LINE",
"92 700 LINE",
"92 0 LINE {\nname = hr00;\n}"
);
}
);
width = 220;
},
{
layerId = "D02A7F20-5372-446E-84B7-8F4B885083B2";
paths = (
{
closed = 1;
nodes = (
"212 0 LINE",
"212 680 LINE",
"74 680 LINE",
"74 0 LINE {\nname = hr00;\n}"
);
}
);
width = 286;
},
{
layerId = "2D07D9D6-DD7A-4EF1-82E8-8B18836F0AAC";
paths = (
{
closed = 1;
nodes = (
"262 0 LINE",
"262 670 LINE",
"30 670 LINE",
"30 0 LINE {\nname = hr00;\n}"
);
}
);
width = 292;
}
);
leftKerningGroup = I;
rightKerningGroup = I;
unicode = 0049;
},
{
glyphname = O;
lastChange = "2017-11-12 22:53:10 +0000";
layers = (
{
layerId = "F1BADE0A-D307-4A55-B1D9-DEBA981FCD10";
paths = (
{
closed = 1;
nodes = (
"548 -9 OFFCURVE",
"601 105 OFFCURVE",
"601 347 CURVE SMOOTH",
"601 577 OFFCURVE",
"547 709 OFFCURVE",
"333 709 CURVE SMOOTH",
"119 709 OFFCURVE",
"65 575 OFFCURVE",
"65 347 CURVE SMOOTH",
"65 115 OFFCURVE",
"117 -9 OFFCURVE",
"333 -9 CURVE SMOOTH"
);
},
{
closed = 1;
nodes = (
"140 25 OFFCURVE",
"103 137 OFFCURVE",
"103 347 CURVE SMOOTH",
"103 556 OFFCURVE",
"143 675 OFFCURVE",
"333 675 CURVE SMOOTH",
"521 675 OFFCURVE",
"563 554 OFFCURVE",
"563 347 CURVE SMOOTH",
"563 127 OFFCURVE",
"526 25 OFFCURVE",
"333 25 CURVE SMOOTH {\nname = hr00;\n}"
);
}
);
width = 666;
},
{
layerId = "D02A7F20-5372-446E-84B7-8F4B885083B2";
paths = (
{
closed = 1;
nodes = (
"540 -12 OFFCURVE",
"608 106 OFFCURVE",
"608 336 CURVE SMOOTH",
"608 566 OFFCURVE",
"540 692 OFFCURVE",
"326 692 CURVE SMOOTH",
"112 692 OFFCURVE",
"44 566 OFFCURVE",
"44 336 CURVE SMOOTH",
"44 106 OFFCURVE",
"112 -12 OFFCURVE",
"326 -12 CURVE SMOOTH"
);
},
{
closed = 1;
nodes = (
"214 108 OFFCURVE",
"186 179 OFFCURVE",
"186 336 CURVE SMOOTH",
"186 493 OFFCURVE",
"214 572 OFFCURVE",
"326 572 CURVE SMOOTH",
"438 572 OFFCURVE",
"466 493 OFFCURVE",
"466 336 CURVE SMOOTH",
"466 179 OFFCURVE",
"438 108 OFFCURVE",
"326 108 CURVE SMOOTH {\nname = hr00;\n}"
);
}
);
width = 652;
},
{
layerId = "2D07D9D6-DD7A-4EF1-82E8-8B18836F0AAC";
paths = (
{
closed = 1;
nodes = (
"558 -13 OFFCURVE",
"654 91 OFFCURVE",
"654 335 CURVE SMOOTH",
"654 579 OFFCURVE",
"558 683 OFFCURVE",
"335 683 CURVE SMOOTH",
"112 683 OFFCURVE",
"16 579 OFFCURVE",
"16 335 CURVE SMOOTH",
"16 91 OFFCURVE",
"115 -13 OFFCURVE",
"335 -13 CURVE SMOOTH"
);
},
{
closed = 1;
nodes = (
"261 175 OFFCURVE",
"250 232 OFFCURVE",
"250 335 CURVE SMOOTH",
"250 438 OFFCURVE",
"261 495 OFFCURVE",
"335 495 CURVE SMOOTH",
"412 495 OFFCURVE",
"420 438 OFFCURVE",
"420 335 CURVE SMOOTH",
"420 233 OFFCURVE",
"411 175 OFFCURVE",
"335 175 CURVE SMOOTH {\nname = hr00;\n}"
);
}
);
width = 670;
}
);
leftKerningGroup = O;
rightKerningGroup = O;
unicode = 004F;
},
{
glyphname = asciitilde;
lastChange = "2017-11-12 23:05:21 +0000";
layers = (
{
layerId = "F1BADE0A-D307-4A55-B1D9-DEBA981FCD10";
paths = (
{
closed = 1;
nodes = (
"431 212 OFFCURVE",
"493 267 OFFCURVE",
"493 267 CURVE",
"482 298 LINE {\nname = hr00;\n}",
"482 298 OFFCURVE",
"416 246 OFFCURVE",
"380 246 CURVE SMOOTH",
"336 246 OFFCURVE",
"240 319 OFFCURVE",
"183 319 CURVE SMOOTH",
"133 319 OFFCURVE",
"71 265 OFFCURVE",
"71 265 CURVE",
"82 233 LINE",
"82 233 OFFCURVE",
"148 285 OFFCURVE",
"184 285 CURVE SMOOTH",
"228 285 OFFCURVE",
"324 212 OFFCURVE",
"381 212 CURVE SMOOTH"
);
}
);
width = 560;
},
{
layerId = "D02A7F20-5372-446E-84B7-8F4B885083B2";
paths = (
{
closed = 1;
nodes = (
"444 170 OFFCURVE",
"497 221 OFFCURVE",
"497 221 CURVE",
"489 328 LINE {\nname = hr00;\n}",
"489 328 OFFCURVE",
"426 290 OFFCURVE",
"387 290 CURVE SMOOTH",
"339 290 OFFCURVE",
"238 334 OFFCURVE",
"184 334 CURVE SMOOTH",
"124 334 OFFCURVE",
"61 282 OFFCURVE",
"61 282 CURVE",
"71 175 LINE",
"71 175 OFFCURVE",
"132 214 OFFCURVE",
"180 214 CURVE SMOOTH",
"218 214 OFFCURVE",
"330 170 OFFCURVE",
"384 170 CURVE SMOOTH"
);
}
);
width = 560;
},
{
layerId = "2D07D9D6-DD7A-4EF1-82E8-8B18836F0AAC";
paths = (
{
closed = 1;
nodes = (
"439 136 OFFCURVE",
"487 189 OFFCURVE",
"487 189 CURVE",
"479 360 LINE {\nname = hr00;\n}",
"479 360 OFFCURVE",
"416 321 OFFCURVE",
"377 321 CURVE SMOOTH",
"329 321 OFFCURVE",
"239 365 OFFCURVE",
"188 365 CURVE SMOOTH",
"115 365 OFFCURVE",
"61 312 OFFCURVE",
"61 312 CURVE",
"71 140 LINE",
"71 140 OFFCURVE",
"132 180 OFFCURVE",
"180 180 CURVE SMOOTH",
"218 180 OFFCURVE",
"319 136 OFFCURVE",
"371 136 CURVE SMOOTH"
);
}
);
width = 550;
}
);
unicode = 007E;
},
{
glyphname = emdash;
lastChange = "2017-11-12 23:05:18 +0000";
layers = (
{
layerId = "F1BADE0A-D307-4A55-B1D9-DEBA981FCD10";
paths = (
{
closed = 1;
nodes = (
"1072 252 LINE",
"1072 286 LINE",
"72 286 LINE {\nname = hr00;\n}",
"72 252 LINE"
);
}
);
width = 1143;
},
{
layerId = "D02A7F20-5372-446E-84B7-8F4B885083B2";
paths = (
{
closed = 1;
nodes = (
"1057 209 LINE",
"1057 323 LINE",
"57 323 LINE {\nname = hr00;\n}",
"57 209 LINE"
);
}
);
width = 1114;
},
{
components = (
{
name = endash;
transform = "{2, 0, 0, 1, -30, 0}";
}
);
layerId = "2D07D9D6-DD7A-4EF1-82E8-8B18836F0AAC";
width = 1060;
}
);
leftKerningGroup = hyphen;
rightKerningGroup = hyphen;
unicode = 2014;
},
{
glyphname = six;
lastChange = "2017-11-12 23:05:21 +0000";
layers = (
{
layerId = "F1BADE0A-D307-4A55-B1D9-DEBA981FCD10";
paths = (
{
closed = 1;
nodes = (
"431 -9 OFFCURVE",
"508 73 OFFCURVE",
"508 208 CURVE SMOOTH",
"508 340 OFFCURVE",
"433 406 OFFCURVE",
"290 406 CURVE SMOOTH",
"202 406 OFFCURVE",
"98 357 OFFCURVE",
"98 358 CURVE",
"99 541 OFFCURVE",
"176 635 OFFCURVE",
"306 635 CURVE SMOOTH",
"390 635 OFFCURVE",
"472 626 OFFCURVE",
"472 626 CURVE",
"476 659 LINE {\nname = hr00;\n}",
"476 659 OFFCURVE",
"390 669 OFFCURVE",
"306 669 CURVE SMOOTH",
"157 669 OFFCURVE",
"60 568 OFFCURVE",
"60 337 CURVE SMOOTH",
"60 121 OFFCURVE",
"128 -9 OFFCURVE",
"284 -9 CURVE SMOOTH"
);
},
{
closed = 1;
nodes = (
"150 25 OFFCURVE",
"100 151 OFFCURVE",
"97 323 CURVE",
"97 323 OFFCURVE",
"197 372 OFFCURVE",
"289 372 CURVE SMOOTH",
"401 372 OFFCURVE",
"470 320 OFFCURVE",
"470 208 CURVE SMOOTH",
"470 89 OFFCURVE",
"405 25 OFFCURVE",
"284 25 CURVE SMOOTH"
);
}
);
width = 560;
},
{
layerId = "D02A7F20-5372-446E-84B7-8F4B885083B2";
paths = (
{
closed = 1;
nodes = (
"437 -12 OFFCURVE",
"530 60 OFFCURVE",
"530 209 CURVE SMOOTH",
"530 358 OFFCURVE",
"452 423 OFFCURVE",
"303 423 CURVE SMOOTH",
"255 423 OFFCURVE",
"177 397 OFFCURVE",
"177 398 CURVE SMOOTH",
"177 489 OFFCURVE",
"219 552 OFFCURVE",
"310 552 CURVE SMOOTH",
"394 552 OFFCURVE",
"496 537 OFFCURVE",
"496 537 CURVE",
"508 643 LINE {\nname = hr00;\n}",
"508 643 OFFCURVE",
"394 672 OFFCURVE",
"310 672 CURVE SMOOTH",
"141 672 OFFCURVE",
"35 579 OFFCURVE",
"35 327 CURVE SMOOTH",
"35 117 OFFCURVE",
"112 -12 OFFCURVE",
"288 -12 CURVE SMOOTH"
);
},
{
closed = 1;
nodes = (
"204 108 OFFCURVE",
"176 185 OFFCURVE",
"176 281 CURVE",
"176 281 OFFCURVE",
"237 303 OFFCURVE",
"291 303 CURVE SMOOTH",
"353 303 OFFCURVE",
"388 271 OFFCURVE",
"388 209 CURVE SMOOTH",
"388 145 OFFCURVE",
"352 108 OFFCURVE",
"288 108 CURVE SMOOTH"
);
}
);
width = 560;
},
{
layerId = "2D07D9D6-DD7A-4EF1-82E8-8B18836F0AAC";
paths = (
{
closed = 1;
nodes = (
"434 -13 OFFCURVE",
"535 56 OFFCURVE",
"535 212 CURVE SMOOTH",
"535 370 OFFCURVE",
"465 439 OFFCURVE",
"313 439 CURVE SMOOTH",
"265 439 OFFCURVE",
"230 420 OFFCURVE",
"230 421 CURVE",
"234 464 OFFCURVE",
"252 489 OFFCURVE",
"306 489 CURVE SMOOTH",
"390 489 OFFCURVE",
"502 472 OFFCURVE",
"502 472 CURVE",
"518 638 LINE {\nname = hr00;\n}",
"518 638 OFFCURVE",
"380 672 OFFCURVE",
"296 672 CURVE SMOOTH",
"139 672 OFFCURVE",
"16 600 OFFCURVE",
"16 323 CURVE SMOOTH",
"16 102 OFFCURVE",
"98 -13 OFFCURVE",
"284 -13 CURVE SMOOTH"
);
},
{
closed = 1;
nodes = (
"237 165 OFFCURVE",
"229 193 OFFCURVE",
"229 250 CURVE",
"229 250 OFFCURVE",
"251 262 OFFCURVE",
"286 262 CURVE SMOOTH",
"315 262 OFFCURVE",
"331 249 OFFCURVE",
"331 214 CURVE SMOOTH",
"331 185 OFFCURVE",
"319 165 OFFCURVE",
"284 165 CURVE SMOOTH"
);
}
);
width = 550;
}
);
unicode = 0036;
},
{
glyphname = nine;
lastChange = "2017-11-12 23:05:18 +0000";
layers = (
{
layerId = "F1BADE0A-D307-4A55-B1D9-DEBA981FCD10";
paths = (
{
closed = 1;
nodes = (
"406 -9 OFFCURVE",
"499 72 OFFCURVE",
"499 324 CURVE SMOOTH",
"499 534 OFFCURVE",
"431 669 OFFCURVE",
"270 669 CURVE SMOOTH",
"137 669 OFFCURVE",
"50 584 OFFCURVE",
"50 451 CURVE SMOOTH",
"50 315 OFFCURVE",
"123 256 OFFCURVE",
"259 256 CURVE SMOOTH",
"347 256 OFFCURVE",
"461 300 OFFCURVE",
"461 300 CURVE",
"459 107 OFFCURVE",
"387 25 OFFCURVE",
"247 25 CURVE SMOOTH",
"163 25 OFFCURVE",
"81 35 OFFCURVE",
"81 35 CURVE",
"77 2 LINE {\nname = hr00;\n}",
"77 2 OFFCURVE",
"163 -9 OFFCURVE",
"247 -9 CURVE SMOOTH"
);
},
{
closed = 1;
nodes = (
"147 290 OFFCURVE",
"88 337 OFFCURVE",
"88 451 CURVE SMOOTH",
"88 563 OFFCURVE",
"158 635 OFFCURVE",
"270 635 CURVE SMOOTH",
"407 635 OFFCURVE",
"458 513 OFFCURVE",
"462 335 CURVE",
"462 335 OFFCURVE",
"340 290 OFFCURVE",
"261 290 CURVE"
);
}
);
width = 560;
},
{
layerId = "D02A7F20-5372-446E-84B7-8F4B885083B2";
paths = (
{
closed = 1;
nodes = (
"417 -12 OFFCURVE",
"523 72 OFFCURVE",
"523 334 CURVE SMOOTH",
"523 543 OFFCURVE",
"444 672 OFFCURVE",
"270 672 CURVE SMOOTH",
"121 672 OFFCURVE",
"28 590 OFFCURVE",
"28 451 CURVE SMOOTH",
"28 308 OFFCURVE",
"112 240 OFFCURVE",
"255 240 CURVE SMOOTH",
"303 240 OFFCURVE",
"381 271 OFFCURVE",
"381 270 CURVE",
"381 169 OFFCURVE",
"339 108 OFFCURVE",
"248 108 CURVE SMOOTH",
"164 108 OFFCURVE",
"62 123 OFFCURVE",
"62 123 CURVE",
"50 17 LINE {\nname = hr00;\n}",
"50 17 OFFCURVE",
"164 -12 OFFCURVE",
"248 -12 CURVE SMOOTH"
);
},
{
closed = 1;
nodes = (
"206 360 OFFCURVE",
"170 390 OFFCURVE",
"170 451 CURVE SMOOTH",
"170 515 OFFCURVE",
"206 552 OFFCURVE",
"270 552 CURVE SMOOTH",
"354 552 OFFCURVE",
"382 476 OFFCURVE",
"382 383 CURVE",
"382 383 OFFCURVE",
"321 360 OFFCURVE",
"267 360 CURVE"
);
}
);
width = 560;
},
{
components = (
{
name = six;
transform = "{-1, 0, 0, -1, 549, 659}";
}
);
layerId = "2D07D9D6-DD7A-4EF1-82E8-8B18836F0AAC";
width = 550;
}
);
unicode = 0039;
},
{
glyphname = yen;
lastChange = "2017-11-12 23:05:21 +0000";
layers = (
{
layerId = "F1BADE0A-D307-4A55-B1D9-DEBA981FCD10";
paths = (
{
closed = 1;
nodes = (
"299 0 LINE",
"299 182 LINE",
"503 182 LINE",
"503 216 LINE",
"299 216 LINE",
"299 311 LINE",
"312 331 LINE",
"502 331 LINE {\nname = hr02;\n}",
"502 365 LINE",
"334 365 LINE",
"525 660 LINE",
"483 660 LINE",
"281 351 LINE",
"76 660 LINE",
"35 660 LINE",
"228 365 LINE",
"57 365 LINE",
"57 331 LINE {\nname = hr00;\n}",
"250 331 LINE",
"263 311 LINE",
"263 216 LINE",
"58 216 LINE {\nname = hr01;\n}",
"58 182 LINE",
"263 182 LINE",
"263 0 LINE"
);
}
);
width = 560;
},
{
layerId = "D02A7F20-5372-446E-84B7-8F4B885083B2";
paths = (
{
closed = 1;
nodes = (
"351 0 LINE",
"351 134 LINE",
"502 134 LINE",
"502 246 LINE",
"351 246 LINE",
"351 273 LINE",
"351 291 LINE",
"502 291 LINE {\nname = hr02;\n}",
"502 403 LINE",
"413 403 LINE",
"556 660 LINE",
"403 660 LINE",
"281 449 LINE",
"158 660 LINE",
"5 660 LINE",
"150 403 LINE",
"58 403 LINE",
"58 291 LINE",
"213 291 LINE",
"213 273 LINE",
"213 246 LINE",
"58 246 LINE {\nname = hr01;\n}",
"58 134 LINE",
"213 134 LINE",
"213 0 LINE"
);
}
);
width = 560;
},
{
components = (
{
name = endash;
transform = "{0.96, 0, 0, 0.3, 38, 253}";
},
{
name = endash;
transform = "{0.96, 0, 0, 0.3, 38, 101}";
}
);
layerId = "2D07D9D6-DD7A-4EF1-82E8-8B18836F0AAC";
paths = (
{
closed = 1;
nodes = (
"400 0 LINE",
"400 237 LINE {\nname = hr00;\n}",
"566 657 LINE",
"330 657 LINE",
"289 450 LINE",
"252 657 LINE",
"16 657 LINE",
"174 237 LINE",
"174 0 LINE"
);
}
);
width = 581;
}
);
unicode = 00A5;
},
{
glyphname = less;
lastChange = "2017-11-12 23:05:21 +0000";
layers = (
{
layerId = "F1BADE0A-D307-4A55-B1D9-DEBA981FCD10";
paths = (
{
closed = 1;
nodes = (
"481 56 LINE",
"90 251 LINE",
"481 446 LINE {\nname = hr00;\n}",
"481 485 LINE",
"57 269 LINE",
"57 233 LINE",
"481 15 LINE"
);
}
);
width = 560;
},
{
layerId = "D02A7F20-5372-446E-84B7-8F4B885083B2";
paths = (
{
closed = 1;
nodes = (
"472 146 LINE",
"211 254 LINE",
"472 353 LINE {\nname = hr00;\n}",
"472 489 LINE",
"66 306 LINE",
"66 196 LINE",
"472 10 LINE"
);
}
);
width = 560;
},
{
layerId = "2D07D9D6-DD7A-4EF1-82E8-8B18836F0AAC";
paths = (
{
closed = 1;
nodes = (
"462 218 LINE",
"223 261 LINE",
"462 293 LINE {\nname = hr00;\n}",
"462 517 LINE",
"76 366 LINE",
"76 145 LINE",
"462 -13 LINE"
);
}
);
width = 550;
}
);
unicode = 003C;
},
{
glyphname = bracketleft;
lastChange = "2017-11-12 23:05:21 +0000";
layers = (
{
layerId = "F1BADE0A-D307-4A55-B1D9-DEBA981FCD10";
paths = (
{
closed = 1;
nodes = (
"268 -123 LINE",
"268 -91 LINE",
"121 -91 LINE",
"121 717 LINE",
"268 717 LINE {\nname = hr00;\n}",
"268 749 LINE",
"86 749 LINE",
"86 -123 LINE"
);
}
);
width = 311;
},
{
layerId = "D02A7F20-5372-446E-84B7-8F4B885083B2";
paths = (
{
closed = 1;
nodes = (
"320 -123 LINE",
"320 -3 LINE",
"205 -3 LINE",
"205 629 LINE",
"320 629 LINE {\nname = hr00;\n}",
"320 749 LINE",
"68 749 LINE",
"68 -123 LINE"
);
}
);
width = 355;
},
{
layerId = "2D07D9D6-DD7A-4EF1-82E8-8B18836F0AAC";
paths = (
{
closed = 1;
nodes = (
"322 -123 LINE",
"322 58 LINE",
"258 58 LINE",
"258 568 LINE",
"322 568 LINE {\nname = hr00;\n}",
"322 749 LINE",
"33 749 LINE",
"33 -123 LINE"
);
}
);
width = 341;
}
);
unicode = 005B;
},
{
glyphname = backslash;
lastChange = "2017-11-12 23:05:21 +0000";
layers = (
{
layerId = "F1BADE0A-D307-4A55-B1D9-DEBA981FCD10";
paths = (
{
closed = 1;
nodes = (
"365 14 LINE",
"64 701 LINE",
"29 687 LINE",
"330 0 LINE {\nname = hr00;\n}"
);
}
);
width = 395;
},
{
layerId = "D02A7F20-5372-446E-84B7-8F4B885083B2";
paths = (
{
closed = 1;
nodes = (
"466 13 LINE",
"146 716 LINE",
"32 664 LINE",
"350 -36 LINE {\nname = hr00;\n}"
);
}
);
width = 498;
},
{
layerId = "2D07D9D6-DD7A-4EF1-82E8-8B18836F0AAC";
paths = (
{
closed = 1;
nodes = (
"535 -30 LINE {\nname = hr00;\n}",
"232 720 LINE",
"15 676 LINE",
"318 -74 LINE"
);
}
);
width = 550;
}
);
unicode = 005C;
},
{
glyphname = bar;
lastChange = "2017-11-12 23:05:21 +0000";
layers = (
{
layerId = "F1BADE0A-D307-4A55-B1D9-DEBA981FCD10";
paths = (
{
closed = 1;
nodes = (
"120 -230 LINE",
"120 730 LINE",
"85 730 LINE",
"85 -230 LINE {\nname = hr00;\n}"
);
}
);
width = 205;
},
{
layerId = "D02A7F20-5372-446E-84B7-8F4B885083B2";
paths = (
{
closed = 1;
nodes = (
"201 -210 LINE",
"201 700 LINE",
"67 700 LINE",
"67 -210 LINE {\nname = hr00;\n}"
);
}
);
width = 268;
},
{
layerId = "2D07D9D6-DD7A-4EF1-82E8-8B18836F0AAC";
paths = (
{
closed = 1;
nodes = (
"252 -220 LINE",
"252 703 LINE",
"34 703 LINE",
"34 -220 LINE {\nname = hr00;\n}"
);
}
);
width = 286;
}
);
unicode = 007C;
},
{
glyphname = notequal;
lastChange = "2017-11-12 23:05:21 +0000";
layers = (
{
components = (
{
name = equal;
}
);
layerId = "F1BADE0A-D307-4A55-B1D9-DEBA981FCD10";
paths = (
{
closed = 1;
nodes = (
"416 496 LINE",
"384 509 LINE",
"164 4 LINE",
"196 -9 LINE"
);
}
);
width = 560;
},
{
components = (
{
name = equal;
transform = "{1, 0, 0, 1, -1, 0}";
}
);
layerId = "D02A7F20-5372-446E-84B7-8F4B885083B2";
paths = (
{
closed = 1;
nodes = (
"457 529 LINE",
"353 570 LINE",
"96 -15 LINE",
"200 -56 LINE"
);
}
);
width = 560;
},
{
components = (
{
name = equal;
}
);
layerId = "2D07D9D6-DD7A-4EF1-82E8-8B18836F0AAC";
paths = (
{
closed = 1;
nodes = (
"202 -23 LINE",
"481 528 LINE",
"350 528 LINE",
"68 -23 LINE"
);
}
);
width = 550;
}
);
unicode = 2260;
},
{
glyphname = AE;
lastChange = "2017-11-12 23:05:21 +0000";
layers = (
{
layerId = "F1BADE0A-D307-4A55-B1D9-DEBA981FCD10";
paths = (
{
closed = 1;
nodes = (
"65 0 LINE",
"143 215 LINE",
"419 215 LINE",
"419 0 LINE {\nname = hr00;\n}",
"828 0 LINE",
"828 34 LINE",
"455 34 LINE",
"455 344 LINE",
"768 344 LINE",
"768 378 LINE",
"455 378 LINE",
"455 666 LINE",
"828 666 LINE",
"828 700 LINE",
"276 700 LINE",
"25 0 LINE"
);
},
{
closed = 1;
nodes = (
"304 666 LINE",
"419 666 LINE",
"419 249 LINE",
"155 249 LINE"
);
}
);
width = 879;
},
{
layerId = "D02A7F20-5372-446E-84B7-8F4B885083B2";
paths = (
{
closed = 1;
nodes = (
"150 0 LINE",
"179 116 LINE",
"392 116 LINE",
"392 0 LINE {\nname = hr00;\n}",
"830 0 LINE",
"830 132 LINE",
"528 132 LINE",
"528 284 LINE",
"770 284 LINE",
"770 415 LINE",
"528 415 LINE",
"528 558 LINE",
"830 558 LINE",
"830 690 LINE",
"196 690 LINE",
"12 0 LINE"
);
},
{
closed = 1;
nodes = (
"293 558 LINE",
"393 558 LINE",
"392 249 LINE",
"213 249 LINE"
);
}
);
width = 871;
},
{
layerId = "2D07D9D6-DD7A-4EF1-82E8-8B18836F0AAC";
paths = (
{
closed = 1;
nodes = (
"223 0 LINE",
"239 77 LINE",
"366 77 LINE",
"366 0 LINE {\nname = hr00;\n}",
"865 0 LINE",
"865 185 LINE",
"592 185 LINE",
"592 248 LINE",
"805 248 LINE",
"805 425 LINE",
"592 425 LINE",
"592 485 LINE",
"865 485 LINE",
"865 670 LINE",
"143 670 LINE",
"-5 0 LINE"
);
},
{
closed = 1;
nodes = (
"307 485 LINE",
"366 485 LINE",
"366 256 LINE",
"270 256 LINE"
);
}
);
width = 882;
}
);
rightKerningGroup = E;
unicode = 00C6;
userData = {
com.typemytype.robofont.guides = (
{
angle = 0;
isGlobal = 0;
magnetic = 5;
x = 0;
y = 558;
}
);
};
},
{
glyphname = mu;
lastChange = "2017-11-30 13:30:04 +0000";
layers = (
{
components = (
{
name = u;
},
{
name = dotlessi;
transform = "{1, 0, 0, 1, 516, 0}";
}
);
layerId = "F1BADE0A-D307-4A55-B1D9-DEBA981FCD10";
width = 709;
},
{
components = (
{
name = u;
},
{
name = dotlessi;
transform = "{1, 0, 0, 1, 553, 0}";
}
);
layerId = "D02A7F20-5372-446E-84B7-8F4B885083B2";
width = 811;
},
{
layerId = "2D07D9D6-DD7A-4EF1-82E8-8B18836F0AAC";
paths = (
{
closed = 1;
nodes = (
"280 -1 OFFCURVE",
"316 22 OFFCURVE",
"316 22 CURVE",
"317 0 LINE",
"539 0 LINE",
"539 505 LINE",
"315 505 LINE",
"315 186 LINE",
"315 186 OFFCURVE",
"293 180 OFFCURVE",
"271 180 CURVE SMOOTH",
"251 180 OFFCURVE",
"245 198 OFFCURVE",
"245 259 CURVE SMOOTH",
"245 505 LINE",
"21 505 LINE",
"21 244 LINE SMOOTH",
"21 71 OFFCURVE",
"85 -1 OFFCURVE",
"230 -1 CURVE SMOOTH"
);
},
{
closed = 1;
nodes = (
"245 -248 LINE",
"245 442 LINE",
"21 442 LINE",
"21 -248 LINE"
);
}
);
width = 550;
}
);
unicode = 00B5;
},
{
glyphname = ae;
lastChange = "2017-11-12 23:05:21 +0000";
layers = (
{
layerId = "F1BADE0A-D307-4A55-B1D9-DEBA981FCD10";
paths = (
{
closed = 1;
nodes = (
"288 -9 OFFCURVE",
"381 33 OFFCURVE",
"381 33 CURVE",
"419 49 LINE",
"447 13 OFFCURVE",
"493 -9 OFFCURVE",
"562 -9 CURVE SMOOTH",
"635 -9 OFFCURVE",
"747 0 OFFCURVE",
"747 0 CURVE",
"745 32 LINE",
"745 32 OFFCURVE",
"633 23 OFFCURVE",
"563 23 CURVE SMOOTH {\nname = hr00;\n}",
"447 23 OFFCURVE",
"411 98 OFFCURVE",
"411 236 CURVE",
"766 236 LINE",
"766 269 LINE",
"766 442 OFFCURVE",
"699 509 OFFCURVE",
"576 509 CURVE SMOOTH",
"502 509 OFFCURVE",
"440 484 OFFCURVE",
"404 413 CURVE",
"388 477 OFFCURVE",
"343 509 OFFCURVE",
"265 509 CURVE SMOOTH",
"185 509 OFFCURVE",
"75 499 OFFCURVE",
"75 499 CURVE",
"77 466 LINE",
"77 466 OFFCURVE",
"191 475 OFFCURVE",
"265 475 CURVE SMOOTH",
"337 475 OFFCURVE",
"376 441 OFFCURVE",
"376 353 CURVE SMOOTH",
"376 301 LINE",
"233 286 LINE",
"100 269 OFFCURVE",
"48 249 OFFCURVE",
"48 137 CURVE SMOOTH",
"48 39 OFFCURVE",
"93 -9 OFFCURVE",
"175 -9 CURVE SMOOTH"
);
},
{
closed = 1;
nodes = (
"120 23 OFFCURVE",
"85 63 OFFCURVE",
"85 137 CURVE SMOOTH",
"85 209 OFFCURVE",
"116 243 OFFCURVE",
"190 250 CURVE SMOOTH",
"374 268 LINE",
"374 186 OFFCURVE",
"380 121 OFFCURVE",
"404 74 CURVE",
"387 67 OFFCURVE",
"269 23 OFFCURVE",
"176 23 CURVE SMOOTH"
);
},
{
closed = 1;
nodes = (
"411 419 OFFCURVE",
"476 477 OFFCURVE",
"576 477 CURVE SMOOTH",
"680 477 OFFCURVE",
"729 421 OFFCURVE",
"729 268 CURVE",
"411 268 LINE"
);
}
);
width = 818;
},
{
layerId = "D02A7F20-5372-446E-84B7-8F4B885083B2";
paths = (
{
closed = 1;
nodes = (
"251 -12 OFFCURVE",
"315 10 OFFCURVE",
"349 25 CURVE",
"372 36 LINE",
"407 3 OFFCURVE",
"457 -12 OFFCURVE",
"525 -12 CURVE SMOOTH",
"618 -12 OFFCURVE",
"733 16 OFFCURVE",
"733 16 CURVE",
"731 120 LINE",
"731 120 OFFCURVE",
"628 111 OFFCURVE",
"546 111 CURVE SMOOTH {\nname = hr00;\n}",
"474 111 OFFCURVE",
"446 135 OFFCURVE",
"445 192 CURVE",
"739 192 LINE",
"749 286 LINE",
"749 437 OFFCURVE",
"678 511 OFFCURVE",
"531 511 CURVE SMOOTH",
"477 511 OFFCURVE",
"432 498 OFFCURVE",
"398 474 CURVE",
"368 500 OFFCURVE",
"324 511 OFFCURVE",
"269 511 CURVE SMOOTH",
"196 511 OFFCURVE",
"63 489 OFFCURVE",
"63 489 CURVE",
"67 372 LINE",
"67 372 OFFCURVE",
"187 383 OFFCURVE",
"261 383 CURVE SMOOTH",
"290 383 OFFCURVE",
"311 365 OFFCURVE",
"311 338 CURVE SMOOTH",
"311 313 LINE",
"203 306 LINE",
"95 300 OFFCURVE",
"29 264 OFFCURVE",
"29 152 CURVE SMOOTH",
"29 52 OFFCURVE",
"79 -12 OFFCURVE",
"178 -12 CURVE SMOOTH"
);
},
{
closed = 1;
nodes = (
"177 103 OFFCURVE",
"164 121 OFFCURVE",
"164 156 CURVE SMOOTH",
"164 192 OFFCURVE",
"185 205 OFFCURVE",
"220 207 CURVE SMOOTH",
"310 211 LINE",
"310 180 OFFCURVE",
"311 149 OFFCURVE",
"311 118 CURVE",
"311 118 OFFCURVE",
"246 103 OFFCURVE",
"205 103 CURVE SMOOTH"
);
},
{
closed = 1;
nodes = (
"445 361 OFFCURVE",
"466 392 OFFCURVE",
"531 392 CURVE SMOOTH",
"594 392 OFFCURVE",
"617 366 OFFCURVE",
"617 295 CURVE",
"445 295 LINE"
);
}
);
width = 784;
},
{
layerId = "2D07D9D6-DD7A-4EF1-82E8-8B18836F0AAC";
paths = (
{
closed = 1;
nodes = (
"277 -13 OFFCURVE",
"386 22 OFFCURVE",
"386 22 CURVE",
"486 149 LINE",
"478 152 OFFCURVE",
"467 157 OFFCURVE",
"462 160 CURVE",
"462 342 LINE {\nname = hr00;\n}",
"462 487 OFFCURVE",
"412 518 OFFCURVE",
"267 518 CURVE SMOOTH",
"158 518 OFFCURVE",
"32 483 OFFCURVE",
"32 483 CURVE",
"37 331 LINE",
"37 331 OFFCURVE",
"156 344 OFFCURVE",
"245 344 CURVE SMOOTH",
"271 344 OFFCURVE",
"288 339 OFFCURVE",
"288 325 CURVE SMOOTH",
"288 316 LINE",
"220 313 LINE SMOOTH",
"81 306 OFFCURVE",
"10 292 OFFCURVE",
"10 157 CURVE SMOOTH",
"10 38 OFFCURVE",
"80 -13 OFFCURVE",
"189 -13 CURVE SMOOTH"
);
},
{
closed = 1;
nodes = (
"234 141 OFFCURVE",
"228 149 OFFCURVE",
"228 163 CURVE SMOOTH",
"228 179 OFFCURVE",
"238 190 OFFCURVE",
"254 191 CURVE",
"288 193 LINE",
"288 156 LINE",
"288 156 OFFCURVE",
"271 141 OFFCURVE",
"250 141 CURVE SMOOTH"
);
},
{
closed = 1;
nodes = (
"650 -13 OFFCURVE",
"783 16 OFFCURVE",
"783 16 CURVE",
"778 161 LINE",
"778 161 OFFCURVE",
"635 152 OFFCURVE",
"543 152 CURVE SMOOTH",
"509 152 OFFCURVE",
"495 162 OFFCURVE",
"494 187 CURVE",
"783 187 LINE",
"793 286 LINE",
"793 445 OFFCURVE",
"705 518 OFFCURVE",
"532 518 CURVE SMOOTH",
"356 518 OFFCURVE",
"320 419 OFFCURVE",
"320 243 CURVE SMOOTH",
"320 66 OFFCURVE",
"347 -13 OFFCURVE",
"527 -13 CURVE SMOOTH"
);
},
{
closed = 1;
nodes = (
"494 346 OFFCURVE",
"502 362 OFFCURVE",
"532 362 CURVE SMOOTH",
"559 362 OFFCURVE",
"571 349 OFFCURVE",
"571 309 CURVE",
"493 309 LINE"
);
}
);
width = 807;
}
);
leftKerningGroup = a;
rightKerningGroup = e;
unicode = 00E6;
},
{
glyphname = florin;
lastChange = "2017-11-12 23:05:21 +0000";
layers = (
{
layerId = "F1BADE0A-D307-4A55-B1D9-DEBA981FCD10";
paths = (
{
closed = 1;
nodes = (
"218 -239 OFFCURVE",
"254 -194 OFFCURVE",
"254 -60 CURVE {\nname = hr00;\n}",
"254 352 LINE",
"416 352 LINE",
"416 384 LINE",
"254 384 LINE",
"254 494 LINE",
"254 594 OFFCURVE",
"289 640 OFFCURVE",
"346 640 CURVE SMOOTH",
"391 640 OFFCURVE",
"437 635 OFFCURVE",
"437 635 CURVE",
"439 667 LINE",
"439 667 OFFCURVE",
"391 673 OFFCURVE",
"346 673 CURVE SMOOTH",
"224 673 OFFCURVE",
"219 548 OFFCURVE",
"219 458 CURVE SMOOTH",
"219 384 LINE",
"150 384 LINE",
"150 352 LINE",
"219 352 LINE",
"219 -60 LINE",
"219 -170 OFFCURVE",
"194 -206 OFFCURVE",
"127 -206 CURVE SMOOTH",
"95 -206 OFFCURVE",
"37 -201 OFFCURVE",
"37 -201 CURVE",
"35 -234 LINE",
"35 -234 OFFCURVE",
"92 -239 OFFCURVE",
"127 -239 CURVE SMOOTH"
);
}
);
width = 560;
},
{
layerId = "D02A7F20-5372-446E-84B7-8F4B885083B2";
paths = (
{
closed = 1;
nodes = (
"267 -230 OFFCURVE",
"321 -189 OFFCURVE",
"321 -47 CURVE {\nname = hr00;\n}",
"321 386 LINE",
"442 386 LINE",
"442 500 LINE",
"321 500 LINE",
"321 523 LINE",
"321 573 OFFCURVE",
"331 592 OFFCURVE",
"369 592 CURVE SMOOTH",
"401 592 OFFCURVE",
"445 590 OFFCURVE",
"445 590 CURVE",
"445 699 LINE",
"445 699 OFFCURVE",
"367 712 OFFCURVE",
"333 712 CURVE SMOOTH",
"223 712 OFFCURVE",
"187 667 OFFCURVE",
"187 524 CURVE SMOOTH",
"187 500 LINE",
"133 500 LINE",
"133 386 LINE",
"187 386 LINE",
"187 -44 LINE",
"187 -94 OFFCURVE",
"164 -110 OFFCURVE",
"136 -110 CURVE SMOOTH",
"108 -110 OFFCURVE",
"44 -107 OFFCURVE",
"44 -107 CURVE",
"44 -217 LINE",
"44 -217 OFFCURVE",
"100 -230 OFFCURVE",
"153 -230 CURVE SMOOTH"
);
}
);
width = 560;
},
{
layerId = "2D07D9D6-DD7A-4EF1-82E8-8B18836F0AAC";
paths = (
{
closed = 1;
nodes = (
"234 -195 OFFCURVE",
"263 -149 OFFCURVE",
"269 -16 CURVE SMOOTH",
"291 475 LINE SMOOTH {\nname = hr00;\n}",
"292 506 OFFCURVE",
"305 511 OFFCURVE",
"370 511 CURVE",
"370 658 LINE",
"370 658 OFFCURVE",
"274 670 OFFCURVE",
"242 670 CURVE SMOOTH",
"122 670 OFFCURVE",
"82 624 OFFCURVE",
"76 491 CURVE SMOOTH",
"55 0 LINE SMOOTH",
"54 -31 OFFCURVE",
"47 -36 OFFCURVE",
"-24 -36 CURVE",
"-24 -183 LINE",
"-24 -183 OFFCURVE",
"72 -195 OFFCURVE",
"104 -195 CURVE SMOOTH"
);
},
{
closed = 1;
nodes = (
"370 326 LINE",
"370 396 LINE",
"3 396 LINE",
"3 326 LINE"
);
}
);
width = 371;
}
);
unicode = 0192;
},
{
glyphname = OE;
lastChange = "2017-11-12 23:05:21 +0000";
layers = (
{
layerId = "F1BADE0A-D307-4A55-B1D9-DEBA981FCD10";
paths = (
{
closed = 1;
nodes = (
"370 -9 OFFCURVE",
"449 -5 OFFCURVE",
"491 -1 CURVE {\nname = hr02;\n}",
"889 -1 LINE {\nname = hr00;\n}",
"889 36 LINE",
"526 36 LINE",
"526 342 LINE",
"829 342 LINE",
"829 378 LINE",
"526 378 LINE",
"526 664 LINE",
"889 664 LINE",
"889 700 LINE",
"490 700 LINE",
"453 706 OFFCURVE",
"370 709 OFFCURVE",
"333 709 CURVE SMOOTH {\nname = hr01;\n}",
"119 709 OFFCURVE",
"65 575 OFFCURVE",
"65 345 CURVE SMOOTH",
"65 115 OFFCURVE",
"117 -9 OFFCURVE",
"333 -9 CURVE SMOOTH"
);
},
{
closed = 1;
nodes = (
"140 25 OFFCURVE",
"103 137 OFFCURVE",
"103 347 CURVE SMOOTH",
"103 556 OFFCURVE",
"143 675 OFFCURVE",
"333 675 CURVE SMOOTH",
"358 675 OFFCURVE",
"455 666 OFFCURVE",
"490 663 CURVE",
"490 34 LINE",
"455 31 OFFCURVE",
"355 25 OFFCURVE",
"333 25 CURVE SMOOTH"
);
}
);
width = 940;
},
{
layerId = "D02A7F20-5372-446E-84B7-8F4B885083B2";
paths = (
{
closed = 1;
nodes = (
"343 -12 OFFCURVE",
"387 -6 OFFCURVE",
"425 0 CURVE {\nname = hr02;\n}",
"861 0 LINE {\nname = hr00;\n}",
"861 132 LINE",
"559 132 LINE",
"559 284 LINE",
"801 284 LINE",
"801 415 LINE",
"559 415 LINE",
"559 558 LINE",
"861 558 LINE",
"861 690 LINE",
"423 690 LINE",
"386 696 OFFCURVE",
"343 702 OFFCURVE",
"306 702 CURVE SMOOTH {\nname = hr01;\n}",
"114 702 OFFCURVE",
"46 605 OFFCURVE",
"46 345 CURVE SMOOTH",
"46 105 OFFCURVE",
"96 -12 OFFCURVE",
"306 -12 CURVE SMOOTH"
);
},
{
closed = 1;
nodes = (
"212 124 OFFCURVE",
"188 174 OFFCURVE",
"188 345 CURVE SMOOTH",
"188 526 OFFCURVE",
"221 566 OFFCURVE",
"326 566 CURVE SMOOTH",
"351 566 OFFCURVE",
"388 563 OFFCURVE",
"423 560 CURVE",
"423 130 LINE",
"389 127 OFFCURVE",
"352 124 OFFCURVE",
"330 124 CURVE SMOOTH"
);
}
);
width = 902;
},
{
layerId = "2D07D9D6-DD7A-4EF1-82E8-8B18836F0AAC";
paths = (
{
closed = 1;
nodes = (
"370 -13 OFFCURVE",
"484 0 OFFCURVE",
"484 0 CURVE",
"484 181 LINE {\nname = hr00;\n}",
"484 181 OFFCURVE",
"428 175 OFFCURVE",
"357 175 CURVE SMOOTH",
"249 175 OFFCURVE",
"246 224 OFFCURVE",
"246 340 CURVE SMOOTH",
"246 462 OFFCURVE",
"260 495 OFFCURVE",
"357 495 CURVE SMOOTH",
"418 495 OFFCURVE",
"484 485 OFFCURVE",
"484 485 CURVE",
"484 670 LINE",
"484 670 OFFCURVE",
"346 683 OFFCURVE",
"301 683 CURVE SMOOTH",
"83 683 OFFCURVE",
"18 591 OFFCURVE",
"18 340 CURVE SMOOTH",
"18 94 OFFCURVE",
"77 -13 OFFCURVE",
"291 -13 CURVE SMOOTH"
);
},
{
closed = 1;
nodes = (
"869 0 LINE",
"869 185 LINE",
"630 185 LINE",
"630 246 LINE",
"809 246 LINE",
"809 427 LINE",
"630 427 LINE",
"630 485 LINE",
"869 485 LINE",
"869 670 LINE",
"398 670 LINE",
"398 0 LINE"
);
}
);
width = 886;
}
);
leftKerningGroup = O;
rightKerningGroup = E;
unicode = 0152;
},
{
glyphname = oe;
lastChange = "2017-11-12 23:05:21 +0000";
layers = (
{
layerId = "F1BADE0A-D307-4A55-B1D9-DEBA981FCD10";
paths = (
{
closed = 1;
nodes = (
"371 -9 OFFCURVE",
"424 24 OFFCURVE",
"448 98 CURVE",
"473 30 OFFCURVE",
"523 -9 OFFCURVE",
"617 -9 CURVE SMOOTH",
"690 -9 OFFCURVE",
"802 0 OFFCURVE",
"802 0 CURVE",
"800 32 LINE",
"800 32 OFFCURVE",
"688 23 OFFCURVE",
"618 23 CURVE SMOOTH {\nname = hr00;\n}",
"502 23 OFFCURVE",
"466 98 OFFCURVE",
"466 236 CURVE",
"821 236 LINE",
"821 269 LINE",
"821 442 OFFCURVE",
"754 509 OFFCURVE",
"631 509 CURVE SMOOTH",
"550 509 OFFCURVE",
"482 478 OFFCURVE",
"449 389 CURVE",
"422 474 OFFCURVE",
"361 509 OFFCURVE",
"265 509 CURVE SMOOTH",
"117 509 OFFCURVE",
"60 446 OFFCURVE",
"60 261 CURVE SMOOTH",
"60 60 OFFCURVE",
"99 -9 OFFCURVE",
"265 -9 CURVE SMOOTH"
);
},
{
closed = 1;
nodes = (
"118 23 OFFCURVE",
"97 89 OFFCURVE",
"97 261 CURVE SMOOTH",
"97 429 OFFCURVE",
"137 477 OFFCURVE",
"265 477 CURVE SMOOTH",
"376 477 OFFCURVE",
"429 419 OFFCURVE",
"429 259 CURVE SMOOTH",
"429 100 OFFCURVE",
"412 23 OFFCURVE",
"265 23 CURVE SMOOTH"
);
},
{
closed = 1;
nodes = (
"466 419 OFFCURVE",
"531 477 OFFCURVE",
"631 477 CURVE SMOOTH",
"735 477 OFFCURVE",
"784 421 OFFCURVE",
"784 268 CURVE",
"466 268 LINE"
);
}
);
width = 873;
},
{
layerId = "D02A7F20-5372-446E-84B7-8F4B885083B2";
paths = (
{
closed = 1;
nodes = (
"336 -12 OFFCURVE",
"386 5 OFFCURVE",
"422 56 CURVE",
"457 3 OFFCURVE",
"507 -12 OFFCURVE",
"575 -12 CURVE SMOOTH",
"668 -12 OFFCURVE",
"783 16 OFFCURVE",
"783 16 CURVE",
"781 120 LINE",
"781 120 OFFCURVE",
"678 111 OFFCURVE",
"596 111 CURVE SMOOTH {\nname = hr00;\n}",
"524 111 OFFCURVE",
"496 135 OFFCURVE",
"495 192 CURVE",
"789 192 LINE",
"799 286 LINE",
"799 437 OFFCURVE",
"728 511 OFFCURVE",
"581 511 CURVE SMOOTH",
"516 511 OFFCURVE",
"465 493 OFFCURVE",
"428 430 CURVE",
"392 491 OFFCURVE",
"340 511 OFFCURVE",
"266 511 CURVE SMOOTH",
"92 511 OFFCURVE",
"36 404 OFFCURVE",
"36 250 CURVE SMOOTH",
"36 96 OFFCURVE",
"92 -12 OFFCURVE",
"266 -12 CURVE SMOOTH"
);
},
{
closed = 1;
nodes = (
"192 109 OFFCURVE",
"172 158 OFFCURVE",
"172 250 CURVE SMOOTH",
"172 342 OFFCURVE",
"192 390 OFFCURVE",
"266 390 CURVE SMOOTH",
"340 390 OFFCURVE",
"360 342 OFFCURVE",
"360 250 CURVE SMOOTH",
"360 158 OFFCURVE",
"340 109 OFFCURVE",
"266 109 CURVE SMOOTH"
);
},
{
closed = 1;
nodes = (
"494 360 OFFCURVE",
"517 392 OFFCURVE",
"581 392 CURVE SMOOTH",
"644 392 OFFCURVE",
"667 366 OFFCURVE",
"667 295 CURVE",
"494 295 LINE"
);
}
);
width = 834;
},
{
layerId = "2D07D9D6-DD7A-4EF1-82E8-8B18836F0AAC";
paths = (
{
closed = 1;
nodes = (
"455 -13 OFFCURVE",
"490 68 OFFCURVE",
"490 253 CURVE SMOOTH",
"490 435 OFFCURVE",
"465 518 OFFCURVE",
"282 518 CURVE SMOOTH {\nname = hr00;\n}",
"109 518 OFFCURVE",
"15 445 OFFCURVE",
"15 253 CURVE SMOOTH",
"15 58 OFFCURVE",
"109 -13 OFFCURVE",
"282 -13 CURVE SMOOTH"
);
},
{
closed = 1;
nodes = (
"251 168 OFFCURVE",
"241 188 OFFCURVE",
"241 253 CURVE SMOOTH",
"241 317 OFFCURVE",
"251 337 OFFCURVE",
"282 337 CURVE SMOOTH",
"313 337 OFFCURVE",
"323 318 OFFCURVE",
"323 253 CURVE SMOOTH",
"323 188 OFFCURVE",
"313 168 OFFCURVE",
"282 168 CURVE SMOOTH"
);
},
{
closed = 1;
nodes = (
"703 -13 OFFCURVE",
"836 16 OFFCURVE",
"836 16 CURVE",
"831 161 LINE",
"831 161 OFFCURVE",
"688 152 OFFCURVE",
"596 152 CURVE",
"562 152 OFFCURVE",
"548 162 OFFCURVE",
"547 187 CURVE",
"836 187 LINE",
"846 286 LINE",
"846 445 OFFCURVE",
"758 518 OFFCURVE",
"585 518 CURVE SMOOTH",
"409 518 OFFCURVE",
"392 409 OFFCURVE",
"392 243 CURVE SMOOTH",
"392 76 OFFCURVE",
"400 -13 OFFCURVE",
"580 -13 CURVE SMOOTH"
);
},
{
closed = 1;
nodes = (
"547 346 OFFCURVE",
"555 362 OFFCURVE",
"585 362 CURVE SMOOTH",
"612 362 OFFCURVE",
"624 349 OFFCURVE",
"624 309 CURVE",
"546 309 LINE"
);
}
);
width = 860;
}
);
leftKerningGroup = o;
rightKerningGroup = e;
unicode = 0153;
},
{
glyphname = daggerdbl;
lastChange = "2017-11-12 23:05:21 +0000";
layers = (
{
layerId = "F1BADE0A-D307-4A55-B1D9-DEBA981FCD10";
paths = (
{
closed = 1;
nodes = (
"281 -79 LINE",
"281 121 LINE",
"464 121 LINE",
"464 153 LINE",
"281 153 LINE",
"281 466 LINE",
"464 466 LINE",
"464 500 LINE",
"281 500 LINE",
"281 700 LINE",
"246 700 LINE",
"246 500 LINE",
"63 500 LINE",
"63 466 LINE",
"246 466 LINE",
"246 153 LINE",
"63 153 LINE",
"63 121 LINE",
"246 121 LINE",
"246 -79 LINE {\nname = hr00;\n}"
);
}
);
width = 527;
},
{
layerId = "D02A7F20-5372-446E-84B7-8F4B885083B2";
paths = (
{
closed = 1;
nodes = (
"323 -71 LINE",
"323 109 LINE",
"468 109 LINE",
"468 223 LINE",
"323 223 LINE",
"323 386 LINE",
"467 386 LINE",
"467 500 LINE",
"323 500 LINE",
"323 680 LINE",
"189 680 LINE",
"189 500 LINE",
"44 500 LINE",
"44 386 LINE",
"189 386 LINE",
"189 223 LINE",
"44 223 LINE",
"44 109 LINE",
"189 109 LINE",
"189 -71 LINE {\nname = hr00;\n}"
);
}
);
width = 512;
},
{
layerId = "2D07D9D6-DD7A-4EF1-82E8-8B18836F0AAC";
paths = (
{
closed = 1;
nodes = (
"387 -194 LINE",
"387 -17 LINE",
"524 -17 LINE",
"524 181 LINE",
"387 181 LINE",
"387 294 LINE",
"524 294 LINE",
"524 492 LINE",
"387 492 LINE",
"387 670 LINE",
"161 670 LINE",
"161 492 LINE",
"24 492 LINE",
"24 294 LINE",
"161 294 LINE",
"161 181 LINE",
"24 181 LINE",
"24 -17 LINE",
"161 -17 LINE",
"161 -194 LINE"
);
}
);
width = 548;
}
);
unicode = 2021;
},
{
glyphname = quotedbl;
lastChange = "2017-11-12 23:05:21 +0000";
layers = (
{
layerId = "F1BADE0A-D307-4A55-B1D9-DEBA981FCD10";
paths = (
{
closed = 1;
nodes = (
"271 490 LINE",
"274 700 LINE",
"235 700 LINE",
"238 490 LINE {\nname = hr00;\n}"
);
},
{
closed = 1;
nodes = (
"110 490 LINE",
"113 700 LINE",
"74 700 LINE",
"77 490 LINE"
);
}
);
width = 348;
},
{
layerId = "D02A7F20-5372-446E-84B7-8F4B885083B2";
paths = (
{
closed = 1;
nodes = (
"350 440 LINE",
"357 680 LINE",
"228 680 LINE",
"232 440 LINE {\nname = hr00;\n}"
);
},
{
closed = 1;
nodes = (
"178 440 LINE",
"184 680 LINE",
"55 680 LINE",
"60 440 LINE"
);
}
);
width = 411;
},
{
layerId = "2D07D9D6-DD7A-4EF1-82E8-8B18836F0AAC";
paths = (
{
closed = 1;
nodes = (
"499 420 LINE",
"530 670 LINE",
"291 670 LINE",
"323 420 LINE"
);
},
{
closed = 1;
nodes = (
"221 420 LINE",
"252 670 LINE",
"13 670 LINE {\nname = hr00;\n}",
"45 420 LINE"
);
}
);
width = 544;
}
);
leftKerningGroup = quotesingle;
rightKerningGroup = quotesingle;
unicode = 0022;
},
{
glyphname = quotesingle;
lastChange = "2017-11-12 23:05:21 +0000";
layers = (
{
layerId = "F1BADE0A-D307-4A55-B1D9-DEBA981FCD10";
paths = (
{
closed = 1;
nodes = (
"109 490 LINE {\nname = hr01;\n}",
"114 700 LINE",
"74 700 LINE {\nname = hr00;\n}",
"76 490 LINE"
);
}
);
width = 187;
},
{
layerId = "D02A7F20-5372-446E-84B7-8F4B885083B2";
paths = (
{
closed = 1;
nodes = (
"178 440 LINE {\nname = hr01;\n}",
"185 680 LINE",
"56 680 LINE",
"60 440 LINE"
);
}
);
width = 239;
},
{
layerId = "2D07D9D6-DD7A-4EF1-82E8-8B18836F0AAC";
paths = (
{
closed = 1;
nodes = (
"221 420 LINE",
"252 670 LINE",
"13 670 LINE",
"45 420 LINE"
);
}
);
width = 266;
}
);
leftKerningGroup = quotesingle;
rightKerningGroup = quotesingle;
unicode = 0027;
},
{
glyphname = parenleft;
lastChange = "2017-11-12 23:05:21 +0000";
layers = (
{
layerId = "F1BADE0A-D307-4A55-B1D9-DEBA981FCD10";
paths = (
{
closed = 1;
nodes = (
"191 -125 LINE",
"191 -125 OFFCURVE",
"96 115 OFFCURVE",
"96 301 CURVE SMOOTH",
"96 490 OFFCURVE",
"191 750 OFFCURVE",
"191 750 CURVE {\nname = hr00;\n}",
"156 750 LINE",
"156 750 OFFCURVE",
"59 501 OFFCURVE",
"59 301 CURVE SMOOTH",
"59 101 OFFCURVE",
"156 -125 OFFCURVE",
"156 -125 CURVE"
);
}
);
width = 234;
},
{
layerId = "D02A7F20-5372-446E-84B7-8F4B885083B2";
paths = (
{
closed = 1;
nodes = (
"281 -125 LINE",
"281 -125 OFFCURVE",
"186 102 OFFCURVE",
"186 301 CURVE SMOOTH",
"186 500 OFFCURVE",
"281 750 OFFCURVE",
"281 750 CURVE {\nname = hr00;\n}",
"154 750 LINE",
"154 750 OFFCURVE",
"38 540 OFFCURVE",
"38 301 CURVE SMOOTH",
"38 62 OFFCURVE",
"154 -125 OFFCURVE",
"154 -125 CURVE"
);
}
);
width = 308;
},
{
layerId = "2D07D9D6-DD7A-4EF1-82E8-8B18836F0AAC";
paths = (
{
closed = 1;
nodes = (
"318 -125 LINE",
"318 -125 OFFCURVE",
"243 85 OFFCURVE",
"243 301 CURVE SMOOTH",
"243 520 OFFCURVE",
"318 750 OFFCURVE",
"318 750 CURVE {\nname = hr00;\n}",
"115 750 LINE",
"115 750 OFFCURVE",
"16 561 OFFCURVE",
"16 301 CURVE SMOOTH",
"16 41 OFFCURVE",
"115 -125 OFFCURVE",
"115 -125 CURVE"
);
}
);
width = 326;
}
);
unicode = 0028;
},
{
glyphname = comma;
lastChange = "2017-11-12 23:05:21 +0000";
layers = (
{
layerId = "F1BADE0A-D307-4A55-B1D9-DEBA981FCD10";
paths = (
{
closed = 1;
nodes = (
"75 -123 LINE",
"126 87 LINE",
"86 87 LINE {\nname = hr00;\n}",
"44 -123 LINE"
);
}
);
width = 197;
},
{
layerId = "D02A7F20-5372-446E-84B7-8F4B885083B2";
paths = (
{
closed = 1;
nodes = (
"128 -123 LINE",
"218 137 LINE",
"70 137 LINE {\nname = hr00;\n}",
"20 -123 LINE"
);
}
);
width = 263;
},
{
layerId = "2D07D9D6-DD7A-4EF1-82E8-8B18836F0AAC";
paths = (
{
closed = 1;
nodes = (
"198 -103 LINE",
"277 193 LINE",
"35 193 LINE {\nname = hr00;\n}",
"13 -103 LINE"
);
}
);
width = 289;
}
);
leftKerningGroup = period;
rightKerningGroup = period;
unicode = 002C;
},
{
glyphname = hyphen;
lastChange = "2017-11-12 23:05:21 +0000";
layers = (
{
layerId = "F1BADE0A-D307-4A55-B1D9-DEBA981FCD10";
paths = (
{
closed = 1;
nodes = (
"383 264 LINE",
"383 298 LINE",
"76 298 LINE",
"76 264 LINE {\nname = hr00;\n}"
);
}
);
width = 458;
},
{
layerId = "D02A7F20-5372-446E-84B7-8F4B885083B2";
paths = (
{
closed = 1;
nodes = (
"352 205 LINE",
"352 327 LINE",
"56 327 LINE",
"56 205 LINE {\nname = hr00;\n}"
);
}
);
width = 408;
},
{
layerId = "2D07D9D6-DD7A-4EF1-82E8-8B18836F0AAC";
paths = (
{
closed = 1;
nodes = (
"327 161 LINE",
"327 342 LINE",
"29 342 LINE",
"29 161 LINE {\nname = hr00;\n}"
);
}
);
width = 356;
}
);
leftKerningGroup = hyphen;
rightKerningGroup = hyphen;
unicode = 002D;
},
{
glyphname = period;
lastChange = "2017-11-12 23:05:21 +0000";
layers = (
{
layerId = "F1BADE0A-D307-4A55-B1D9-DEBA981FCD10";
paths = (
{
closed = 1;
nodes = (
"115 0 LINE",
"115 80 LINE",
"75 80 LINE",
"75 0 LINE {\nname = hr00;\n}"
);
}
);
width = 190;
},
{
layerId = "D02A7F20-5372-446E-84B7-8F4B885083B2";
paths = (
{
closed = 1;
nodes = (
"200 0 LINE",
"200 166 LINE",
"56 166 LINE",
"56 0 LINE {\nname = hr00;\n}"
);
}
);
width = 256;
},
{
layerId = "2D07D9D6-DD7A-4EF1-82E8-8B18836F0AAC";
paths = (
{
closed = 1;
nodes = (
"255 0 LINE",
"255 199 LINE",
"27 199 LINE",
"27 0 LINE {\nname = hr00;\n}"
);
}
);
width = 282;
}
);
leftKerningGroup = period;
rightKerningGroup = period;
unicode = 002E;
},
{
glyphname = colon;
lastChange = "2017-11-12 23:05:18 +0000";
layers = (
{
layerId = "F1BADE0A-D307-4A55-B1D9-DEBA981FCD10";
paths = (
{
closed = 1;
nodes = (
"115 344 LINE",
"115 424 LINE",
"75 424 LINE",
"75 344 LINE {\nname = hr00;\n}"
);
},
{
closed = 1;
nodes = (
"115 0 LINE",
"115 80 LINE",
"75 80 LINE",
"75 0 LINE"
);
}
);
width = 191;
},
{
layerId = "D02A7F20-5372-446E-84B7-8F4B885083B2";
paths = (
{
closed = 1;
nodes = (
"200 289 LINE",
"200 455 LINE",
"56 455 LINE",
"56 289 LINE {\nname = hr00;\n}"
);
},
{
closed = 1;
nodes = (
"200 0 LINE",
"200 166 LINE",
"56 166 LINE",
"56 0 LINE"
);
}
);
width = 256;
},
{
components = (
{
name = period;
transform = "{1, 0, 0, 1, 3, 0}";
},
{
name = period;
transform = "{1, 0, 0, 1, 3, 265}";
}
);
layerId = "2D07D9D6-DD7A-4EF1-82E8-8B18836F0AAC";
width = 288;
}
);
leftKerningGroup = colon;
rightKerningGroup = colon;
unicode = 003A;
},
{
glyphname = semicolon;
lastChange = "2017-11-12 23:05:18 +0000";
layers = (
{
layerId = "F1BADE0A-D307-4A55-B1D9-DEBA981FCD10";
paths = (
{
closed = 1;
nodes = (
"93 -123 LINE",
"145 87 LINE",
"103 87 LINE {\nname = hr00;\n}",
"62 -123 LINE"
);
},
{
closed = 1;
nodes = (
"140 344 LINE",
"140 424 LINE",
"100 424 LINE",
"100 344 LINE"
);
}
);
width = 228;
},
{
layerId = "D02A7F20-5372-446E-84B7-8F4B885083B2";
paths = (
{
closed = 1;
nodes = (
"135 -123 LINE",
"225 137 LINE",
"77 137 LINE {\nname = hr00;\n}",
"27 -123 LINE"
);
},
{
closed = 1;
nodes = (
"213 289 LINE",
"213 455 LINE",
"69 455 LINE",
"69 289 LINE"
);
}
);
width = 279;
},
{
components = (
{
name = comma;
},
{
name = period;
transform = "{1, 0, 0, 1, 11, 265}";
}
);
layerId = "2D07D9D6-DD7A-4EF1-82E8-8B18836F0AAC";
width = 294;
}
);
leftKerningGroup = colon;
rightKerningGroup = colon;
unicode = 003B;
},
{
glyphname = equal;
lastChange = "2017-11-12 23:05:21 +0000";
layers = (
{
layerId = "F1BADE0A-D307-4A55-B1D9-DEBA981FCD10";
paths = (
{
closed = 1;
nodes = (
"492 318 LINE",
"492 352 LINE",
"68 352 LINE",
"68 318 LINE {\nname = hr00;\n}"
);
},
{
closed = 1;
nodes = (
"492 149 LINE",
"492 183 LINE",
"68 183 LINE",
"68 149 LINE"
);
}
);
width = 560;
},
{
layerId = "D02A7F20-5372-446E-84B7-8F4B885083B2";
paths = (
{
closed = 1;
nodes = (
"502 295 LINE",
"502 416 LINE",
"58 416 LINE",
"58 295 LINE {\nname = hr00;\n}"
);
},
{
closed = 1;
nodes = (
"502 87 LINE",
"502 208 LINE",
"58 208 LINE",
"58 87 LINE"
);
}
);
width = 560;
},
{
layerId = "2D07D9D6-DD7A-4EF1-82E8-8B18836F0AAC";
paths = (
{
closed = 1;
nodes = (
"491 282 LINE",
"491 452 LINE",
"59 452 LINE",
"59 282 LINE {\nname = hr00;\n}"
);
},
{
closed = 1;
nodes = (
"491 57 LINE",
"491 227 LINE",
"59 227 LINE",
"59 57 LINE"
);
}
);
width = 550;
}
);
unicode = 003D;
},
{
glyphname = question;
lastChange = "2017-11-12 23:05:21 +0000";
layers = (
{
layerId = "F1BADE0A-D307-4A55-B1D9-DEBA981FCD10";
paths = (
{
closed = 1;
nodes = (
"208 190 LINE",
"208 228 LINE",
"208 284 OFFCURVE",
"255 324 OFFCURVE",
"306 369 CURVE SMOOTH",
"390 443 OFFCURVE",
"407 469 OFFCURVE",
"407 551 CURVE SMOOTH {\nname = hr00;\n}",
"407 668 OFFCURVE",
"334 709 OFFCURVE",
"207 709 CURVE SMOOTH",
"153 709 OFFCURVE",
"41 682 OFFCURVE",
"41 682 CURVE",
"46 648 LINE",
"46 648 OFFCURVE",
"159 676 OFFCURVE",
"207 676 CURVE SMOOTH",
"313 676 OFFCURVE",
"372 647 OFFCURVE",
"372 551 CURVE SMOOTH",
"372 482 OFFCURVE",
"351 455 OFFCURVE",
"280 391 CURVE SMOOTH",
"228 344 OFFCURVE",
"173 296 OFFCURVE",
"173 231 CURVE SMOOTH",
"173 212 OFFCURVE",
"174 190 OFFCURVE",
"174 190 CURVE"
);
},
{
closed = 1;
nodes = (
"211 1 LINE",
"211 81 LINE",
"171 81 LINE",
"171 1 LINE"
);
}
);
width = 453;
},
{
layerId = "D02A7F20-5372-446E-84B7-8F4B885083B2";
paths = (
{
closed = 1;
nodes = (
"248 217 LINE",
"248 248 LINE",
"248 276 OFFCURVE",
"252 295 OFFCURVE",
"323 349 CURVE SMOOTH",
"392 401 OFFCURVE",
"405 437 OFFCURVE",
"405 528 CURVE SMOOTH {\nname = hr00;\n}",
"405 643 OFFCURVE",
"344 692 OFFCURVE",
"200 692 CURVE SMOOTH",
"116 692 OFFCURVE",
"30 657 OFFCURVE",
"30 657 CURVE",
"37 556 LINE",
"37 556 OFFCURVE",
"114 572 OFFCURVE",
"181 572 CURVE SMOOTH",
"248 572 OFFCURVE",
"266 547 OFFCURVE",
"266 513 CURVE SMOOTH",
"266 476 OFFCURVE",
"256 461 OFFCURVE",
"182 402 CURVE SMOOTH",
"129 359 OFFCURVE",
"110 334 OFFCURVE",
"110 308 CURVE SMOOTH",
"110 251 OFFCURVE",
"141 217 OFFCURVE",
"141 217 CURVE"
);
},
{
closed = 1;
nodes = (
"263 0 LINE",
"263 161 LINE",
"119 161 LINE",
"119 0 LINE"
);
}
);
width = 437;
},
{
layerId = "2D07D9D6-DD7A-4EF1-82E8-8B18836F0AAC";
paths = (
{
closed = 1;
nodes = (
"288 217 LINE",
"289 236 LINE SMOOTH",
"290 253 OFFCURVE",
"307 274 OFFCURVE",
"368 317 CURVE SMOOTH",
"432 362 OFFCURVE",
"456 392 OFFCURVE",
"456 496 CURVE SMOOTH {\nname = hr00;\n}",
"456 648 OFFCURVE",
"389 703 OFFCURVE",
"232 703 CURVE SMOOTH",
"130 703 OFFCURVE",
"17 666 OFFCURVE",
"17 666 CURVE",
"24 509 LINE",
"24 509 OFFCURVE",
"100 523 OFFCURVE",
"167 523 CURVE SMOOTH",
"214 523 OFFCURVE",
"230 512 OFFCURVE",
"230 488 CURVE SMOOTH",
"230 460 OFFCURVE",
"223 453 OFFCURVE",
"177 419 CURVE SMOOTH",
"105 366 OFFCURVE",
"90 344 OFFCURVE",
"90 296 CURVE SMOOTH",
"90 248 OFFCURVE",
"113 217 OFFCURVE",
"113 217 CURVE"
);
},
{
closed = 1;
nodes = (
"316 0 LINE",
"316 180 LINE",
"88 180 LINE",
"88 0 LINE"
);
}
);
width = 473;
}
);
unicode = 003F;
},
{
glyphname = underscore;
lastChange = "2017-11-12 23:05:21 +0000";
layers = (
{
layerId = "F1BADE0A-D307-4A55-B1D9-DEBA981FCD10";
paths = (
{
closed = 1;
nodes = (
"534 -138 LINE",
"534 -104 LINE",
"106 -104 LINE {\nname = hr00;\n}",
"106 -138 LINE"
);
}
);
width = 640;
},
{
layerId = "D02A7F20-5372-446E-84B7-8F4B885083B2";
paths = (
{
closed = 1;
nodes = (
"524 -187 LINE",
"524 -73 LINE",
"96 -73 LINE {\nname = hr00;\n}",
"96 -187 LINE"
);
}
);
width = 620;
},
{
layerId = "2D07D9D6-DD7A-4EF1-82E8-8B18836F0AAC";
paths = (
{
closed = 1;
nodes = (
"560 -185 LINE",
"560 -185 OFFCURVE",
"560 -58 OFFCURVE",
"560 -58 CURVE",
"40 -58 LINE",
"40 -185 LINE {\nname = hr00;\n}"
);
}
);
width = 600;
}
);
unicode = 005F;
},
{
glyphname = braceleft;
lastChange = "2017-11-12 23:05:21 +0000";
layers = (
{
layerId = "F1BADE0A-D307-4A55-B1D9-DEBA981FCD10";
paths = (
{
closed = 1;
nodes = (
"304 -92 LINE",
"190 -87 OFFCURVE",
"161 -35 OFFCURVE",
"161 53 CURVE",
"161 92 OFFCURVE",
"166 130 OFFCURVE",
"168 169 CURVE {\nname = hr00;\n}",
"168 253 OFFCURVE",
"141 287 OFFCURVE",
"68 311 CURVE",
"141 335 OFFCURVE",
"168 367 OFFCURVE",
"168 455 CURVE SMOOTH",
"168 484 OFFCURVE",
"161 541 OFFCURVE",
"161 574 CURVE SMOOTH",
"161 664 OFFCURVE",
"190 714 OFFCURVE",
"304 719 CURVE",
"302 751 LINE",
"174 746 OFFCURVE",
"126 693 OFFCURVE",
"126 574 CURVE SMOOTH",
"126 537 OFFCURVE",
"133 474 OFFCURVE",
"133 446 CURVE SMOOTH",
"133 381 OFFCURVE",
"106 345 OFFCURVE",
"29 326 CURVE",
"29 294 LINE",
"105 272 OFFCURVE",
"133 240 OFFCURVE",
"133 176 CURVE SMOOTH",
"133 151 OFFCURVE",
"126 92 OFFCURVE",
"126 53 CURVE SMOOTH",
"126 -66 OFFCURVE",
"174 -119 OFFCURVE",
"302 -124 CURVE"
);
}
);
width = 346;
},
{
layerId = "D02A7F20-5372-446E-84B7-8F4B885083B2";
paths = (
{
closed = 1;
nodes = (
"323 -20 LINE",
"262 -15 OFFCURVE",
"252 15 OFFCURVE",
"252 55 CURVE",
"252 88 OFFCURVE",
"259 143 OFFCURVE",
"259 172 CURVE {\nname = hr00;\n}",
"259 252 OFFCURVE",
"244 290 OFFCURVE",
"146 314 CURVE",
"244 338 OFFCURVE",
"258 368 OFFCURVE",
"258 448 CURVE SMOOTH",
"258 477 OFFCURVE",
"251 543 OFFCURVE",
"251 576 CURVE SMOOTH",
"251 616 OFFCURVE",
"264 642 OFFCURVE",
"325 647 CURVE",
"325 761 LINE",
"177 756 OFFCURVE",
"121 715 OFFCURVE",
"121 586 CURVE SMOOTH",
"121 549 OFFCURVE",
"128 487 OFFCURVE",
"128 459 CURVE SMOOTH",
"128 413 OFFCURVE",
"93 383 OFFCURVE",
"16 365 CURVE",
"16 261 LINE",
"92 241 OFFCURVE",
"128 205 OFFCURVE",
"128 159 CURVE SMOOTH",
"128 134 OFFCURVE",
"121 77 OFFCURVE",
"121 38 CURVE SMOOTH",
"121 -81 OFFCURVE",
"175 -129 OFFCURVE",
"323 -134 CURVE"
);
}
);
width = 361;
},
{
layerId = "2D07D9D6-DD7A-4EF1-82E8-8B18836F0AAC";
paths = (
{
closed = 1;
nodes = (
"344 46 LINE",
"283 51 OFFCURVE",
"273 63 OFFCURVE",
"273 113 CURVE SMOOTH",
"273 146 OFFCURVE",
"276 181 OFFCURVE",
"276 211 CURVE SMOOTH {\nname = hr00;\n}",
"276 270 OFFCURVE",
"263 297 OFFCURVE",
"220 321 CURVE",
"263 345 OFFCURVE",
"276 367 OFFCURVE",
"276 437 CURVE SMOOTH",
"276 466 OFFCURVE",
"273 485 OFFCURVE",
"273 518 CURVE SMOOTH",
"273 568 OFFCURVE",
"283 576 OFFCURVE",
"344 581 CURVE",
"344 761 LINE",
"166 761 OFFCURVE",
"46 748 OFFCURVE",
"46 586 CURVE SMOOTH",
"46 549 OFFCURVE",
"59 461 OFFCURVE",
"59 433 CURVE SMOOTH",
"59 417 OFFCURVE",
"44 404 OFFCURVE",
"15 399 CURVE",
"15 230 LINE",
"44 224 OFFCURVE",
"59 210 OFFCURVE",
"59 190 CURVE SMOOTH",
"59 165 OFFCURVE",
"46 77 OFFCURVE",
"46 38 CURVE SMOOTH",
"46 -117 OFFCURVE",
"164 -134 OFFCURVE",
"344 -134 CURVE"
);
}
);
width = 361;
}
);
unicode = 007B;
},
{
glyphname = cent;
lastChange = "2017-11-12 23:05:21 +0000";
layers = (
{
layerId = "F1BADE0A-D307-4A55-B1D9-DEBA981FCD10";
paths = (
{
closed = 1;
nodes = (
"319 -85 LINE",
"319 41 LINE",
"362 42 OFFCURVE",
"436 50 OFFCURVE",
"436 50 CURVE",
"434 85 LINE",
"434 85 OFFCURVE",
"362 77 OFFCURVE",
"304 77 CURVE SMOOTH",
"181 77 OFFCURVE",
"149 115 OFFCURVE",
"149 247 CURVE SMOOTH",
"149 376 OFFCURVE",
"186 425 OFFCURVE",
"294 425 CURVE SMOOTH",
"352 425 OFFCURVE",
"432 415 OFFCURVE",
"432 415 CURVE",
"434 448 LINE",
"434 448 OFFCURVE",
"363 460 OFFCURVE",
"318 460 CURVE",
"318 591 LINE",
"283 591 LINE",
"283 461 LINE",
"161 457 OFFCURVE",
"109 397 OFFCURVE",
"109 247 CURVE SMOOTH",
"109 84 OFFCURVE",
"161 45 OFFCURVE",
"284 41 CURVE",
"284 -85 LINE {\nname = hr00;\n}"
);
}
);
width = 560;
},
{
layerId = "D02A7F20-5372-446E-84B7-8F4B885083B2";
paths = (
{
closed = 1;
nodes = (
"380 -75 LINE",
"380 34 LINE",
"420 37 OFFCURVE",
"459 47 OFFCURVE",
"459 47 CURVE",
"455 147 LINE",
"455 147 OFFCURVE",
"377 143 OFFCURVE",
"339 143 CURVE SMOOTH",
"253 143 OFFCURVE",
"224 175 OFFCURVE",
"224 250 CURVE SMOOTH",
"224 325 OFFCURVE",
"253 356 OFFCURVE",
"338 356 CURVE SMOOTH",
"376 356 OFFCURVE",
"455 353 OFFCURVE",
"455 353 CURVE",
"459 453 LINE",
"459 453 OFFCURVE",
"421 462 OFFCURVE",
"380 466 CURVE",
"380 571 LINE",
"270 571 LINE",
"270 470 LINE",
"158 461 OFFCURVE",
"88 395 OFFCURVE",
"88 250 CURVE SMOOTH",
"88 103 OFFCURVE",
"156 37 OFFCURVE",
"270 29 CURVE",
"270 -75 LINE {\nname = hr00;\n}"
);
}
);
width = 560;
},
{
layerId = "2D07D9D6-DD7A-4EF1-82E8-8B18836F0AAC";
paths = (
{
closed = 1;
nodes = (
"398 42 OFFCURVE",
"502 64 OFFCURVE",
"502 64 CURVE",
"496 212 LINE",
"496 212 OFFCURVE",
"392 208 OFFCURVE",
"311 208 CURVE SMOOTH",
"274 208 OFFCURVE",
"263 222 OFFCURVE",
"263 254 CURVE",
"263 286 OFFCURVE",
"275 300 OFFCURVE",
"311 300 CURVE SMOOTH",
"392 300 OFFCURVE",
"494 296 OFFCURVE",
"494 296 CURVE",
"500 446 LINE",
"500 446 OFFCURVE",
"389 466 OFFCURVE",
"264 466 CURVE SMOOTH {\nname = hr01;\n}",
"113 466 OFFCURVE",
"41 418 OFFCURVE",
"41 254 CURVE",
"41 102 OFFCURVE",
"97 42 OFFCURVE",
"264 42 CURVE"
);
},
{
closed = 1;
nodes = (
"308 -86 LINE",
"308 151 LINE",
"248 151 LINE",
"248 -86 LINE {\nname = hr00;\n}"
);
},
{
closed = 1;
nodes = (
"308 404 LINE",
"308 591 LINE",
"248 591 LINE",
"248 404 LINE"
);
}
);
width = 550;
}
);
unicode = 00A2;
},
{
glyphname = divide;
lastChange = "2017-11-12 23:05:21 +0000";
layers = (
{
layerId = "F1BADE0A-D307-4A55-B1D9-DEBA981FCD10";
paths = (
{
closed = 1;
nodes = (
"502 234 LINE",
"502 268 LINE",
"58 268 LINE",
"58 234 LINE {\nname = hr00;\n}"
);
},
{
closed = 1;
nodes = (
"299 39 LINE",
"299 119 LINE",
"261 119 LINE",
"261 39 LINE"
);
},
{
closed = 1;
nodes = (
"299 383 LINE",
"299 463 LINE",
"261 463 LINE",
"261 383 LINE"
);
}
);
width = 560;
},
{
layerId = "D02A7F20-5372-446E-84B7-8F4B885083B2";
paths = (
{
closed = 1;
nodes = (
"510 191 LINE",
"510 311 LINE",
"50 311 LINE",
"50 191 LINE"
);
},
{
closed = 1;
nodes = (
"345 17 LINE",
"345 149 LINE",
"213 149 LINE",
"213 17 LINE"
);
},
{
closed = 1;
nodes = (
"345 352 LINE",
"345 484 LINE",
"213 484 LINE",
"213 352 LINE {\nname = hr00;\n}"
);
}
);
width = 560;
},
{
layerId = "2D07D9D6-DD7A-4EF1-82E8-8B18836F0AAC";
paths = (
{
closed = 1;
nodes = (
"507 170 LINE",
"507 340 LINE",
"43 340 LINE {\nname = hr00;\n}",
"43 170 LINE"
);
},
{
closed = 1;
nodes = (
"375 10 LINE",
"375 150 LINE",
"175 150 LINE",
"175 10 LINE"
);
},
{
closed = 1;
nodes = (
"375 360 LINE",
"375 500 LINE",
"175 500 LINE",
"175 360 LINE"
);
}
);
width = 550;
}
);
unicode = 00F7;
},
{
glyphname = Euro;
lastChange = "2017-11-12 23:05:18 +0000";
layers = (
{
components = (
{
name = C;
transform = "{0.944, 0, 0, 0.944, 32, 0}";
}
);
layerId = "F1BADE0A-D307-4A55-B1D9-DEBA981FCD10";
paths = (
{
closed = 1;
nodes = (
"454 393 LINE",
"454 427 LINE",
"32 427 LINE",
"32 393 LINE {\nname = hr01;\n}"
);
},
{
closed = 1;
nodes = (
"454 245 LINE",
"454 279 LINE",
"32 279 LINE",
"32 245 LINE {\nname = hr02;\n}"
);
}
);
width = 560;
},
{
components = (
{
name = C;
transform = "{0.971, 0, 0, 0.971, 35, 0}";
}
);
layerId = "D02A7F20-5372-446E-84B7-8F4B885083B2";
paths = (
{
closed = 1;
nodes = (
"462 355 LINE",
"462 457 LINE",
"26 457 LINE",
"26 355 LINE {\nname = hr01;\n}"
);
},
{
closed = 1;
nodes = (
"462 187 LINE",
"462 289 LINE",
"26 289 LINE",
"26 187 LINE {\nname = hr02;\n}"
);
}
);
width = 560;
},
{
components = (
{
name = endash;
transform = "{0.96, 0, 0, 0.3, -28, 321}";
},
{
name = endash;
transform = "{0.96, 0, 0, 0.3, -28, 199}";
},
{
name = C;
transform = "{0.97992, 0, 0, 0.98132, 22, 0}";
}
);
layerId = "2D07D9D6-DD7A-4EF1-82E8-8B18836F0AAC";
width = 550;
}
);
unicode = 20AC;
userData = {
com.typemytype.robofont.guides = (
{
angle = 0;
isGlobal = 0;
magnetic = 5;
x = 0;
y = 660;
},
{
angle = 0;
isGlobal = 0;
magnetic = 5;
x = 0;
y = -11;
},
{
angle = 0;
isGlobal = 0;
magnetic = 5;
x = 0;
y = 671;
}
);
};
},
{
glyphname = Oslash;
lastChange = "2017-11-12 23:05:21 +0000";
layers = (
{
components = (
{
name = O;
}
);
layerId = "F1BADE0A-D307-4A55-B1D9-DEBA981FCD10";
paths = (
{
closed = 1;
nodes = (
"558 780 LINE",
"528 792 LINE",
"111 -98 LINE",
"141 -109 LINE"
);
}
);
width = 666;
},
{
components = (
{
name = O;
}
);
layerId = "D02A7F20-5372-446E-84B7-8F4B885083B2";
paths = (
{
closed = 1;
nodes = (
"588 767 LINE",
"488 810 LINE",
"74 -78 LINE",
"172 -127 LINE"
);
}
);
width = 652;
},
{
components = (
{
name = O;
}
);
layerId = "2D07D9D6-DD7A-4EF1-82E8-8B18836F0AAC";
paths = (
{
closed = 1;
nodes = (
"300 -54 OFFCURVE",
"359 92 OFFCURVE",
"359 92 CURVE",
"359 92 OFFCURVE",
"131 105 OFFCURVE",
"131 105 CURVE",
"131 105 OFFCURVE",
"82 -11 OFFCURVE",
"83 -10 CURVE",
"84 -9 OFFCURVE",
"300 -54 OFFCURVE",
"300 -54 CURVE"
);
},
{
closed = 1;
nodes = (
"324 585 OFFCURVE",
"560 586 OFFCURVE",
"560 586 CURVE",
"560 586 OFFCURVE",
"598 680 OFFCURVE",
"598 680 CURVE",
"598 680 OFFCURVE",
"381 723 OFFCURVE",
"381 724 CURVE",
"381 725 OFFCURVE",
"324 585 OFFCURVE",
"324 585 CURVE"
);
}
);
width = 670;
}
);
leftKerningGroup = O;
rightKerningGroup = O;
unicode = 00D8;
},
{
glyphname = ampersand;
lastChange = "2017-11-12 23:05:21 +0000";
layers = (
{
layerId = "F1BADE0A-D307-4A55-B1D9-DEBA981FCD10";
paths = (
{
closed = 1;
nodes = (
"379 -9 OFFCURVE",
"452 29 OFFCURVE",
"499 123 CURVE",
"630 -7 LINE",
"654 19 LINE",
"514 156 LINE",
"532 202 OFFCURVE",
"551 298 OFFCURVE",
"557 367 CURVE",
"522 367 LINE",
"518 310 OFFCURVE",
"501 222 OFFCURVE",
"487 182 CURVE",
"300 367 LINE",
"415 405 OFFCURVE",
"465 450 OFFCURVE",
"465 549 CURVE SMOOTH",
"465 634 OFFCURVE",
"421 694 OFFCURVE",
"312 694 CURVE SMOOTH {\nname = hr00;\n}",
"209 694 OFFCURVE",
"159 634 OFFCURVE",
"159 550 CURVE SMOOTH",
"159 497 OFFCURVE",
"163 460 OFFCURVE",
"210 409 CURVE",
"99 377 OFFCURVE",
"47 332 OFFCURVE",
"47 208 CURVE SMOOTH",
"47 74 OFFCURVE",
"101 -9 OFFCURVE",
"277 -9 CURVE SMOOTH"
);
},
{
closed = 1;
nodes = (
"134 24 OFFCURVE",
"82 90 OFFCURVE",
"82 209 CURVE SMOOTH",
"82 314 OFFCURVE",
"123 353 OFFCURVE",
"236 383 CURVE",
"473 148 LINE",
"433 61 OFFCURVE",
"369 24 OFFCURVE",
"279 24 CURVE SMOOTH"
);
},
{
closed = 1;
nodes = (
"239 427 LINE",
"200 466 OFFCURVE",
"194 509 OFFCURVE",
"194 550 CURVE SMOOTH",
"194 624 OFFCURVE",
"235 662 OFFCURVE",
"312 662 CURVE SMOOTH",
"398 662 OFFCURVE",
"430 619 OFFCURVE",
"430 550 CURVE SMOOTH",
"430 463 OFFCURVE",
"387 429 OFFCURVE",
"275 391 CURVE"
);
}
);
width = 680;
},
{
layerId = "D02A7F20-5372-446E-84B7-8F4B885083B2";
paths = (
{
closed = 1;
nodes = (
"389 -12 OFFCURVE",
"465 26 OFFCURVE",
"509 75 CURVE",
"615 -12 LINE",
"691 75 LINE",
"579 173 LINE",
"599 221 OFFCURVE",
"621 305 OFFCURVE",
"630 376 CURVE",
"500 379 LINE",
"499 344 OFFCURVE",
"489 272 OFFCURVE",
"481 251 CURVE",
"383 349 LINE",
"481 417 OFFCURVE",
"520 460 OFFCURVE",
"520 550 CURVE SMOOTH",
"520 655 OFFCURVE",
"447 712 OFFCURVE",
"316 712 CURVE SMOOTH {\nname = hr00;\n}",
"193 712 OFFCURVE",
"111 655 OFFCURVE",
"111 561 CURVE SMOOTH",
"111 494 OFFCURVE",
"122 466 OFFCURVE",
"177 399 CURVE",
"81 361 OFFCURVE",
"35 307 OFFCURVE",
"35 196 CURVE SMOOTH",
"35 66 OFFCURVE",
"100 -12 OFFCURVE",
"304 -12 CURVE SMOOTH"
);
},
{
closed = 1;
nodes = (
"208 108 OFFCURVE",
"171 141 OFFCURVE",
"171 207 CURVE SMOOTH",
"171 262 OFFCURVE",
"198 298 OFFCURVE",
"245 321 CURVE",
"418 148 LINE",
"397 124 OFFCURVE",
"339 108 OFFCURVE",
"287 108 CURVE SMOOTH"
);
},
{
closed = 1;
nodes = (
"292 443 LINE",
"262 475 OFFCURVE",
"247 499 OFFCURVE",
"247 531 CURVE SMOOTH",
"247 578 OFFCURVE",
"274 598 OFFCURVE",
"316 598 CURVE SMOOTH",
"360 598 OFFCURVE",
"384 581 OFFCURVE",
"384 535 CURVE SMOOTH",
"384 489 OFFCURVE",
"361 463 OFFCURVE",
"309 425 CURVE"
);
}
);
width = 701;
},
{
layerId = "2D07D9D6-DD7A-4EF1-82E8-8B18836F0AAC";
paths = (
{
closed = 1;
nodes = (
"556 -13 OFFCURVE",
"645 122 OFFCURVE",
"697 324 CURVE",
"515 331 LINE",
"488 232 OFFCURVE",
"384 168 OFFCURVE",
"308 168 CURVE SMOOTH",
"258 168 OFFCURVE",
"232 190 OFFCURVE",
"232 229 CURVE SMOOTH",
"232 277 OFFCURVE",
"252 298 OFFCURVE",
"291 308 CURVE",
"377 328 LINE",
"566 368 OFFCURVE",
"585 399 OFFCURVE",
"585 502 CURVE SMOOTH",
"585 646 OFFCURVE",
"476 683 OFFCURVE",
"337 683 CURVE SMOOTH {\nname = hr00;\n}",
"157 683 OFFCURVE",
"87 614 OFFCURVE",
"87 500 CURVE SMOOTH",
"87 412 OFFCURVE",
"99 382 OFFCURVE",
"166 321 CURVE",
"473 63 LINE",
"658 -13 LINE",
"658 -13 OFFCURVE",
"704 112 OFFCURVE",
"704 112 CURVE",
"332 438 LINE",
"312 457 OFFCURVE",
"304 473 OFFCURVE",
"304 498 CURVE SMOOTH",
"304 528 OFFCURVE",
"313 543 OFFCURVE",
"335 543 CURVE SMOOTH",
"355 543 OFFCURVE",
"365 532 OFFCURVE",
"365 498 CURVE SMOOTH",
"365 461 OFFCURVE",
"321 434 OFFCURVE",
"321 434 CURVE",
"291 418 LINE",
"275 420 OFFCURVE",
"265 414 OFFCURVE",
"241 411 CURVE",
"237 411 LINE",
"100 382 OFFCURVE",
"6 355 OFFCURVE",
"6 190 CURVE SMOOTH",
"6 34 OFFCURVE",
"91 -13 OFFCURVE",
"287 -13 CURVE SMOOTH"
);
}
);
width = 702;
}
);
unicode = 0026;
},
{
glyphname = asterisk;
lastChange = "2017-11-12 23:05:21 +0000";
layers = (
{
layerId = "F1BADE0A-D307-4A55-B1D9-DEBA981FCD10";
paths = (
{
closed = 1;
nodes = (
"267 390 LINE",
"225 519 LINE",
"362 519 LINE {\nname = hr00;\n}",
"362 553 LINE",
"227 553 LINE",
"269 683 LINE",
"237 693 LINE",
"195 564 LINE",
"85 645 LINE",
"65 618 LINE",
"174 538 LINE",
"64 458 LINE",
"83 431 LINE",
"193 510 LINE",
"235 380 LINE"
);
}
);
width = 417;
},
{
layerId = "D02A7F20-5372-446E-84B7-8F4B885083B2";
paths = (
{
closed = 1;
nodes = (
"304 379 LINE",
"266 499 LINE",
"389 499 LINE {\nname = hr00;\n}",
"389 573 LINE",
"266 573 LINE",
"304 695 LINE",
"229 720 LINE",
"190 599 LINE",
"89 672 LINE",
"43 609 LINE",
"145 536 LINE",
"40 458 LINE",
"87 399 LINE",
"190 478 LINE",
"231 357 LINE"
);
}
);
width = 425;
},
{
layerId = "2D07D9D6-DD7A-4EF1-82E8-8B18836F0AAC";
paths = (
{
closed = 1;
nodes = (
"200 610 LINE",
"97 696 LINE",
"19 588 LINE",
"133 517 LINE"
);
},
{
closed = 1;
nodes = (
"201 459 LINE",
"134 552 LINE",
"20 480 LINE",
"98 373 LINE"
);
},
{
closed = 1;
nodes = (
"327 381 LINE",
"277 506 LINE",
"168 471 LINE",
"202 340 LINE"
);
},
{
closed = 1;
nodes = (
"278 467 LINE",
"278 610 LINE",
"136 610 LINE",
"136 467 LINE"
);
},
{
closed = 1;
nodes = (
"390 603 LINE",
"257 593 LINE",
"257 479 LINE",
"390 469 LINE"
);
},
{
closed = 1;
nodes = (
"326 689 LINE",
"199 730 LINE",
"167 600 LINE",
"276 565 LINE"
);
}
);
width = 415;
}
);
unicode = 002A;
},
{
glyphname = sterling;
lastChange = "2017-11-12 23:05:21 +0000";
layers = (
{
layerId = "F1BADE0A-D307-4A55-B1D9-DEBA981FCD10";
paths = (
{
closed = 1;
nodes = (
"391 0 LINE",
"473 18 LINE",
"466 50 LINE",
"384 34 LINE",
"210 34 LINE",
"210 374 LINE",
"392 374 LINE",
"392 406 LINE",
"210 406 LINE",
"210 454 LINE SMOOTH",
"210 603 OFFCURVE",
"230 637 OFFCURVE",
"312 637 CURVE SMOOTH",
"345 637 OFFCURVE",
"432 625 OFFCURVE",
"432 625 CURVE {\nname = hr00;\n}",
"432 657 LINE",
"432 657 OFFCURVE",
"350 669 OFFCURVE",
"312 669 CURVE SMOOTH",
"211 669 OFFCURVE",
"175 631 OFFCURVE",
"175 458 CURVE",
"175 406 LINE",
"106 406 LINE",
"106 374 LINE",
"175 374 LINE",
"175 34 LINE",
"83 34 LINE",
"83 0 LINE"
);
}
);
width = 560;
},
{
layerId = "D02A7F20-5372-446E-84B7-8F4B885083B2";
paths = (
{
closed = 1;
nodes = (
"414 0 LINE",
"495 18 LINE",
"474 130 LINE",
"405 114 LINE",
"281 114 LINE",
"281 319 LINE",
"434 319 LINE",
"434 433 LINE",
"281 433 LINE",
"281 486 LINE SMOOTH",
"281 531 OFFCURVE",
"297 551 OFFCURVE",
"333 551 CURVE SMOOTH",
"396 551 OFFCURVE",
"464 543 OFFCURVE",
"464 543 CURVE {\nname = hr00;\n}",
"468 647 LINE",
"468 647 OFFCURVE",
"390 671 OFFCURVE",
"315 671 CURVE SMOOTH",
"208 671 OFFCURVE",
"149 638 OFFCURVE",
"149 492 CURVE",
"149 433 LINE",
"85 433 LINE",
"85 319 LINE",
"149 319 LINE",
"149 114 LINE",
"75 114 LINE",
"75 0 LINE"
);
}
);
width = 560;
},
{
layerId = "2D07D9D6-DD7A-4EF1-82E8-8B18836F0AAC";
paths = (
{
closed = 1;
nodes = (
"404 0 LINE",
"525 16 LINE",
"507 198 LINE",
"389 183 LINE",
"296 183 LINE",
"296 326 LINE",
"433 326 LINE",
"433 386 LINE",
"296 386 LINE",
"296 414 LINE SMOOTH",
"296 467 OFFCURVE",
"311 487 OFFCURVE",
"391 487 CURVE SMOOTH",
"420 487 OFFCURVE",
"491 483 OFFCURVE",
"491 483 CURVE",
"497 649 LINE",
"497 649 OFFCURVE",
"399 670 OFFCURVE",
"321 670 CURVE SMOOTH",
"158 670 OFFCURVE",
"95 627 OFFCURVE",
"95 427 CURVE SMOOTH",
"95 386 LINE",
"33 386 LINE",
"33 326 LINE",
"95 326 LINE",
"95 183 LINE {\nname = hr00;\n}",
"33 183 LINE",
"33 0 LINE"
);
}
);
width = 550;
}
);
unicode = 00A3;
},
{
glyphname = paragraph;
lastChange = "2017-11-12 23:05:21 +0000";
layers = (
{
layerId = "F1BADE0A-D307-4A55-B1D9-DEBA981FCD10";
paths = (
{
closed = 1;
nodes = (
"269 0 LINE",
"269 667 LINE",
"421 667 LINE",
"421 0 LINE {\nname = hr00;\n}",
"457 0 LINE",
"457 667 LINE",
"554 667 LINE",
"554 700 LINE",
"226 700 LINE",
"123 700 OFFCURVE",
"40 629 OFFCURVE",
"40 524 CURVE SMOOTH",
"40 419 OFFCURVE",
"123 350 OFFCURVE",
"226 350 CURVE SMOOTH",
"233 350 LINE",
"233 0 LINE"
);
}
);
width = 589;
},
{
layerId = "D02A7F20-5372-446E-84B7-8F4B885083B2";
paths = (
{
closed = 1;
nodes = (
"335 0 LINE",
"335 566 LINE",
"397 566 LINE",
"397 0 LINE {\nname = hr00;\n}",
"511 0 LINE",
"511 566 LINE",
"547 566 LINE",
"547 680 LINE",
"216 680 LINE",
"103 680 OFFCURVE",
"28 597 OFFCURVE",
"28 482 CURVE SMOOTH",
"28 367 OFFCURVE",
"101 286 OFFCURVE",
"214 286 CURVE SMOOTH",
"221 286 LINE",
"221 0 LINE"
);
}
);
width = 599;
},
{
layerId = "2D07D9D6-DD7A-4EF1-82E8-8B18836F0AAC";
paths = (
{
closed = 1;
nodes = (
"487 0 LINE",
"487 511 LINE",
"557 511 LINE {\nname = hr00;\n}",
"557 700 LINE",
"254 700 LINE SMOOTH",
"121 700 OFFCURVE",
"16 589 OFFCURVE",
"16 454 CURVE SMOOTH",
"16 319 OFFCURVE",
"119 210 OFFCURVE",
"252 210 CURVE SMOOTH",
"259 210 LINE",
"259 0 LINE"
);
}
);
width = 578;
}
);
unicode = 00B6;
},
{
glyphname = dagger;
lastChange = "2017-11-12 23:05:21 +0000";
layers = (
{
layerId = "F1BADE0A-D307-4A55-B1D9-DEBA981FCD10";
paths = (
{
closed = 1;
nodes = (
"255 -79 LINE",
"256 466 LINE",
"439 466 LINE",
"439 500 LINE",
"256 500 LINE",
"256 700 LINE",
"221 700 LINE",
"221 500 LINE",
"38 500 LINE",
"38 466 LINE {\nname = hr00;\n}",
"221 466 LINE",
"222 -79 LINE"
);
}
);
width = 477;
},
{
layerId = "D02A7F20-5372-446E-84B7-8F4B885083B2";
paths = (
{
closed = 1;
nodes = (
"297 -71 LINE",
"307 386 LINE",
"452 386 LINE",
"452 500 LINE",
"307 500 LINE",
"307 680 LINE",
"173 680 LINE",
"173 500 LINE",
"28 500 LINE",
"28 386 LINE {\nname = hr00;\n}",
"173 386 LINE",
"183 -71 LINE"
);
}
);
width = 480;
},
{
layerId = "2D07D9D6-DD7A-4EF1-82E8-8B18836F0AAC";
paths = (
{
closed = 1;
nodes = (
"380 -195 LINE",
"380 294 LINE",
"517 294 LINE",
"517 492 LINE",
"380 492 LINE",
"380 670 LINE",
"154 670 LINE",
"154 492 LINE",
"17 492 LINE",
"17 294 LINE {\nname = hr00;\n}",
"154 294 LINE",
"154 -195 LINE"
);
}
);
width = 534;
}
);
unicode = 2020;
},
{
glyphname = percent;
lastChange = "2017-11-12 23:05:21 +0000";
layers = (
{
layerId = "F1BADE0A-D307-4A55-B1D9-DEBA981FCD10";
paths = (
{
closed = 1;
nodes = (
"392 660 LINE",
"360 669 LINE",
"175 -1 LINE",
"206 -9 LINE"
);
},
{
closed = 1;
nodes = (
"480 -9 OFFCURVE",
"523 33 OFFCURVE",
"523 129 CURVE SMOOTH",
"523 225 OFFCURVE",
"481 263 OFFCURVE",
"420 263 CURVE SMOOTH",
"358 263 OFFCURVE",
"317 225 OFFCURVE",
"317 130 CURVE SMOOTH",
"317 33 OFFCURVE",
"359 -9 OFFCURVE",
"420 -9 CURVE SMOOTH"
);
},
{
closed = 1;
nodes = (
"371 23 OFFCURVE",
"352 62 OFFCURVE",
"352 130 CURVE SMOOTH",
"352 197 OFFCURVE",
"371 231 OFFCURVE",
"420 231 CURVE SMOOTH",
"470 231 OFFCURVE",
"488 197 OFFCURVE",
"488 129 CURVE SMOOTH",
"488 61 OFFCURVE",
"470 23 OFFCURVE",
"420 23 CURVE SMOOTH"
);
},
{
closed = 1;
nodes = (
"201 397 OFFCURVE",
"244 439 OFFCURVE",
"244 535 CURVE SMOOTH",
"244 631 OFFCURVE",
"202 669 OFFCURVE",
"141 669 CURVE SMOOTH",
"79 669 OFFCURVE",
"38 631 OFFCURVE",
"38 536 CURVE SMOOTH",
"38 439 OFFCURVE",
"80 397 OFFCURVE",
"141 397 CURVE SMOOTH"
);
},
{
closed = 1;
nodes = (
"92 429 OFFCURVE",
"73 468 OFFCURVE",
"73 536 CURVE SMOOTH",
"73 603 OFFCURVE",
"92 637 OFFCURVE",
"141 637 CURVE SMOOTH",
"191 637 OFFCURVE",
"209 603 OFFCURVE",
"209 535 CURVE SMOOTH",
"209 467 OFFCURVE",
"191 429 OFFCURVE",
"141 429 CURVE SMOOTH"
);
}
);
width = 560;
},
{
layerId = "D02A7F20-5372-446E-84B7-8F4B885083B2";
paths = (
{
closed = 1;
nodes = (
"433 673 LINE",
"360 699 LINE",
"125 -8 LINE",
"198 -32 LINE"
);
},
{
closed = 1;
nodes = (
"503 -12 OFFCURVE",
"546 37 OFFCURVE",
"546 134 CURVE SMOOTH",
"546 231 OFFCURVE",
"503 279 OFFCURVE",
"426 279 CURVE SMOOTH",
"349 279 OFFCURVE",
"306 231 OFFCURVE",
"306 134 CURVE SMOOTH",
"306 37 OFFCURVE",
"349 -12 OFFCURVE",
"426 -12 CURVE SMOOTH"
);
},
{
closed = 1;
nodes = (
"408 68 OFFCURVE",
"404 88 OFFCURVE",
"404 134 CURVE SMOOTH",
"404 180 OFFCURVE",
"408 199 OFFCURVE",
"426 199 CURVE SMOOTH",
"444 199 OFFCURVE",
"448 180 OFFCURVE",
"448 134 CURVE SMOOTH",
"448 88 OFFCURVE",
"444 68 OFFCURVE",
"426 68 CURVE SMOOTH"
);
},
{
closed = 1;
nodes = (
"211 381 OFFCURVE",
"254 430 OFFCURVE",
"254 527 CURVE SMOOTH",
"254 624 OFFCURVE",
"211 672 OFFCURVE",
"134 672 CURVE SMOOTH",
"57 672 OFFCURVE",
"14 624 OFFCURVE",
"14 527 CURVE SMOOTH",
"14 430 OFFCURVE",
"57 381 OFFCURVE",
"134 381 CURVE SMOOTH"
);
},
{
closed = 1;
nodes = (
"116 461 OFFCURVE",
"112 481 OFFCURVE",
"112 527 CURVE SMOOTH",
"112 573 OFFCURVE",
"116 592 OFFCURVE",
"134 592 CURVE SMOOTH",
"152 592 OFFCURVE",
"156 573 OFFCURVE",
"156 527 CURVE SMOOTH",
"156 481 OFFCURVE",
"152 461 OFFCURVE",
"134 461 CURVE SMOOTH"
);
}
);
width = 560;
},
{
components = (
{
name = zerosuperior;
transform = "{0.9, 0, 0, 0.9, 4, 65}";
},
{
name = zerosuperior;
transform = "{0.9, 0, 0, 0.9, 348, -258}";
}
);
layerId = "2D07D9D6-DD7A-4EF1-82E8-8B18836F0AAC";
paths = (
{
closed = 1;
nodes = (
"430 692 LINE",
"386 701 LINE",
"228 -59 LINE {\nname = hr01;\n}",
"271 -67 LINE"
);
}
);
width = 666;
}
);
unicode = 0025;
},
{
glyphname = plus;
lastChange = "2017-11-12 23:05:21 +0000";
layers = (
{
layerId = "F1BADE0A-D307-4A55-B1D9-DEBA981FCD10";
paths = (
{
closed = 1;
nodes = (
"297 20 LINE",
"297 234 LINE",
"501 234 LINE {\nname = hr02;\n}",
"501 268 LINE",
"297 268 LINE {\nname = hr03;\n}",
"297 480 LINE",
"261 480 LINE",
"261 268 LINE",
"59 268 LINE {\nname = hr04;\n}",
"59 234 LINE {\nname = hr00;\n}",
"261 234 LINE {\nname = hr01;\n}",
"261 20 LINE"
);
}
);
width = 560;
},
{
layerId = "D02A7F20-5372-446E-84B7-8F4B885083B2";
paths = (
{
closed = 1;
nodes = (
"339 21 LINE",
"339 191 LINE",
"510 191 LINE {\nname = hr02;\n}",
"510 311 LINE",
"339 311 LINE {\nname = hr03;\n}",
"339 479 LINE",
"219 479 LINE",
"219 311 LINE",
"50 311 LINE {\nname = hr04;\n}",
"50 191 LINE",
"219 191 LINE {\nname = hr01;\n}",
"219 21 LINE"
);
}
);
width = 560;
},
{
layerId = "2D07D9D6-DD7A-4EF1-82E8-8B18836F0AAC";
paths = (
{
closed = 1;
nodes = (
"365 23 LINE",
"365 164 LINE",
"506 164 LINE",
"506 344 LINE",
"365 344 LINE",
"365 483 LINE",
"185 483 LINE",
"185 344 LINE",
"44 344 LINE",
"44 164 LINE {\nname = hr00;\n}",
"185 164 LINE",
"185 23 LINE"
);
}
);
width = 550;
}
);
unicode = 002B;
},
{
glyphname = asciicircum;
lastChange = "2017-11-12 23:05:21 +0000";
layers = (
{
layerId = "F1BADE0A-D307-4A55-B1D9-DEBA981FCD10";
paths = (
{
closed = 1;
nodes = (
"122 323 LINE",
"280 624 LINE",
"447 323 LINE",
"487 323 LINE",
"298 660 LINE",
"262 660 LINE",
"82 323 LINE"
);
}
);
width = 560;
},
{
layerId = "D02A7F20-5372-446E-84B7-8F4B885083B2";
paths = (
{
closed = 1;
nodes = (
"161 313 LINE",
"274 530 LINE",
"383 313 LINE",
"523 313 LINE",
"329 660 LINE",
"215 660 LINE",
"21 313 LINE"
);
}
);
width = 560;
},
{
layerId = "2D07D9D6-DD7A-4EF1-82E8-8B18836F0AAC";
paths = (
{
closed = 1;
nodes = (
"256 313 LINE",
"319 530 LINE",
"378 313 LINE",
"588 313 LINE",
"444 670 LINE",
"190 670 LINE",
"46 313 LINE"
);
}
);
width = 633;
}
);
unicode = 005E;
},
{
glyphname = zerosuperior;
lastChange = "2017-11-12 23:05:21 +0000";
layers = (
{
layerId = "F1BADE0A-D307-4A55-B1D9-DEBA981FCD10";
paths = (
{
closed = 1;
nodes = (
"206 469 OFFCURVE",
"251 510 OFFCURVE",
"251 635 CURVE SMOOTH",
"251 758 OFFCURVE",
"209 799 OFFCURVE",
"139 799 CURVE SMOOTH {\nname = hr00;\n}",
"72 799 OFFCURVE",
"28 759 OFFCURVE",
"28 636 CURVE SMOOTH",
"28 510 OFFCURVE",
"74 469 OFFCURVE",
"140 469 CURVE SMOOTH"
);
},
{
closed = 1;
nodes = (
"92 502 OFFCURVE",
"63 536 OFFCURVE",
"63 635 CURVE SMOOTH",
"63 727 OFFCURVE",
"88 766 OFFCURVE",
"139 766 CURVE SMOOTH",
"192 766 OFFCURVE",
"216 725 OFFCURVE",
"216 636 CURVE SMOOTH",
"216 536 OFFCURVE",
"188 502 OFFCURVE",
"140 502 CURVE SMOOTH"
);
}
);
width = 280;
},
{
layerId = "D02A7F20-5372-446E-84B7-8F4B885083B2";
paths = (
{
closed = 1;
nodes = (
"225 467 OFFCURVE",
"269 504 OFFCURVE",
"269 632 CURVE SMOOTH",
"269 760 OFFCURVE",
"225 801 OFFCURVE",
"140 801 CURVE SMOOTH {\nname = hr00;\n}",
"55 801 OFFCURVE",
"11 760 OFFCURVE",
"11 632 CURVE SMOOTH",
"11 504 OFFCURVE",
"55 467 OFFCURVE",
"140 467 CURVE SMOOTH"
);
},
{
closed = 1;
nodes = (
"127 562 OFFCURVE",
"121 567 OFFCURVE",
"121 632 CURVE SMOOTH",
"121 698 OFFCURVE",
"127 706 OFFCURVE",
"140 706 CURVE SMOOTH",
"154 706 OFFCURVE",
"159 698 OFFCURVE",
"159 632 CURVE SMOOTH",
"159 567 OFFCURVE",
"154 562 OFFCURVE",
"140 562 CURVE SMOOTH"
);
}
);
width = 280;
},
{
layerId = "2D07D9D6-DD7A-4EF1-82E8-8B18836F0AAC";
paths = (
{
closed = 1;
nodes = (
"299 273 OFFCURVE",
"335 330 OFFCURVE",
"335 472 CURVE",
"335 614 OFFCURVE",
"300 670 OFFCURVE",
"175 670 CURVE SMOOTH {\nname = hr00;\n}",
"54 670 OFFCURVE",
"14 614 OFFCURVE",
"14 472 CURVE",
"14 330 OFFCURVE",
"51 273 OFFCURVE",
"175 273 CURVE SMOOTH"
);
},
{
closed = 1;
nodes = (
"159 392 OFFCURVE",
"155 395 OFFCURVE",
"155 472 CURVE",
"155 550 OFFCURVE",
"158 552 OFFCURVE",
"175 552 CURVE SMOOTH",
"192 552 OFFCURVE",
"195 550 OFFCURVE",
"195 472 CURVE",
"195 395 OFFCURVE",
"191 392 OFFCURVE",
"175 392 CURVE SMOOTH"
);
}
);
width = 350;
}
);
unicode = 2070;
userData = {
"- fatto in thin\\012- fatto in bold  com.typemytype.robofont.guides" = (
{
angle = 0;
isGlobal = 0;
magnetic = 5;
x = 0;
y = 378;
},
{
angle = 0;
isGlobal = 0;
magnetic = 5;
x = 0;
y = 792;
},
{
angle = 0;
isGlobal = 0;
magnetic = 5;
x = 0;
y = 378;
},
{
angle = 90;
isGlobal = 0;
magnetic = 5;
x = 2709;
y = 0;
},
{
angle = 90;
isGlobal = 0;
magnetic = 5;
x = 2686;
y = 0;
},
{
angle = 90;
isGlobal = 0;
magnetic = 5;
x = 3966;
y = 0;
}
);
};
},
{
glyphname = onesuperior;
lastChange = "2017-11-12 23:05:21 +0000";
layers = (
{
layerId = "F1BADE0A-D307-4A55-B1D9-DEBA981FCD10";
paths = (
{
closed = 1;
nodes = (
"180 478 LINE",
"180 790 LINE",
"145 790 LINE",
"46 723 LINE {\nname = hr00;\n}",
"63 695 LINE",
"145 751 LINE",
"145 478 LINE"
);
}
);
width = 280;
},
{
layerId = "D02A7F20-5372-446E-84B7-8F4B885083B2";
paths = (
{
closed = 1;
nodes = (
"212 478 LINE",
"212 790 LINE",
"116 790 LINE",
"10 715 LINE {\nname = hr00;\n}",
"59 641 LINE",
"106 673 LINE",
"106 478 LINE"
);
}
);
width = 280;
},
{
layerId = "2D07D9D6-DD7A-4EF1-82E8-8B18836F0AAC";
paths = (
{
closed = 1;
nodes = (
"297 273 LINE",
"297 670 LINE",
"162 670 LINE",
"21 588 LINE {\nname = hr00;\n}",
"57 460 LINE",
"140 494 LINE",
"140 273 LINE"
);
}
);
width = 350;
}
);
unicode = 00B9;
userData = {
"- fatto in thin\\012- fatto in bold  com.typemytype.robofont.guides" = (
{
angle = 0;
isGlobal = 0;
magnetic = 5;
x = 0;
y = 378;
}
);
};
},
{
glyphname = twosuperior;
lastChange = "2017-11-12 21:21:29 +0000";
layers = (
{
layerId = "F1BADE0A-D307-4A55-B1D9-DEBA981FCD10";
paths = (
{
closed = 1;
nodes = (
"230 478 LINE {\nname = hr00;\n}",
"230 511 LINE",
"79 511 LINE",
"159 594 LINE",
"203 639 OFFCURVE",
"223 667 OFFCURVE",
"223 714 CURVE SMOOTH",
"223 771 OFFCURVE",
"192 799 OFFCURVE",
"132 799 CURVE SMOOTH",
"90 799 OFFCURVE",
"39 786 OFFCURVE",
"39 786 CURVE",
"41 757 LINE",
"41 757 OFFCURVE",
"97 767 OFFCURVE",
"131 767 CURVE SMOOTH",
"163 767 OFFCURVE",
"188 751 OFFCURVE",
"188 715 CURVE SMOOTH",
"188 675 OFFCURVE",
"163 647 OFFCURVE",
"134 616 CURVE SMOOTH",
"36 509 LINE",
"36 478 LINE"
);
}
);
width = 280;
},
{
layerId = "D02A7F20-5372-446E-84B7-8F4B885083B2";
paths = (
{
closed = 1;
nodes = (
"252 478 LINE {\nname = hr00;\n}",
"252 573 LINE",
"158 573 LINE",
"196 601 LINE",
"236 630 OFFCURVE",
"252 656 OFFCURVE",
"252 701 CURVE SMOOTH",
"252 772 OFFCURVE",
"224 801 OFFCURVE",
"141 801 CURVE SMOOTH",
"96 801 OFFCURVE",
"23 792 OFFCURVE",
"23 792 CURVE",
"27 693 LINE",
"27 693 OFFCURVE",
"81 699 OFFCURVE",
"103 699 CURVE SMOOTH",
"128 699 OFFCURVE",
"140 696 OFFCURVE",
"140 684 CURVE SMOOTH",
"140 669 OFFCURVE",
"128 654 OFFCURVE",
"94 627 CURVE SMOOTH",
"21 568 LINE",
"21 478 LINE"
);
}
);
width = 280;
},
{
layerId = "2D07D9D6-DD7A-4EF1-82E8-8B18836F0AAC";
paths = (
{
closed = 1;
nodes = (
"301 273 LINE {\nname = hr00;\n}",
"301 390 LINE",
"193 390 LINE",
"213 405 LINE",
"281 470 OFFCURVE",
"308 488 OFFCURVE",
"308 555 CURVE SMOOTH",
"308 633 OFFCURVE",
"268 674 OFFCURVE",
"167 674 CURVE SMOOTH",
"111 674 OFFCURVE",
"45 658 OFFCURVE",
"45 658 CURVE",
"51 555 LINE",
"51 555 OFFCURVE",
"98 560 OFFCURVE",
"136 560 CURVE SMOOTH",
"172 560 OFFCURVE",
"182 552 OFFCURVE",
"182 537 CURVE SMOOTH",
"182 506 OFFCURVE",
"154 489 OFFCURVE",
"98 435 CURVE",
"43 385 LINE",
"43 273 LINE"
);
}
);
width = 350;
}
);
unicode = 00B2;
userData = {
"- fatto in thin\\012- fatto in bold  com.typemytype.robofont.guides" = (
{
angle = 0;
isGlobal = 0;
magnetic = 5;
x = 0;
y = 378;
}
);
};
},
{
glyphname = threesuperior;
lastChange = "2017-11-12 23:05:21 +0000";
layers = (
{
layerId = "F1BADE0A-D307-4A55-B1D9-DEBA981FCD10";
paths = (
{
closed = 1;
nodes = (
"207 469 OFFCURVE",
"242 498 OFFCURVE",
"242 562 CURVE SMOOTH",
"242 620 OFFCURVE",
"222 633 OFFCURVE",
"187 643 CURVE",
"187 643 OFFCURVE",
"233 659 OFFCURVE",
"233 719 CURVE SMOOTH",
"233 775 OFFCURVE",
"204 799 OFFCURVE",
"139 799 CURVE SMOOTH",
"94 799 OFFCURVE",
"41 788 CURVE {\nname = hr00;\n}",
"44 757 LINE",
"44 757 OFFCURVE",
"94 766 OFFCURVE",
"140 766 CURVE SMOOTH",
"184 766 OFFCURVE",
"198 749 OFFCURVE",
"198 719 CURVE SMOOTH",
"198 684 OFFCURVE",
"169 656 OFFCURVE",
"147 656 CURVE SMOOTH",
"82 656 LINE",
"82 623 LINE",
"147 623 LINE",
"181 623 OFFCURVE",
"207 607 OFFCURVE",
"207 561 CURVE SMOOTH",
"207 527 OFFCURVE",
"188 502 OFFCURVE",
"144 502 CURVE SMOOTH",
"94 502 OFFCURVE",
"40 511 OFFCURVE",
"40 511 CURVE",
"37 480 LINE",
"37 480 OFFCURVE",
"95 469 OFFCURVE",
"144 469 CURVE SMOOTH"
);
}
);
width = 280;
},
{
layerId = "D02A7F20-5372-446E-84B7-8F4B885083B2";
paths = (
{
closed = 1;
nodes = (
"214 467 OFFCURVE",
"259 500 OFFCURVE",
"259 569 CURVE SMOOTH",
"259 612 OFFCURVE",
"247 632 OFFCURVE",
"224 642 CURVE",
"243 653 OFFCURVE",
"253 678 OFFCURVE",
"253 712 CURVE SMOOTH",
"253 773 OFFCURVE",
"212 801 OFFCURVE",
"132 801 CURVE SMOOTH",
"92 801 OFFCURVE",
"24 792 CURVE {\nname = hr00;\n}",
"30 701 LINE",
"30 701 OFFCURVE",
"77 706 OFFCURVE",
"114 706 CURVE SMOOTH",
"130 706 OFFCURVE",
"141 703 OFFCURVE",
"141 691 CURVE SMOOTH",
"141 681 OFFCURVE",
"134 677 OFFCURVE",
"121 677 CURVE SMOOTH",
"57 677 LINE",
"57 592 LINE",
"123 592 LINE",
"141 592 OFFCURVE",
"149 590 OFFCURVE",
"149 578 CURVE SMOOTH",
"149 566 OFFCURVE",
"141 562 OFFCURVE",
"120 562 CURVE SMOOTH",
"87 562 OFFCURVE",
"26 568 OFFCURVE",
"26 568 CURVE",
"20 475 LINE",
"20 475 OFFCURVE",
"92 467 OFFCURVE",
"141 467 CURVE SMOOTH"
);
}
);
width = 280;
},
{
layerId = "2D07D9D6-DD7A-4EF1-82E8-8B18836F0AAC";
paths = (
{
closed = 1;
nodes = (
"264 273 OFFCURVE",
"319 300 OFFCURVE",
"319 401 CURVE SMOOTH",
"319 444 OFFCURVE",
"304 461 OFFCURVE",
"278 481 CURVE",
"304 499 OFFCURVE",
"314 517 OFFCURVE",
"314 560 CURVE SMOOTH",
"314 645 OFFCURVE",
"261 670 OFFCURVE",
"151 670 CURVE SMOOTH",
"111 670 OFFCURVE",
"36 654 OFFCURVE",
"36 654 CURVE",
"39 555 LINE {\nname = hr00;\n}",
"39 555 OFFCURVE",
"94 560 OFFCURVE",
"134 560 CURVE SMOOTH",
"158 560 OFFCURVE",
"174 556 OFFCURVE",
"174 542 CURVE SMOOTH",
"174 530 OFFCURVE",
"165 524 OFFCURVE",
"143 524 CURVE SMOOTH",
"66 524 LINE",
"66 422 LINE",
"148 422 LINE",
"172 420 OFFCURVE",
"179 415 OFFCURVE",
"179 403 CURVE SMOOTH",
"179 385 OFFCURVE",
"163 384 OFFCURVE",
"139 384 CURVE SMOOTH",
"103 384 OFFCURVE",
"36 390 OFFCURVE",
"36 390 CURVE",
"33 289 LINE",
"33 289 OFFCURVE",
"111 273 OFFCURVE",
"165 273 CURVE SMOOTH"
);
}
);
width = 350;
}
);
unicode = 00B3;
userData = {
"- fatto in thin\\012- fatto in bold  com.typemytype.robofont.guides" = (
{
angle = 0;
isGlobal = 0;
magnetic = 5;
x = 0;
y = 378;
}
);
};
},
{
glyphname = foursuperior;
lastChange = "2017-11-12 23:05:21 +0000";
layers = (
{
layerId = "F1BADE0A-D307-4A55-B1D9-DEBA981FCD10";
paths = (
{
closed = 1;
nodes = (
"213 478 LINE",
"213 535 LINE",
"250 535 LINE",
"250 568 LINE",
"213 568 LINE",
"213 656 LINE",
"177 656 LINE",
"177 568 LINE",
"71 568 LINE",
"158 790 LINE",
"120 790 LINE",
"31 566 LINE",
"31 535 LINE",
"177 535 LINE",
"177 478 LINE {\nname = hr00;\n}"
);
}
);
width = 280;
},
{
layerId = "D02A7F20-5372-446E-84B7-8F4B885083B2";
paths = (
{
closed = 1;
nodes = (
"251 478 LINE",
"251 513 LINE",
"262 513 LINE",
"262 608 LINE",
"251 608 LINE",
"251 698 LINE",
"160 698 LINE",
"146 608 LINE",
"119 608 LINE",
"171 790 LINE",
"53 790 LINE",
"14 601 LINE",
"14 513 LINE",
"146 513 LINE",
"146 478 LINE {\nname = hr00;\n}"
);
}
);
width = 280;
},
{
layerId = "2D07D9D6-DD7A-4EF1-82E8-8B18836F0AAC";
paths = (
{
closed = 1;
nodes = (
"323 273 LINE",
"323 321 LINE",
"338 321 LINE",
"338 434 LINE",
"323 434 LINE",
"323 507 LINE",
"176 489 LINE",
"176 434 LINE",
"147 434 LINE",
"225 670 LINE",
"67 670 LINE",
"13 419 LINE",
"13 321 LINE",
"176 321 LINE",
"176 273 LINE {\nname = hr00;\n}"
);
}
);
width = 350;
}
);
unicode = 2074;
userData = {
"- fatto in thin  com.typemytype.robofont.guides" = (
{
angle = 0;
isGlobal = 0;
magnetic = 5;
x = 0;
y = 378;
}
);
};
},
{
glyphname = fivesuperior;
lastChange = "2017-11-12 23:05:21 +0000";
layers = (
{
layerId = "F1BADE0A-D307-4A55-B1D9-DEBA981FCD10";
paths = (
{
closed = 1;
nodes = (
"211 469 OFFCURVE",
"244 504 OFFCURVE",
"244 576 CURVE SMOOTH",
"244 651 OFFCURVE",
"203 673 OFFCURVE",
"152 673 CURVE SMOOTH",
"115 673 OFFCURVE",
"84 652 OFFCURVE",
"84 652 CURVE",
"91 757 LINE",
"234 757 LINE",
"234 790 LINE {\nname = hr00;\n}",
"60 790 LINE",
"51 620 LINE",
"82 618 LINE",
"82 618 OFFCURVE",
"112 640 OFFCURVE",
"152 640 CURVE SMOOTH",
"182 640 OFFCURVE",
"209 626 OFFCURVE",
"209 576 CURVE SMOOTH",
"209 528 OFFCURVE",
"189 502 OFFCURVE",
"147 502 CURVE SMOOTH",
"104 502 OFFCURVE",
"50 511 OFFCURVE",
"50 511 CURVE",
"47 481 LINE",
"47 481 OFFCURVE",
"102 469 OFFCURVE",
"147 469 CURVE SMOOTH"
);
}
);
width = 280;
},
{
layerId = "D02A7F20-5372-446E-84B7-8F4B885083B2";
paths = (
{
closed = 1;
nodes = (
"221 471 OFFCURVE",
"261 508 OFFCURVE",
"261 582 CURVE SMOOTH",
"261 654 OFFCURVE",
"227 681 OFFCURVE",
"168 681 CURVE SMOOTH",
"152 681 OFFCURVE",
"124 675 OFFCURVE",
"124 675 CURVE",
"127 700 LINE",
"251 700 LINE",
"251 790 LINE {\nname = hr00;\n}",
"44 790 LINE",
"33 599 LINE",
"111 588 LINE",
"111 588 OFFCURVE",
"128 592 OFFCURVE",
"137 592 CURVE SMOOTH",
"147 592 OFFCURVE",
"151 587 OFFCURVE",
"151 576 CURVE SMOOTH",
"151 566 OFFCURVE",
"143 561 OFFCURVE",
"126 561 CURVE SMOOTH",
"89 561 OFFCURVE",
"33 570 OFFCURVE",
"33 570 CURVE",
"25 485 LINE",
"25 485 OFFCURVE",
"91 471 OFFCURVE",
"143 471 CURVE SMOOTH"
);
}
);
width = 280;
},
{
layerId = "2D07D9D6-DD7A-4EF1-82E8-8B18836F0AAC";
paths = (
{
closed = 1;
nodes = (
"270 273 OFFCURVE",
"331 304 OFFCURVE",
"331 409 CURVE SMOOTH",
"331 512 OFFCURVE",
"291 535 OFFCURVE",
"199 535 CURVE SMOOTH",
"172 535 OFFCURVE",
"139 526 OFFCURVE",
"139 526 CURVE",
"142 552 LINE",
"317 552 LINE",
"317 670 LINE {\nname = hr00;\n}",
"39 670 LINE",
"31 417 LINE",
"118 406 LINE",
"118 406 OFFCURVE",
"144 413 OFFCURVE",
"165 413 CURVE SMOOTH",
"184 413 OFFCURVE",
"191 409 OFFCURVE",
"191 397 CURVE SMOOTH",
"191 386 OFFCURVE",
"181 381 OFFCURVE",
"164 381 CURVE SMOOTH",
"110 381 OFFCURVE",
"31 393 OFFCURVE",
"31 393 CURVE",
"20 296 LINE",
"20 296 OFFCURVE",
"115 273 OFFCURVE",
"177 273 CURVE SMOOTH"
);
}
);
width = 350;
}
);
unicode = 2075;
userData = {
"- fatto in thin\\012- fatto in bold  com.typemytype.robofont.guides" = (
{
angle = 0;
isGlobal = 0;
magnetic = 5;
x = 0;
y = 378;
}
);
};
},
